M48
; DRILL file {KiCad 7.0.8} date 2024 July 14, Sunday 10:46:31
; FORMAT={-:-/ absolute / metric / decimal}
; #@! TF.CreationDate,2024-07-14T10:46:31+09:00
; #@! TF.GenerationSoftware,Kicad,Pcbnew,7.0.8
; #@! TF.FileFunction,Plated,1,2,PTH
FMAT,2
METRIC
; #@! TA.AperFunction,Plated,PTH,ViaDrill
T1C0.400
; #@! TA.AperFunction,Plated,PTH,ComponentDrill
T2C0.813
%
G90
G05
T1
X-4.71Y-35.26
X6.405Y-4.03
X9.82Y-17.53
X15.27Y-30.34
X24.47Y-22.15
X39.126Y-29.384
X55.11Y-28.56
X73.877Y-24.67
X92.927Y-24.29
X111.977Y-23.73
X131.028Y-21.85
X150.077Y-22.91
X169.13Y-22.11
T2
X-8.03Y-11.13
X-8.03Y-26.37
X-5.49Y-11.13
X-5.49Y-26.37
X-2.95Y-11.13
X-2.95Y-26.37
X-0.41Y-11.13
X-0.41Y-26.37
X1.93Y-65.31
X2.13Y-11.13
X2.13Y-26.37
X3.37Y-46.44
X4.67Y-11.13
X4.67Y-26.37
X7.21Y-11.13
X7.21Y-26.37
X9.55Y-65.31
X9.75Y-11.13
X9.75Y-26.37
X10.99Y-46.44
X12.29Y-11.13
X12.29Y-13.67
X12.29Y-16.21
X12.29Y-18.75
X12.29Y-21.29
X12.29Y-23.83
X12.29Y-26.37
X15.645Y-8.24
X16.825Y-27.23
X20.035Y-65.33
X23.265Y-8.24
X24.445Y-27.23
X24.8Y-10.66
X27.11Y-27.31
X27.655Y-65.33
X32.42Y-10.66
X34.34Y-8.36
X34.73Y-27.31
X36.41Y-46.42
X39.14Y-27.23
X41.96Y-8.36
X44.03Y-46.42
X46.76Y-27.23
X48.67Y-46.32
X53.29Y-8.36
X56.29Y-46.32
X58.07Y-27.38
X60.91Y-8.36
X65.69Y-27.38
X67.63Y-46.31
X72.5Y-8.4
X75.25Y-46.31
X77.14Y-27.38
X80.12Y-8.4
X84.76Y-27.38
X86.67Y-46.3
X91.46Y-8.45
X94.29Y-46.3
X96.23Y-27.25
X96.25Y-65.37
X99.08Y-8.45
X103.85Y-27.25
X103.87Y-65.37
X105.69Y-46.31
X110.61Y-8.48
X113.31Y-46.31
X115.32Y-27.23
X118.23Y-8.48
X122.94Y-27.23
X124.74Y-46.33
X129.53Y-8.54
X132.36Y-46.33
X134.23Y-27.26
X137.15Y-8.54
X141.85Y-27.26
X143.85Y-46.34
X143.95Y-8.35
X151.47Y-46.34
X151.57Y-8.35
X153.38Y-27.35
X157.04Y-8.25
X157.22Y-46.54
X161.0Y-27.35
X164.66Y-8.25
X164.84Y-46.54
X172.455Y-65.32
X172.745Y-27.27
X179.355Y-8.71
X180.075Y-65.32
X180.365Y-27.27
X186.975Y-8.71
X189.43Y-46.32
X191.92Y-65.37
X197.05Y-46.32
X199.54Y-65.37
T0
M30
