G04 #@! TF.GenerationSoftware,KiCad,Pcbnew,7.0.8*
G04 #@! TF.CreationDate,2024-07-14T10:46:29+09:00*
G04 #@! TF.ProjectId,cool336_pcb,636f6f6c-3333-4365-9f70-63622e6b6963,rev?*
G04 #@! TF.SameCoordinates,Original*
G04 #@! TF.FileFunction,Copper,L2,Bot*
G04 #@! TF.FilePolarity,Positive*
%FSLAX46Y46*%
G04 Gerber Fmt 4.6, Leading zero omitted, Abs format (unit mm)*
G04 Created by KiCad (PCBNEW 7.0.8) date 2024-07-14 10:46:29*
%MOMM*%
%LPD*%
G01*
G04 APERTURE LIST*
G04 #@! TA.AperFunction,SMDPad,CuDef*
%ADD10R,2.550000X2.500000*%
G04 #@! TD*
G04 #@! TA.AperFunction,ComponentPad*
%ADD11R,1.397000X1.397000*%
G04 #@! TD*
G04 #@! TA.AperFunction,SMDPad,CuDef*
%ADD12R,1.300000X0.950000*%
G04 #@! TD*
G04 #@! TA.AperFunction,ComponentPad*
%ADD13C,1.397000*%
G04 #@! TD*
G04 #@! TA.AperFunction,ComponentPad*
%ADD14C,1.524000*%
G04 #@! TD*
G04 #@! TA.AperFunction,SMDPad,CuDef*
%ADD15R,1.200000X2.000000*%
G04 #@! TD*
G04 #@! TA.AperFunction,SMDPad,CuDef*
%ADD16R,2.000000X1.200000*%
G04 #@! TD*
G04 #@! TA.AperFunction,ViaPad*
%ADD17C,0.800000*%
G04 #@! TD*
G04 #@! TA.AperFunction,Conductor*
%ADD18C,0.250000*%
G04 #@! TD*
G04 APERTURE END LIST*
D10*
X83402500Y-35560000D03*
X96329500Y-33020000D03*
X45302500Y-35560000D03*
X58229500Y-33020000D03*
D11*
X36410000Y-46420000D03*
D12*
X38445000Y-46420000D03*
X41995000Y-46420000D03*
D13*
X44030000Y-46420000D03*
D11*
X3370000Y-46440000D03*
D12*
X5405000Y-46440000D03*
X8955000Y-46440000D03*
D13*
X10990000Y-46440000D03*
D10*
X65000Y-35550000D03*
X12992000Y-33010000D03*
D11*
X105690000Y-46310000D03*
D12*
X107725000Y-46310000D03*
X111275000Y-46310000D03*
D13*
X113310000Y-46310000D03*
D10*
X190565000Y-6960000D03*
X203492000Y-4420000D03*
D11*
X124740000Y-46330000D03*
D12*
X126775000Y-46330000D03*
X130325000Y-46330000D03*
D13*
X132360000Y-46330000D03*
D10*
X150077500Y-16510000D03*
X163004500Y-13970000D03*
X185795000Y-35520000D03*
X198722000Y-32980000D03*
X140552500Y-35560000D03*
X153479500Y-33020000D03*
D11*
X157220000Y-46540000D03*
D12*
X159255000Y-46540000D03*
X162805000Y-46540000D03*
D13*
X164840000Y-46540000D03*
D11*
X24800000Y-10660000D03*
D12*
X26835000Y-10660000D03*
X30385000Y-10660000D03*
D13*
X32420000Y-10660000D03*
D11*
X58070000Y-27380000D03*
D12*
X60105000Y-27380000D03*
X63655000Y-27380000D03*
D13*
X65690000Y-27380000D03*
D11*
X172455000Y-65320000D03*
D12*
X174490000Y-65320000D03*
X178040000Y-65320000D03*
D13*
X180075000Y-65320000D03*
D10*
X92937500Y-54580000D03*
X105864500Y-52040000D03*
D11*
X27110000Y-27310000D03*
D12*
X29145000Y-27310000D03*
X32695000Y-27310000D03*
D13*
X34730000Y-27310000D03*
D11*
X16825000Y-27230000D03*
D12*
X18860000Y-27230000D03*
X22410000Y-27230000D03*
D13*
X24445000Y-27230000D03*
D10*
X26252500Y-35560000D03*
X39179500Y-33020000D03*
X11965000Y2540000D03*
X24892000Y5080000D03*
X169127500Y-54580000D03*
X182054500Y-52040000D03*
X145315000Y2540000D03*
X158242000Y5080000D03*
X88165000Y2540000D03*
X101092000Y5080000D03*
X92927500Y-16510000D03*
X105854500Y-13970000D03*
X-2320000Y-54580000D03*
X10607000Y-52040000D03*
D11*
X179355000Y-8710000D03*
D12*
X181390000Y-8710000D03*
X184940000Y-8710000D03*
D13*
X186975000Y-8710000D03*
D11*
X115320000Y-27230000D03*
D12*
X117355000Y-27230000D03*
X120905000Y-27230000D03*
D13*
X122940000Y-27230000D03*
D10*
X159602500Y-35560000D03*
X172529500Y-33020000D03*
X164365000Y2540000D03*
X177292000Y5080000D03*
D11*
X143950000Y-8350000D03*
D12*
X145985000Y-8350000D03*
X149535000Y-8350000D03*
D13*
X151570000Y-8350000D03*
D10*
X-7085000Y2540000D03*
X5842000Y5080000D03*
X69115000Y2540000D03*
X82042000Y5080000D03*
X121502500Y-35560000D03*
X134429500Y-33020000D03*
X50065000Y2540000D03*
X62992000Y5080000D03*
D11*
X53290000Y-8360000D03*
D12*
X55325000Y-8360000D03*
X58875000Y-8360000D03*
D13*
X60910000Y-8360000D03*
D11*
X15645000Y-8240000D03*
D12*
X17680000Y-8240000D03*
X21230000Y-8240000D03*
D13*
X23265000Y-8240000D03*
D11*
X96230000Y-27250000D03*
D12*
X98265000Y-27250000D03*
X101815000Y-27250000D03*
D13*
X103850000Y-27250000D03*
D11*
X91460000Y-8450000D03*
D12*
X93495000Y-8450000D03*
X97045000Y-8450000D03*
D13*
X99080000Y-8450000D03*
D10*
X64352500Y-35560000D03*
X77279500Y-33020000D03*
D11*
X96250000Y-65370000D03*
D12*
X98285000Y-65370000D03*
X101835000Y-65370000D03*
D13*
X103870000Y-65370000D03*
D11*
X20035000Y-65330000D03*
D12*
X22070000Y-65330000D03*
X25620000Y-65330000D03*
D13*
X27655000Y-65330000D03*
D10*
X16727500Y-16510000D03*
X29654500Y-13970000D03*
X111977500Y-16510000D03*
X124904500Y-13970000D03*
D11*
X129530000Y-8540000D03*
D12*
X131565000Y-8540000D03*
X135115000Y-8540000D03*
D13*
X137150000Y-8540000D03*
D10*
X31015000Y2540000D03*
X43942000Y5080000D03*
D11*
X34340000Y-8360000D03*
D12*
X36375000Y-8360000D03*
X39925000Y-8360000D03*
D13*
X41960000Y-8360000D03*
D11*
X153380000Y-27350000D03*
D12*
X155415000Y-27350000D03*
X158965000Y-27350000D03*
D13*
X161000000Y-27350000D03*
D11*
X172745000Y-27270000D03*
D12*
X174780000Y-27270000D03*
X178330000Y-27270000D03*
D13*
X180365000Y-27270000D03*
D10*
X131027500Y-16510000D03*
X143954500Y-13970000D03*
D11*
X110610000Y-8480000D03*
D12*
X112645000Y-8480000D03*
X116195000Y-8480000D03*
D13*
X118230000Y-8480000D03*
D10*
X188163000Y-54600000D03*
X201090000Y-52060000D03*
D11*
X39140000Y-27230000D03*
D12*
X41175000Y-27230000D03*
X44725000Y-27230000D03*
D13*
X46760000Y-27230000D03*
D11*
X134230000Y-27260000D03*
D12*
X136265000Y-27260000D03*
X139815000Y-27260000D03*
D13*
X141850000Y-27260000D03*
D11*
X143850000Y-46340000D03*
D12*
X145885000Y-46340000D03*
X149435000Y-46340000D03*
D13*
X151470000Y-46340000D03*
D10*
X107215000Y2540000D03*
X120142000Y5080000D03*
X169115000Y-16490000D03*
X182042000Y-13950000D03*
X-4705000Y-16490000D03*
X8222000Y-13950000D03*
D11*
X189430000Y-46320000D03*
D12*
X191465000Y-46320000D03*
X195015000Y-46320000D03*
D13*
X197050000Y-46320000D03*
D11*
X1930000Y-65310000D03*
D12*
X3965000Y-65310000D03*
X7515000Y-65310000D03*
D13*
X9550000Y-65310000D03*
D10*
X73877500Y-16510000D03*
X86804500Y-13970000D03*
X35777500Y-16510000D03*
X48704500Y-13970000D03*
D11*
X157040000Y-8250000D03*
D12*
X159075000Y-8250000D03*
X162625000Y-8250000D03*
D13*
X164660000Y-8250000D03*
D11*
X191920000Y-65370000D03*
D12*
X193955000Y-65370000D03*
X197505000Y-65370000D03*
D13*
X199540000Y-65370000D03*
D11*
X67630000Y-46310000D03*
D12*
X69665000Y-46310000D03*
X73215000Y-46310000D03*
D13*
X75250000Y-46310000D03*
D10*
X126265000Y2540000D03*
X139192000Y5080000D03*
X102452500Y-35560000D03*
X115379500Y-33020000D03*
D11*
X72500000Y-8400000D03*
D12*
X74535000Y-8400000D03*
X78085000Y-8400000D03*
D13*
X80120000Y-8400000D03*
D11*
X48670000Y-46320000D03*
D12*
X50705000Y-46320000D03*
X54255000Y-46320000D03*
D13*
X56290000Y-46320000D03*
D11*
X77140000Y-27380000D03*
D12*
X79175000Y-27380000D03*
X82725000Y-27380000D03*
D13*
X84760000Y-27380000D03*
D10*
X16736250Y-54590000D03*
X29663250Y-52050000D03*
X54827500Y-16510000D03*
X67754500Y-13970000D03*
D11*
X86670000Y-46300000D03*
D12*
X88705000Y-46300000D03*
X92255000Y-46300000D03*
D13*
X94290000Y-46300000D03*
D14*
X-8030000Y-26370000D03*
D15*
X-8030000Y-27840000D03*
D14*
X-5490000Y-26370000D03*
D15*
X-5490000Y-27840000D03*
D14*
X-2950000Y-26370000D03*
D15*
X-2950000Y-27840000D03*
D14*
X-410000Y-26370000D03*
D15*
X-410000Y-27840000D03*
D14*
X2130000Y-26370000D03*
D15*
X2130000Y-27840000D03*
D14*
X4670000Y-26370000D03*
D15*
X4670000Y-27840000D03*
D14*
X7210000Y-26370000D03*
D15*
X7210000Y-27840000D03*
D14*
X9750000Y-26370000D03*
D15*
X9750000Y-27840000D03*
D14*
X12290000Y-26370000D03*
D15*
X12290000Y-27840000D03*
D16*
X13740000Y-23830000D03*
D14*
X12290000Y-23830000D03*
D16*
X13740000Y-21290000D03*
D14*
X12290000Y-21290000D03*
D16*
X13750000Y-18750000D03*
D14*
X12290000Y-18750000D03*
D16*
X13730000Y-16210000D03*
D14*
X12290000Y-16210000D03*
D16*
X13740000Y-13670000D03*
D14*
X12290000Y-13670000D03*
D15*
X12290000Y-9660000D03*
D14*
X12290000Y-11130000D03*
D15*
X9750000Y-9660000D03*
D14*
X9750000Y-11130000D03*
D15*
X7210000Y-9660000D03*
D14*
X7210000Y-11130000D03*
D15*
X4670000Y-9660000D03*
D14*
X4670000Y-11130000D03*
D15*
X2130000Y-9660000D03*
D14*
X2130000Y-11130000D03*
D15*
X-410000Y-9660000D03*
D14*
X-410000Y-11130000D03*
D15*
X-2950000Y-9660000D03*
D14*
X-2950000Y-11130000D03*
D15*
X-5490000Y-9660000D03*
D14*
X-5490000Y-11130000D03*
D15*
X-8030000Y-9660000D03*
D14*
X-8030000Y-11130000D03*
D17*
X-4710000Y-35260000D03*
X24470000Y-22150000D03*
X9820000Y-17530000D03*
X39126250Y-29383750D03*
X15270000Y-30340000D03*
X6405000Y-4030000D03*
X55110000Y-28560000D03*
X73877500Y-24670000D03*
X92927500Y-24290000D03*
X111977500Y-23730000D03*
X169130000Y-22110000D03*
X131027500Y-21850000D03*
X150077500Y-22910000D03*
D18*
X150077500Y-16510000D02*
X142926500Y-9359000D01*
X142926500Y-9359000D02*
X142926500Y151500D01*
X142926500Y151500D02*
X145315000Y2540000D01*
X16727500Y-16510000D02*
X16727500Y-23132120D01*
X16727500Y-23132120D02*
X21827500Y-28232120D01*
X21827500Y-28232120D02*
X21827500Y-31135000D01*
X-8030000Y-26370000D02*
X-8030000Y-27840000D01*
X-5490000Y-26370000D02*
X-5490000Y-27840000D01*
X-2950000Y-26370000D02*
X-2950000Y-27840000D01*
X-410000Y-26370000D02*
X-410000Y-27840000D01*
X2130000Y-26370000D02*
X2130000Y-27840000D01*
X4670000Y-26370000D02*
X4670000Y-27840000D01*
X7210000Y-26370000D02*
X7210000Y-27840000D01*
X9750000Y-26370000D02*
X9750000Y-27840000D01*
X12290000Y-26370000D02*
X12290000Y-27840000D01*
X12290000Y-23830000D02*
X13740000Y-23830000D01*
X12290000Y-21290000D02*
X13740000Y-21290000D01*
X12290000Y-18750000D02*
X13750000Y-18750000D01*
X12290000Y-16210000D02*
X13730000Y-16210000D01*
X12290000Y-13670000D02*
X13740000Y-13670000D01*
X12290000Y-11130000D02*
X12290000Y-9660000D01*
X9750000Y-11130000D02*
X9750000Y-9660000D01*
X7210000Y-11130000D02*
X7210000Y-9660000D01*
X4670000Y-11130000D02*
X4670000Y-9660000D01*
X2130000Y-11130000D02*
X2130000Y-9660000D01*
X-410000Y-11130000D02*
X-410000Y-9660000D01*
X-2950000Y-11130000D02*
X-2950000Y-9660000D01*
X-5490000Y-11130000D02*
X-5490000Y-9660000D01*
X-8030000Y-11130000D02*
X-8030000Y-9660000D01*
X-4710000Y-35260000D02*
X-4710000Y-58670000D01*
X-4710000Y-58670000D02*
X1930000Y-65310000D01*
X24445000Y-22175000D02*
X24445000Y-27230000D01*
X8222000Y-15932000D02*
X9820000Y-17530000D01*
X24470000Y-22150000D02*
X24445000Y-22175000D01*
X8222000Y-13950000D02*
X8222000Y-15932000D01*
X45302500Y-35560000D02*
X39126250Y-29383750D01*
X39126250Y-29383750D02*
X35777500Y-26035000D01*
X12730380Y-30340000D02*
X15270000Y-30340000D01*
X10837000Y-12217000D02*
X10837000Y-28446620D01*
X10837000Y-28446620D02*
X12730380Y-30340000D01*
X9750000Y-11130000D02*
X10837000Y-12217000D01*
X6405000Y-4150000D02*
X6405000Y-4030000D01*
X6405000Y-4030000D02*
X6405000Y4517000D01*
X23265000Y-8240000D02*
X21230000Y-8240000D01*
X15645000Y-8240000D02*
X17680000Y-8240000D01*
X11965000Y2540000D02*
X11965000Y-6416620D01*
X11965000Y-6416620D02*
X16727500Y-11179120D01*
X16727500Y-11179120D02*
X16727500Y-16510000D01*
X13730000Y-16210000D02*
X15075000Y-17555000D01*
X15075000Y-25480000D02*
X16825000Y-27230000D01*
X15075000Y-17555000D02*
X15075000Y-25480000D01*
X34730000Y-27310000D02*
X34730000Y-19045500D01*
X34730000Y-19045500D02*
X29654500Y-13970000D01*
X34730000Y-27310000D02*
X32695000Y-27310000D01*
X27110000Y-27310000D02*
X29145000Y-27310000D01*
X24445000Y-27230000D02*
X22410000Y-27230000D01*
X16825000Y-27230000D02*
X18860000Y-27230000D01*
X64352500Y-35519120D02*
X59001690Y-30168310D01*
X57393380Y-28560000D02*
X59001690Y-30168310D01*
X55110000Y-28560000D02*
X57393380Y-28560000D01*
X54827500Y-25540000D02*
X54827500Y-16510000D01*
X54827500Y-25540000D02*
X54827500Y-28277500D01*
X54827500Y-28277500D02*
X55110000Y-28560000D01*
X73877500Y-26035000D02*
X73877500Y-24670000D01*
X73877500Y-24670000D02*
X73877500Y-16510000D01*
X92927500Y-24290000D02*
X92927500Y-16510000D01*
X92927500Y-25804120D02*
X92927500Y-24290000D01*
X111977500Y-26035000D02*
X111977500Y-23730000D01*
X111977500Y-23730000D02*
X111977500Y-16510000D01*
X172745000Y-27270000D02*
X174780000Y-27270000D01*
X180365000Y-27270000D02*
X178330000Y-27270000D01*
X182042000Y-13950000D02*
X182605000Y-14513000D01*
X182605000Y-14513000D02*
X182605000Y-25030000D01*
X182605000Y-25030000D02*
X180365000Y-27270000D01*
X169115000Y-22095000D02*
X169115000Y-16490000D01*
X169130000Y-22110000D02*
X169115000Y-22095000D01*
X158805000Y4517000D02*
X158805000Y870000D01*
X158805000Y-1115000D02*
X158805000Y870000D01*
X151570000Y-8350000D02*
X158805000Y-1115000D01*
X164365000Y2540000D02*
X168780000Y6955000D01*
X168780000Y6955000D02*
X179665000Y6955000D01*
X179665000Y6955000D02*
X190565000Y-3945000D01*
X190565000Y-3945000D02*
X190565000Y-6960000D01*
X190565000Y-6960000D02*
X178645000Y-6960000D01*
X178645000Y-6960000D02*
X169115000Y-16490000D01*
X186975000Y-8710000D02*
X190190000Y-11925000D01*
X190190000Y-11925000D02*
X202178833Y-11925000D01*
X202178833Y-11925000D02*
X204055000Y-10048833D01*
X204055000Y-10048833D02*
X204055000Y-4983000D01*
X204055000Y-4983000D02*
X203492000Y-4420000D01*
X164660000Y-8250000D02*
X166665000Y-8250000D01*
X166665000Y-8250000D02*
X175205000Y290000D01*
X175205000Y290000D02*
X175205000Y2993000D01*
X175205000Y2993000D02*
X177292000Y5080000D01*
X186975000Y-8710000D02*
X184940000Y-8710000D01*
X179355000Y-8710000D02*
X181390000Y-8710000D01*
X190945000Y-26165000D02*
X183750000Y-18970000D01*
X179786620Y-8710000D02*
X179355000Y-8710000D01*
X190945000Y-36296650D02*
X190945000Y-26165000D01*
X189430000Y-37811650D02*
X190945000Y-36296650D01*
X189430000Y-46320000D02*
X189430000Y-37811650D01*
X183750000Y-18970000D02*
X183750000Y-12673380D01*
X183750000Y-12673380D02*
X179786620Y-8710000D01*
X197050000Y-46320000D02*
X196558791Y-45828791D01*
X196558791Y-45828791D02*
X196558791Y-35143209D01*
X196558791Y-35143209D02*
X198722000Y-32980000D01*
X159602500Y-35560000D02*
X164017500Y-31145000D01*
X164017500Y-31145000D02*
X181420000Y-31145000D01*
X181420000Y-31145000D02*
X185795000Y-35520000D01*
X173092500Y-38986000D02*
X173092500Y-36710000D01*
X173092500Y-36710000D02*
X173092500Y-36620000D01*
X172529500Y-33020000D02*
X172529500Y-36147000D01*
X172529500Y-36147000D02*
X173092500Y-36710000D01*
X164840000Y-46540000D02*
X165538500Y-46540000D01*
X165538500Y-46540000D02*
X173092500Y-38986000D01*
X102452500Y-35560000D02*
X102452500Y-44929120D01*
X104856880Y-47333500D02*
X121369750Y-47333500D01*
X102452500Y-44929120D02*
X104856880Y-47333500D01*
X160690771Y-47803500D02*
X162940000Y-50052729D01*
X121369750Y-47333500D02*
X121839750Y-47803500D01*
X121839750Y-47803500D02*
X160690771Y-47803500D01*
X162940000Y-50052729D02*
X183615729Y-50052729D01*
X183615729Y-50052729D02*
X188163000Y-54600000D01*
X189430000Y-46320000D02*
X193313000Y-50203000D01*
X193313000Y-50203000D02*
X193313000Y-55677000D01*
X193313000Y-55677000D02*
X191920000Y-57070000D01*
X191920000Y-57070000D02*
X191920000Y-65370000D01*
X197050000Y-46320000D02*
X195015000Y-46320000D01*
X189430000Y-46320000D02*
X191465000Y-46320000D01*
X201090000Y-52060000D02*
X201653000Y-52623000D01*
X201653000Y-52623000D02*
X201653000Y-63257000D01*
X201653000Y-63257000D02*
X199540000Y-65370000D01*
X199540000Y-65370000D02*
X197505000Y-65370000D01*
X191920000Y-65370000D02*
X193955000Y-65370000D01*
X182054500Y-52040000D02*
X182617500Y-52603000D01*
X182617500Y-52603000D02*
X182617500Y-62777500D01*
X182617500Y-62777500D02*
X180075000Y-65320000D01*
X172455000Y-65320000D02*
X174490000Y-65320000D01*
X180075000Y-65320000D02*
X178040000Y-65320000D01*
X83402500Y-35560000D02*
X83402500Y-44889120D01*
X83402500Y-44889120D02*
X88653380Y-50140000D01*
X88653380Y-50140000D02*
X150720000Y-50140000D01*
X150720000Y-50140000D02*
X155160000Y-54580000D01*
X155160000Y-54580000D02*
X169127500Y-54580000D01*
X92937500Y-54580000D02*
X73847500Y-54580000D01*
X73847500Y-54580000D02*
X64352500Y-45085000D01*
X105864500Y-52040000D02*
X106427500Y-52603000D01*
X106427500Y-52603000D02*
X106427500Y-62812500D01*
X106427500Y-62812500D02*
X103870000Y-65370000D01*
X96250000Y-65370000D02*
X98285000Y-65370000D01*
X103870000Y-65370000D02*
X101835000Y-65370000D01*
X12992000Y-33010000D02*
X13555000Y-33573000D01*
X13555000Y-33573000D02*
X13555000Y-43875000D01*
X13555000Y-43875000D02*
X10990000Y-46440000D01*
X-1870000Y-33160000D02*
X6630000Y-33160000D01*
X21827500Y-31135000D02*
X26252500Y-35560000D01*
X6630000Y-33160000D02*
X8655000Y-31135000D01*
X8655000Y-31135000D02*
X21827500Y-31135000D01*
X44030000Y-46420000D02*
X44030000Y-37870500D01*
X44030000Y-37870500D02*
X39179500Y-33020000D01*
X20035000Y-65330000D02*
X22070000Y-65330000D01*
X27655000Y-65330000D02*
X25620000Y-65330000D01*
X29663250Y-52050000D02*
X30226250Y-52613000D01*
X30226250Y-52613000D02*
X30226250Y-62758750D01*
X30226250Y-62758750D02*
X27655000Y-65330000D01*
X10990000Y-46440000D02*
X8955000Y-46440000D01*
X3370000Y-46440000D02*
X5405000Y-46440000D01*
X-2320000Y-54580000D02*
X-2320000Y-37935000D01*
X-2320000Y-37935000D02*
X65000Y-35550000D01*
X10607000Y-52040000D02*
X11170000Y-52603000D01*
X11170000Y-52603000D02*
X11170000Y-63690000D01*
X11170000Y-63690000D02*
X9550000Y-65310000D01*
X7515000Y-65310000D02*
X9550000Y-65310000D01*
X1930000Y-65310000D02*
X3965000Y-65310000D01*
X91460000Y-8450000D02*
X93495000Y-8450000D01*
X34340000Y-8360000D02*
X36375000Y-8360000D01*
X143950000Y-8350000D02*
X145985000Y-8350000D01*
X157040000Y-8250000D02*
X159075000Y-8250000D01*
X110610000Y-8480000D02*
X112645000Y-8480000D01*
X24800000Y-10660000D02*
X26835000Y-10660000D01*
X72500000Y-8400000D02*
X74535000Y-8400000D01*
X129530000Y-8540000D02*
X131565000Y-8540000D01*
X53290000Y-8360000D02*
X55325000Y-8360000D01*
X96230000Y-27250000D02*
X98265000Y-27250000D01*
X77140000Y-27380000D02*
X79175000Y-27380000D01*
X58070000Y-27380000D02*
X60105000Y-27380000D01*
X153380000Y-27350000D02*
X155415000Y-27350000D01*
X134230000Y-27260000D02*
X136265000Y-27260000D01*
X39140000Y-27230000D02*
X41175000Y-27230000D01*
X115320000Y-27230000D02*
X117355000Y-27230000D01*
X36410000Y-46420000D02*
X38445000Y-46420000D01*
X105690000Y-46310000D02*
X107725000Y-46310000D01*
X48670000Y-46320000D02*
X50705000Y-46320000D01*
X86670000Y-46300000D02*
X88705000Y-46300000D01*
X157220000Y-46540000D02*
X159255000Y-46540000D01*
X67630000Y-46310000D02*
X69665000Y-46310000D01*
X124740000Y-46330000D02*
X126775000Y-46330000D01*
X143850000Y-46340000D02*
X145885000Y-46340000D01*
X65000Y-35550000D02*
X-320000Y-35550000D01*
X-7085000Y-1830000D02*
X-6943000Y-1972000D01*
X-7085000Y-2205000D02*
X-7085000Y-1830000D01*
X-7085000Y2540000D02*
X-6930000Y2695000D01*
X-320000Y-35550000D02*
X-8030000Y-27840000D01*
X-4705000Y-16490000D02*
X-4705000Y-23045000D01*
X-7085000Y-1830000D02*
X-7085000Y2540000D01*
X-6943000Y-1972000D02*
X-6943000Y-14252000D01*
X-6943000Y-14252000D02*
X-4705000Y-16490000D01*
X-4705000Y-23045000D02*
X-8030000Y-26370000D01*
X-5490000Y-27840000D02*
X-5490000Y-29540000D01*
X11965000Y2765000D02*
X11965000Y2540000D01*
X-5490000Y-29540000D02*
X-1870000Y-33160000D01*
X16736250Y-48723750D02*
X16736250Y-54590000D01*
X26252500Y-35560000D02*
X26252500Y-39207500D01*
X26252500Y-39207500D02*
X16736250Y-48723750D01*
X35777500Y-26035000D02*
X35777500Y-16510000D01*
X31015000Y2540000D02*
X31015000Y-406604D01*
X33316500Y-2708104D02*
X33316500Y-10066500D01*
X31015000Y-406604D02*
X33316500Y-2708104D01*
X33316500Y-10066500D02*
X35777500Y-12527500D01*
X35777500Y-12527500D02*
X35777500Y-16510000D01*
X64352500Y-35560000D02*
X64352500Y-35519120D01*
X50065000Y-11747500D02*
X54827500Y-16510000D01*
X64352500Y-45085000D02*
X64352500Y-35560000D01*
X50065000Y2540000D02*
X50065000Y-11747500D01*
X69115000Y2540000D02*
X69115000Y-4060000D01*
X83402500Y-35560000D02*
X73877500Y-26035000D01*
X69115000Y-11747500D02*
X73877500Y-16510000D01*
X69115000Y-4060000D02*
X69115000Y-11747500D01*
X88165000Y-5240000D02*
X88165000Y-11747500D01*
X88165000Y2540000D02*
X88165000Y-5240000D01*
X102452500Y-35560000D02*
X102452500Y-35329120D01*
X102452500Y-35329120D02*
X92927500Y-25804120D01*
X88165000Y-11747500D02*
X92927500Y-16510000D01*
X121502500Y-35560000D02*
X111977500Y-26035000D01*
X107215000Y-11747500D02*
X111977500Y-16510000D01*
X107215000Y2540000D02*
X107215000Y-6080000D01*
X121502500Y-35560000D02*
X121502500Y-44949120D01*
X121502500Y-44949120D02*
X123906880Y-47353500D01*
X107215000Y-6080000D02*
X107215000Y-11747500D01*
X123906880Y-47353500D02*
X143006880Y-47353500D01*
X140552500Y-35560000D02*
X131027500Y-26035000D01*
X126265000Y-11747500D02*
X131027500Y-16510000D01*
X131027500Y-21850000D02*
X131027500Y-16510000D01*
X131027500Y-26035000D02*
X131027500Y-21850000D01*
X126265000Y2540000D02*
X126265000Y-11747500D01*
X159602500Y-35560000D02*
X159602500Y-35429120D01*
X150077500Y-25904120D02*
X150077500Y-22910000D01*
X159602500Y-35429120D02*
X150077500Y-25904120D01*
X150077500Y-22910000D02*
X150077500Y-16510000D01*
X-5300000Y-11679620D02*
X-5300000Y-8887000D01*
X6405000Y4517000D02*
X5842000Y5080000D01*
X32420000Y-10660000D02*
X30385000Y-10660000D01*
X24892000Y5080000D02*
X32420000Y-2448000D01*
X32420000Y-2448000D02*
X32420000Y-10660000D01*
X43942000Y5080000D02*
X44505000Y4517000D01*
X44505000Y4517000D02*
X44505000Y-5815000D01*
X41960000Y-8360000D02*
X39925000Y-8360000D01*
X44505000Y-5815000D02*
X41960000Y-8360000D01*
X63555000Y4517000D02*
X63555000Y-5715000D01*
X62992000Y5080000D02*
X63555000Y4517000D01*
X60910000Y-8360000D02*
X58875000Y-8360000D01*
X63555000Y-5715000D02*
X60910000Y-8360000D01*
X82042000Y5080000D02*
X82605000Y4517000D01*
X82605000Y-5915000D02*
X80120000Y-8400000D01*
X82605000Y4517000D02*
X82605000Y-5915000D01*
X80120000Y-8400000D02*
X78085000Y-8400000D01*
X99080000Y-8450000D02*
X97045000Y-8450000D01*
X101655000Y-5875000D02*
X99080000Y-8450000D01*
X101655000Y4517000D02*
X101655000Y-5875000D01*
X101092000Y5080000D02*
X101655000Y4517000D01*
X120705000Y4517000D02*
X120705000Y-6005000D01*
X120705000Y-6005000D02*
X118230000Y-8480000D01*
X120142000Y5080000D02*
X120705000Y4517000D01*
X118230000Y-8480000D02*
X116195000Y-8480000D01*
X139755000Y4517000D02*
X139755000Y-5935000D01*
X139192000Y5080000D02*
X139755000Y4517000D01*
X139755000Y-5935000D02*
X137150000Y-8540000D01*
X137150000Y-8540000D02*
X135115000Y-8540000D01*
X158242000Y5080000D02*
X158805000Y4517000D01*
X151570000Y-8350000D02*
X149535000Y-8350000D01*
X177292000Y5080000D02*
X177855000Y4517000D01*
X164660000Y-8250000D02*
X162625000Y-8250000D01*
X29654500Y-13970000D02*
X30217500Y-14533000D01*
X48704500Y-13970000D02*
X49267500Y-14533000D01*
X46760000Y-27230000D02*
X44725000Y-27230000D01*
X49267500Y-24722500D02*
X46760000Y-27230000D01*
X49267500Y-14533000D02*
X49267500Y-24722500D01*
X65690000Y-27380000D02*
X63655000Y-27380000D01*
X68317500Y-14533000D02*
X68317500Y-24752500D01*
X67754500Y-13970000D02*
X68317500Y-14533000D01*
X68317500Y-24752500D02*
X65690000Y-27380000D01*
X86804500Y-13970000D02*
X87367500Y-14533000D01*
X87367500Y-24772500D02*
X84760000Y-27380000D01*
X87367500Y-14533000D02*
X87367500Y-24772500D01*
X84760000Y-27380000D02*
X82725000Y-27380000D01*
X105854500Y-13970000D02*
X106417500Y-14533000D01*
X106417500Y-24682500D02*
X103850000Y-27250000D01*
X103850000Y-27250000D02*
X101815000Y-27250000D01*
X106417500Y-14533000D02*
X106417500Y-24682500D01*
X125467500Y-24702500D02*
X122940000Y-27230000D01*
X122940000Y-27230000D02*
X120905000Y-27230000D01*
X125467500Y-14533000D02*
X125467500Y-24702500D01*
X124904500Y-13970000D02*
X125467500Y-14533000D01*
X144517500Y-14533000D02*
X144517500Y-24592500D01*
X141850000Y-27260000D02*
X139815000Y-27260000D01*
X143954500Y-13970000D02*
X144517500Y-14533000D01*
X144517500Y-24592500D02*
X141850000Y-27260000D01*
X163567500Y-24782500D02*
X161000000Y-27350000D01*
X163004500Y-13970000D02*
X163567500Y-14533000D01*
X163567500Y-14533000D02*
X163567500Y-24782500D01*
X161000000Y-27350000D02*
X158965000Y-27350000D01*
X10610000Y-46370000D02*
X10350000Y-46370000D01*
X39179500Y-33020000D02*
X39742500Y-33583000D01*
X44030000Y-46420000D02*
X41995000Y-46420000D01*
X58792500Y-33583000D02*
X58792500Y-43817500D01*
X56290000Y-46320000D02*
X54255000Y-46320000D01*
X58792500Y-43817500D02*
X56290000Y-46320000D01*
X58229500Y-33020000D02*
X58792500Y-33583000D01*
X75250000Y-46310000D02*
X73215000Y-46310000D01*
X77279500Y-33020000D02*
X77842500Y-33583000D01*
X77842500Y-33583000D02*
X77842500Y-43717500D01*
X77842500Y-43717500D02*
X75250000Y-46310000D01*
X96892500Y-43697500D02*
X94290000Y-46300000D01*
X96892500Y-33583000D02*
X96892500Y-43697500D01*
X96329500Y-33020000D02*
X96892500Y-33583000D01*
X94290000Y-46300000D02*
X92255000Y-46300000D01*
X113310000Y-46310000D02*
X111275000Y-46310000D01*
X115942500Y-33583000D02*
X115942500Y-43677500D01*
X115379500Y-33020000D02*
X115942500Y-33583000D01*
X115942500Y-43677500D02*
X113310000Y-46310000D01*
X132360000Y-46330000D02*
X130325000Y-46330000D01*
X134992500Y-43697500D02*
X132360000Y-46330000D01*
X134429500Y-33020000D02*
X134992500Y-33583000D01*
X134992500Y-33583000D02*
X134992500Y-43697500D01*
X151470000Y-46340000D02*
X149435000Y-46340000D01*
X154042500Y-43767500D02*
X151470000Y-46340000D01*
X153479500Y-33020000D02*
X154042500Y-33583000D01*
X154042500Y-33583000D02*
X154042500Y-43767500D01*
X164840000Y-46540000D02*
X162805000Y-46540000D01*
X172529500Y-33020000D02*
X173092500Y-33583000D01*
M02*
