G04 #@! TF.GenerationSoftware,KiCad,Pcbnew,7.0.8*
G04 #@! TF.CreationDate,2024-07-14T10:46:29+09:00*
G04 #@! TF.ProjectId,cool336_pcb,636f6f6c-3333-4365-9f70-63622e6b6963,rev?*
G04 #@! TF.SameCoordinates,Original*
G04 #@! TF.FileFunction,Legend,Top*
G04 #@! TF.FilePolarity,Positive*
%FSLAX46Y46*%
G04 Gerber Fmt 4.6, Leading zero omitted, Abs format (unit mm)*
G04 Created by KiCad (PCBNEW 7.0.8) date 2024-07-14 10:46:29*
%MOMM*%
%LPD*%
G01*
G04 APERTURE LIST*
%ADD10C,0.250000*%
%ADD11C,0.150000*%
%ADD12R,1.397000X1.397000*%
%ADD13C,1.397000*%
G04 APERTURE END LIST*
D10*
G36*
X59018799Y-54900983D02*
G01*
X59063683Y-54923753D01*
X59094821Y-54963027D01*
X59098178Y-55014556D01*
X59087767Y-55040460D01*
X59054133Y-55080325D01*
X59011477Y-55113923D01*
X58968141Y-55142012D01*
X58921102Y-55169651D01*
X58939050Y-55212242D01*
X58960833Y-55258976D01*
X58986442Y-55309538D01*
X59015868Y-55363614D01*
X59049104Y-55420888D01*
X59086140Y-55481046D01*
X59126970Y-55543773D01*
X59171585Y-55608753D01*
X59219975Y-55675673D01*
X59272134Y-55744218D01*
X59328053Y-55814071D01*
X59387723Y-55884920D01*
X59451136Y-55956448D01*
X59518284Y-56028341D01*
X59589160Y-56100284D01*
X59663753Y-56171962D01*
X59742057Y-56243061D01*
X59824062Y-56313265D01*
X59909761Y-56382260D01*
X59999146Y-56449731D01*
X60092207Y-56515363D01*
X60188937Y-56578841D01*
X60289328Y-56639851D01*
X60393371Y-56698077D01*
X60501058Y-56753204D01*
X60612381Y-56804918D01*
X60727331Y-56852905D01*
X60845900Y-56896848D01*
X60968080Y-56936434D01*
X61093863Y-56971347D01*
X61223240Y-57001273D01*
X61356203Y-57025896D01*
X60843293Y-57649937D01*
X60758095Y-57630030D01*
X60674215Y-57607464D01*
X60591626Y-57582325D01*
X60510303Y-57554701D01*
X60430217Y-57524680D01*
X60351342Y-57492350D01*
X60273651Y-57457798D01*
X60197118Y-57421112D01*
X60121716Y-57382379D01*
X60047417Y-57341687D01*
X59974195Y-57299125D01*
X59902023Y-57254778D01*
X59830875Y-57208736D01*
X59760723Y-57161086D01*
X59691540Y-57111915D01*
X59623300Y-57061311D01*
X59490188Y-57702449D01*
X59436729Y-57695620D01*
X59380911Y-57689323D01*
X59322949Y-57683545D01*
X59263061Y-57678273D01*
X59201463Y-57673494D01*
X59138371Y-57669197D01*
X59074002Y-57665369D01*
X59008572Y-57661996D01*
X58942297Y-57659067D01*
X58875395Y-57656570D01*
X58808081Y-57654491D01*
X58740572Y-57652818D01*
X58673085Y-57651539D01*
X58605836Y-57650640D01*
X58539041Y-57650111D01*
X58472916Y-57649937D01*
X58316601Y-57649937D01*
X58176161Y-58325268D01*
X58990711Y-58325268D01*
X59060389Y-58325225D01*
X59128186Y-58325091D01*
X59194169Y-58324863D01*
X59258403Y-58324536D01*
X59320955Y-58324106D01*
X59381890Y-58323570D01*
X59441275Y-58322922D01*
X59499175Y-58322158D01*
X59555657Y-58321274D01*
X59610786Y-58320267D01*
X59664629Y-58319131D01*
X59717250Y-58317862D01*
X59768717Y-58316457D01*
X59819096Y-58314910D01*
X59916850Y-58311377D01*
X60011040Y-58307228D01*
X60102195Y-58302430D01*
X60190842Y-58296949D01*
X60277509Y-58290750D01*
X60362723Y-58283800D01*
X60447012Y-58276064D01*
X60530904Y-58267509D01*
X60614926Y-58258101D01*
X60458611Y-59005484D01*
X60398658Y-59000360D01*
X60338608Y-58995514D01*
X60278546Y-58990939D01*
X60218554Y-58986627D01*
X60158715Y-58982571D01*
X60099111Y-58978764D01*
X60039827Y-58975197D01*
X59980944Y-58971863D01*
X59922546Y-58968754D01*
X59864716Y-58965864D01*
X59807537Y-58963183D01*
X59751091Y-58960705D01*
X59695462Y-58958422D01*
X59640733Y-58956326D01*
X59586986Y-58954411D01*
X59534304Y-58952667D01*
X59482771Y-58951088D01*
X59432470Y-58949666D01*
X59335893Y-58947262D01*
X59245237Y-58945395D01*
X59161166Y-58944004D01*
X59084344Y-58943028D01*
X59015434Y-58942406D01*
X58955100Y-58942077D01*
X58904005Y-58941981D01*
X58047934Y-58941981D01*
X57936803Y-59476873D01*
X57932338Y-59498503D01*
X57920842Y-59554512D01*
X57906336Y-59625445D01*
X57889316Y-59708809D01*
X57870274Y-59802114D01*
X57860150Y-59851715D01*
X57849705Y-59902867D01*
X57839001Y-59955258D01*
X57828101Y-60008576D01*
X57817066Y-60062510D01*
X57805957Y-60116749D01*
X57794837Y-60170981D01*
X57783767Y-60224894D01*
X57772809Y-60278178D01*
X57762024Y-60330520D01*
X57751475Y-60381609D01*
X57741222Y-60431134D01*
X57721855Y-60524245D01*
X57704416Y-60607360D01*
X57689399Y-60677988D01*
X57677298Y-60733637D01*
X57665694Y-60783572D01*
X57653556Y-60822422D01*
X57625993Y-60893019D01*
X57594397Y-60954653D01*
X57559191Y-61007934D01*
X57520798Y-61053469D01*
X57479639Y-61091866D01*
X57436136Y-61123733D01*
X57390713Y-61149680D01*
X57343790Y-61170313D01*
X57295790Y-61186241D01*
X57247136Y-61198073D01*
X57198249Y-61206417D01*
X57125406Y-61213722D01*
X57054414Y-61216600D01*
X56986699Y-61217103D01*
X56953746Y-61216949D01*
X56901998Y-61216171D01*
X56847824Y-61214795D01*
X56791621Y-61212887D01*
X56733788Y-61210515D01*
X56674723Y-61207744D01*
X56614825Y-61204641D01*
X56554492Y-61201272D01*
X56494123Y-61197704D01*
X56434116Y-61194004D01*
X56374870Y-61190237D01*
X56197794Y-60431863D01*
X56252677Y-60441847D01*
X56308514Y-60451150D01*
X56373669Y-60461430D01*
X56445207Y-60472169D01*
X56494997Y-60479328D01*
X56545450Y-60486305D01*
X56595698Y-60492948D01*
X56668782Y-60501948D01*
X56736512Y-60509331D01*
X56795956Y-60514576D01*
X56857250Y-60517348D01*
X56892375Y-60516549D01*
X56950576Y-60509185D01*
X57004645Y-60485808D01*
X57043485Y-60441938D01*
X57067576Y-60388667D01*
X57083562Y-60336403D01*
X57099185Y-60272366D01*
X57110032Y-60222591D01*
X57121666Y-60166770D01*
X57134466Y-60104577D01*
X57376266Y-58941981D01*
X56575150Y-58941981D01*
X56485264Y-58942158D01*
X56390560Y-58942706D01*
X56341621Y-58943129D01*
X56291741Y-58943656D01*
X56241009Y-58944290D01*
X56189513Y-58945034D01*
X56137340Y-58945894D01*
X56084580Y-58946871D01*
X56031319Y-58947970D01*
X55977647Y-58949194D01*
X55923650Y-58950547D01*
X55869418Y-58952033D01*
X55815039Y-58953654D01*
X55760600Y-58955415D01*
X55706189Y-58957319D01*
X55651895Y-58959369D01*
X55597807Y-58961570D01*
X55544011Y-58963925D01*
X55490596Y-58966437D01*
X55437650Y-58969110D01*
X55385261Y-58971948D01*
X55333518Y-58974954D01*
X55282508Y-58978132D01*
X55232320Y-58981485D01*
X55134761Y-58988731D01*
X55041545Y-58996721D01*
X54953377Y-59005484D01*
X55109692Y-58258101D01*
X55200458Y-58267509D01*
X55294341Y-58276064D01*
X55390941Y-58283800D01*
X55440133Y-58287371D01*
X55489853Y-58290750D01*
X55540050Y-58293941D01*
X55590675Y-58296949D01*
X55641677Y-58299777D01*
X55693006Y-58302430D01*
X55744611Y-58304912D01*
X55796442Y-58307228D01*
X55848449Y-58309382D01*
X55900581Y-58311377D01*
X55952789Y-58313218D01*
X56005021Y-58314910D01*
X56057228Y-58316457D01*
X56109359Y-58317862D01*
X56161364Y-58319131D01*
X56213192Y-58320267D01*
X56264794Y-58321274D01*
X56316119Y-58322158D01*
X56367116Y-58322922D01*
X56417735Y-58323570D01*
X56467927Y-58324106D01*
X56517640Y-58324536D01*
X56615431Y-58325091D01*
X56710704Y-58325268D01*
X57504494Y-58325268D01*
X57644933Y-57649937D01*
X57487397Y-57649937D01*
X57423503Y-57650193D01*
X57357495Y-57650955D01*
X57289662Y-57652215D01*
X57220294Y-57653963D01*
X57149681Y-57656190D01*
X57078113Y-57658888D01*
X57005880Y-57662048D01*
X56933271Y-57665660D01*
X56860576Y-57669716D01*
X56788084Y-57674206D01*
X56716087Y-57679122D01*
X56644873Y-57684455D01*
X56574733Y-57690196D01*
X56505955Y-57696336D01*
X56438831Y-57702865D01*
X56373649Y-57709776D01*
X56495771Y-57124815D01*
X56450515Y-57152494D01*
X56406308Y-57179224D01*
X56363105Y-57205036D01*
X56320860Y-57229961D01*
X56239062Y-57277273D01*
X56160547Y-57321411D01*
X56084952Y-57362622D01*
X56011912Y-57401155D01*
X55941061Y-57437258D01*
X55872035Y-57471181D01*
X55804469Y-57503172D01*
X55737998Y-57533480D01*
X55672256Y-57562353D01*
X55606879Y-57590040D01*
X55541503Y-57616789D01*
X55475761Y-57642850D01*
X55409289Y-57668471D01*
X55341723Y-57693900D01*
X54930174Y-57138248D01*
X54986582Y-57122811D01*
X55044223Y-57105631D01*
X55102993Y-57086780D01*
X55162787Y-57066332D01*
X55223500Y-57044361D01*
X55252759Y-57033224D01*
X56636210Y-57033224D01*
X56709142Y-57036996D01*
X56778052Y-57040532D01*
X56843082Y-57043841D01*
X56904376Y-57046929D01*
X56962077Y-57049804D01*
X57016326Y-57052474D01*
X57115041Y-57057228D01*
X57201663Y-57061252D01*
X57277333Y-57064608D01*
X57343194Y-57067355D01*
X57400385Y-57069555D01*
X57450049Y-57071268D01*
X57512927Y-57073058D01*
X57565287Y-57074096D01*
X57625399Y-57074664D01*
X57682791Y-57074745D01*
X58592595Y-57074745D01*
X58646197Y-57074668D01*
X58703583Y-57074413D01*
X58764189Y-57073948D01*
X58827450Y-57073237D01*
X58892801Y-57072248D01*
X58959675Y-57070945D01*
X59027509Y-57069296D01*
X59095736Y-57067265D01*
X59163791Y-57064819D01*
X59231109Y-57061924D01*
X59297125Y-57058547D01*
X59361273Y-57054652D01*
X59422989Y-57050206D01*
X59481706Y-57045176D01*
X59536860Y-57039526D01*
X59587885Y-57033224D01*
X59541162Y-56996547D01*
X59494882Y-56959332D01*
X59449061Y-56921574D01*
X59403713Y-56883272D01*
X59358852Y-56844422D01*
X59314494Y-56805022D01*
X59270652Y-56765070D01*
X59227341Y-56724562D01*
X59184575Y-56683495D01*
X59142370Y-56641868D01*
X59100739Y-56599678D01*
X59059698Y-56556921D01*
X59019260Y-56513596D01*
X58979441Y-56469699D01*
X58940254Y-56425227D01*
X58901715Y-56380179D01*
X58863838Y-56334551D01*
X58826637Y-56288341D01*
X58790127Y-56241546D01*
X58754323Y-56194163D01*
X58719238Y-56146190D01*
X58684889Y-56097624D01*
X58651288Y-56048463D01*
X58618451Y-55998702D01*
X58586392Y-55948341D01*
X58555126Y-55897376D01*
X58524667Y-55845805D01*
X58495029Y-55793624D01*
X58466229Y-55740832D01*
X58438279Y-55687425D01*
X58411194Y-55633401D01*
X58384989Y-55578757D01*
X58348758Y-55615493D01*
X58311710Y-55652877D01*
X58273807Y-55690903D01*
X58235013Y-55729561D01*
X58195291Y-55768842D01*
X58154604Y-55808738D01*
X58112913Y-55849240D01*
X58070183Y-55890339D01*
X58026376Y-55932026D01*
X57981455Y-55974294D01*
X57935382Y-56017133D01*
X57888122Y-56060534D01*
X57839636Y-56104488D01*
X57789887Y-56148988D01*
X57738839Y-56194024D01*
X57686454Y-56239587D01*
X57632696Y-56285669D01*
X57577526Y-56332261D01*
X57520908Y-56379355D01*
X57462805Y-56426941D01*
X57403180Y-56475011D01*
X57341995Y-56523556D01*
X57279214Y-56572568D01*
X57214799Y-56622037D01*
X57148713Y-56671955D01*
X57080919Y-56722314D01*
X57011380Y-56773104D01*
X56940059Y-56824317D01*
X56866918Y-56875944D01*
X56791922Y-56927977D01*
X56715031Y-56980406D01*
X56636210Y-57033224D01*
X55252759Y-57033224D01*
X55285029Y-57020941D01*
X55347267Y-56996144D01*
X55410111Y-56970045D01*
X55473456Y-56942717D01*
X55537197Y-56914233D01*
X55601230Y-56884667D01*
X55665450Y-56854094D01*
X55729752Y-56822585D01*
X55794032Y-56790216D01*
X55858184Y-56757059D01*
X55922105Y-56723188D01*
X55985690Y-56688676D01*
X56048834Y-56653598D01*
X56111432Y-56618026D01*
X56173380Y-56582035D01*
X56234573Y-56545697D01*
X56294906Y-56509087D01*
X56354275Y-56472278D01*
X56412575Y-56435344D01*
X56469702Y-56398357D01*
X56525551Y-56361393D01*
X56580017Y-56324523D01*
X56632995Y-56287822D01*
X56684381Y-56251364D01*
X56734071Y-56215222D01*
X56781959Y-56179469D01*
X56827941Y-56144180D01*
X56860612Y-56118597D01*
X56932658Y-56061173D01*
X56971758Y-56029486D01*
X57012726Y-55995918D01*
X57055423Y-55960548D01*
X57099713Y-55923453D01*
X57145457Y-55884710D01*
X57192517Y-55844396D01*
X57240757Y-55802588D01*
X57290037Y-55759365D01*
X57340221Y-55714803D01*
X57391171Y-55668981D01*
X57442748Y-55621974D01*
X57494816Y-55573861D01*
X57547236Y-55524719D01*
X57599871Y-55474625D01*
X57652582Y-55423657D01*
X57705233Y-55371891D01*
X57757686Y-55319407D01*
X57809802Y-55266280D01*
X57861444Y-55212588D01*
X57912474Y-55158409D01*
X57962754Y-55103820D01*
X58012147Y-55048897D01*
X58060516Y-54993720D01*
X58107721Y-54938365D01*
X58153626Y-54882909D01*
X58198093Y-54827429D01*
X58240984Y-54772004D01*
X58282160Y-54716710D01*
X58321486Y-54661625D01*
X59018799Y-54900983D01*
G37*
G36*
X58867249Y-59287979D02*
G01*
X58908549Y-59320313D01*
X58949724Y-59352852D01*
X58990752Y-59385614D01*
X59031608Y-59418614D01*
X59072271Y-59451870D01*
X59112717Y-59485398D01*
X59152923Y-59519215D01*
X59192866Y-59553338D01*
X59232523Y-59587784D01*
X59271871Y-59622569D01*
X59310886Y-59657711D01*
X59349547Y-59693225D01*
X59387830Y-59729129D01*
X59425711Y-59765440D01*
X59463169Y-59802174D01*
X59500179Y-59839348D01*
X59536718Y-59876979D01*
X59572765Y-59915084D01*
X59608295Y-59953679D01*
X59643286Y-59992781D01*
X59677714Y-60032407D01*
X59711557Y-60072573D01*
X59744792Y-60113298D01*
X59777395Y-60154596D01*
X59809344Y-60196485D01*
X59840615Y-60238982D01*
X59871185Y-60282104D01*
X59901032Y-60325867D01*
X59930132Y-60370288D01*
X59958463Y-60415384D01*
X59986001Y-60461172D01*
X59415694Y-60895924D01*
X59368540Y-60831502D01*
X59317417Y-60762366D01*
X59262505Y-60689240D01*
X59203985Y-60612850D01*
X59173428Y-60573658D01*
X59142037Y-60533920D01*
X59109835Y-60493729D01*
X59076843Y-60453174D01*
X59043084Y-60412347D01*
X59008582Y-60371337D01*
X58973358Y-60330236D01*
X58937436Y-60289133D01*
X58900837Y-60248120D01*
X58863585Y-60207287D01*
X58825702Y-60166725D01*
X58787210Y-60126523D01*
X58748132Y-60086774D01*
X58708491Y-60047566D01*
X58668310Y-60008992D01*
X58627610Y-59971141D01*
X58586415Y-59934103D01*
X58544747Y-59897971D01*
X58502628Y-59862833D01*
X58460082Y-59828781D01*
X58417130Y-59795905D01*
X58373796Y-59764296D01*
X58330102Y-59734044D01*
X58286071Y-59705240D01*
X58825847Y-59255833D01*
X58867249Y-59287979D01*
G37*
G36*
X56714368Y-59590446D02*
G01*
X56730244Y-59613191D01*
X56735129Y-59662498D01*
X56730777Y-59678706D01*
X56703663Y-59721819D01*
X56655139Y-59748135D01*
X56605247Y-59759835D01*
X56555120Y-59766547D01*
X56495140Y-59772067D01*
X56443258Y-59776071D01*
X56416328Y-59803449D01*
X56366107Y-59854447D01*
X56320006Y-59901042D01*
X56277148Y-59943962D01*
X56236654Y-59983935D01*
X56197646Y-60021688D01*
X56159245Y-60057951D01*
X56120573Y-60093450D01*
X56080751Y-60128915D01*
X56038902Y-60165073D01*
X55994147Y-60202652D01*
X55945607Y-60242380D01*
X55892405Y-60284986D01*
X55833661Y-60331197D01*
X55768499Y-60381742D01*
X55696038Y-60437349D01*
X55656796Y-60467278D01*
X55626864Y-60489246D01*
X55570039Y-60530438D01*
X55517078Y-60568149D01*
X55467753Y-60602600D01*
X55421833Y-60634007D01*
X55379091Y-60662590D01*
X55320433Y-60700646D01*
X55267636Y-60733574D01*
X55219926Y-60762111D01*
X55162892Y-60794602D01*
X55111696Y-60822341D01*
X55064508Y-60847076D01*
X54595561Y-60431863D01*
X54631982Y-60409792D01*
X54711380Y-60361767D01*
X54754093Y-60335866D01*
X54798638Y-60308743D01*
X54844883Y-60280424D01*
X54892697Y-60250936D01*
X54941947Y-60220306D01*
X54992502Y-60188563D01*
X55044228Y-60155731D01*
X55096994Y-60121840D01*
X55150668Y-60086915D01*
X55205117Y-60050984D01*
X55260209Y-60014074D01*
X55315813Y-59976211D01*
X55371796Y-59937424D01*
X55428025Y-59897738D01*
X55484369Y-59857182D01*
X55540696Y-59815781D01*
X55596873Y-59773564D01*
X55652769Y-59730557D01*
X55708251Y-59686787D01*
X55763186Y-59642281D01*
X55817443Y-59597067D01*
X55870890Y-59551172D01*
X55923395Y-59504622D01*
X55974824Y-59457444D01*
X56025047Y-59409666D01*
X56073931Y-59361314D01*
X56121344Y-59312417D01*
X56167154Y-59263000D01*
X56211228Y-59213091D01*
X56714368Y-59590446D01*
G37*
G36*
X67699190Y-56171046D02*
G01*
X67843293Y-55476175D01*
X67753715Y-55480196D01*
X67659553Y-55484008D01*
X67561635Y-55487606D01*
X67511525Y-55489323D01*
X67460786Y-55490983D01*
X67409521Y-55492585D01*
X67357834Y-55494130D01*
X67305827Y-55495615D01*
X67253604Y-55497041D01*
X67201269Y-55498406D01*
X67148924Y-55499709D01*
X67096673Y-55500949D01*
X67044619Y-55502126D01*
X66992866Y-55503239D01*
X66941517Y-55504286D01*
X66890674Y-55505267D01*
X66840443Y-55506181D01*
X66790925Y-55507027D01*
X66694443Y-55508511D01*
X66602057Y-55509713D01*
X66514591Y-55510625D01*
X66432873Y-55511240D01*
X66357730Y-55511551D01*
X66322882Y-55511591D01*
X64569218Y-55511591D01*
X64503295Y-55511515D01*
X64429322Y-55511271D01*
X64348208Y-55510834D01*
X64260861Y-55510179D01*
X64168191Y-55509280D01*
X64071106Y-55508113D01*
X64021191Y-55507421D01*
X63970514Y-55506653D01*
X63919187Y-55505805D01*
X63867325Y-55504874D01*
X63815040Y-55503857D01*
X63762447Y-55502752D01*
X63709659Y-55501554D01*
X63656790Y-55500261D01*
X63603952Y-55498870D01*
X63551261Y-55497377D01*
X63498829Y-55495779D01*
X63446769Y-55494074D01*
X63395197Y-55492258D01*
X63344224Y-55490327D01*
X63293966Y-55488280D01*
X63244534Y-55486112D01*
X63148608Y-55481403D01*
X63057355Y-55476175D01*
X62913251Y-56171046D01*
X63002684Y-56167026D01*
X63096853Y-56163213D01*
X63194915Y-56159615D01*
X63245142Y-56157899D01*
X63296026Y-56156239D01*
X63347460Y-56154636D01*
X63399340Y-56153092D01*
X63451560Y-56151606D01*
X63504014Y-56150181D01*
X63556597Y-56148816D01*
X63609203Y-56147513D01*
X63661727Y-56146272D01*
X63714063Y-56145095D01*
X63766105Y-56143983D01*
X63817749Y-56142936D01*
X63868888Y-56141955D01*
X63919417Y-56141041D01*
X63969231Y-56140195D01*
X64018224Y-56139418D01*
X64113323Y-56138073D01*
X64203872Y-56137016D01*
X64289026Y-56136251D01*
X64367939Y-56135787D01*
X64439769Y-56135631D01*
X66193433Y-56135631D01*
X66258053Y-56135787D01*
X66330862Y-56136251D01*
X66410949Y-56137016D01*
X66497401Y-56138073D01*
X66589305Y-56139418D01*
X66685749Y-56141041D01*
X66735389Y-56141955D01*
X66785821Y-56142936D01*
X66836933Y-56143983D01*
X66888609Y-56145095D01*
X66940736Y-56146272D01*
X66993200Y-56147513D01*
X67045887Y-56148816D01*
X67098682Y-56150181D01*
X67151472Y-56151606D01*
X67204142Y-56153092D01*
X67256579Y-56154636D01*
X67308669Y-56156239D01*
X67360297Y-56157899D01*
X67411349Y-56159615D01*
X67461712Y-56161387D01*
X67511271Y-56163213D01*
X67607522Y-56167026D01*
X67699190Y-56171046D01*
G37*
G36*
X66740537Y-58181165D02*
G01*
X66879755Y-57508276D01*
X66803728Y-57515921D01*
X66742907Y-57520380D01*
X66675595Y-57524358D01*
X66603182Y-57527880D01*
X66527054Y-57530970D01*
X66448601Y-57533654D01*
X66369211Y-57535958D01*
X66290272Y-57537905D01*
X66213171Y-57539522D01*
X66139298Y-57540832D01*
X66070040Y-57541862D01*
X66006785Y-57542636D01*
X65950923Y-57543179D01*
X65884024Y-57543615D01*
X65852714Y-57543691D01*
X64154005Y-57543691D01*
X64096028Y-57543341D01*
X64045817Y-57542726D01*
X63987860Y-57541814D01*
X63923442Y-57540612D01*
X63853850Y-57539127D01*
X63780369Y-57537367D01*
X63704287Y-57535339D01*
X63626889Y-57533050D01*
X63549461Y-57530506D01*
X63473290Y-57527716D01*
X63399662Y-57524686D01*
X63329863Y-57521423D01*
X63265180Y-57517935D01*
X63206898Y-57514229D01*
X63156304Y-57510311D01*
X63134291Y-57508276D01*
X62995073Y-58181165D01*
X63070658Y-58173801D01*
X63131436Y-58169468D01*
X63198879Y-58165572D01*
X63271578Y-58162093D01*
X63348123Y-58159013D01*
X63427105Y-58156311D01*
X63507113Y-58153968D01*
X63586738Y-58151963D01*
X63664571Y-58150278D01*
X63739202Y-58148893D01*
X63809222Y-58147787D01*
X63873219Y-58146942D01*
X63929786Y-58146338D01*
X63997619Y-58145839D01*
X64029441Y-58145750D01*
X65728150Y-58145750D01*
X65785839Y-58145954D01*
X65835902Y-58146338D01*
X65893729Y-58146942D01*
X65958018Y-58147787D01*
X66027465Y-58148893D01*
X66100770Y-58150278D01*
X66176629Y-58151963D01*
X66253740Y-58153968D01*
X66330801Y-58156311D01*
X66406510Y-58159013D01*
X66479564Y-58162093D01*
X66548661Y-58165572D01*
X66612499Y-58169468D01*
X66669775Y-58173801D01*
X66719187Y-58178592D01*
X66740537Y-58181165D01*
G37*
G36*
X67408541Y-60497808D02*
G01*
X67558750Y-59776071D01*
X67508394Y-59778640D01*
X67455043Y-59781083D01*
X67398958Y-59783404D01*
X67340401Y-59785604D01*
X67279633Y-59787687D01*
X67216915Y-59789656D01*
X67152509Y-59791514D01*
X67086675Y-59793263D01*
X67019674Y-59794907D01*
X66951769Y-59796448D01*
X66883219Y-59797889D01*
X66814287Y-59799233D01*
X66745233Y-59800484D01*
X66676318Y-59801643D01*
X66607804Y-59802714D01*
X66539952Y-59803701D01*
X66473024Y-59804605D01*
X66407279Y-59805429D01*
X66342980Y-59806177D01*
X66280387Y-59806851D01*
X66219762Y-59807455D01*
X66161366Y-59807991D01*
X66105461Y-59808462D01*
X66052306Y-59808872D01*
X66002164Y-59809222D01*
X65911963Y-59809757D01*
X65836945Y-59810091D01*
X65779201Y-59810246D01*
X65757459Y-59810265D01*
X63291828Y-59810265D01*
X63223623Y-59809947D01*
X63155727Y-59809516D01*
X63068823Y-59808872D01*
X63019069Y-59808462D01*
X62965554Y-59807991D01*
X62908609Y-59807455D01*
X62848563Y-59806851D01*
X62785747Y-59806177D01*
X62720491Y-59805429D01*
X62653126Y-59804605D01*
X62583982Y-59803701D01*
X62513388Y-59802714D01*
X62441676Y-59801643D01*
X62369175Y-59800484D01*
X62296216Y-59799233D01*
X62223129Y-59797889D01*
X62150245Y-59796448D01*
X62077893Y-59794907D01*
X62006404Y-59793263D01*
X61936109Y-59791514D01*
X61867337Y-59789656D01*
X61800418Y-59787687D01*
X61735684Y-59785604D01*
X61673463Y-59783404D01*
X61614088Y-59781083D01*
X61557887Y-59778640D01*
X61505191Y-59776071D01*
X61354982Y-60497808D01*
X61405231Y-60495235D01*
X61458489Y-60492782D01*
X61514492Y-60490445D01*
X61572981Y-60488222D01*
X61633692Y-60486111D01*
X61696364Y-60484110D01*
X61760734Y-60482215D01*
X61826542Y-60480425D01*
X61893526Y-60478737D01*
X61961423Y-60477148D01*
X62029971Y-60475656D01*
X62098909Y-60474259D01*
X62167975Y-60472954D01*
X62236907Y-60471739D01*
X62305443Y-60470611D01*
X62373322Y-60469568D01*
X62440281Y-60468607D01*
X62506059Y-60467725D01*
X62570394Y-60466922D01*
X62633023Y-60466193D01*
X62693686Y-60465536D01*
X62752120Y-60464950D01*
X62808063Y-60464431D01*
X62861254Y-60463977D01*
X62911431Y-60463586D01*
X63001694Y-60462981D01*
X63076758Y-60462597D01*
X63134528Y-60462415D01*
X63156273Y-60462393D01*
X65621905Y-60462393D01*
X65690109Y-60462763D01*
X65758006Y-60463254D01*
X65844910Y-60463977D01*
X65894664Y-60464431D01*
X65948178Y-60464950D01*
X66005124Y-60465536D01*
X66065170Y-60466193D01*
X66127985Y-60466922D01*
X66193241Y-60467725D01*
X66260606Y-60468607D01*
X66329751Y-60469568D01*
X66400344Y-60470611D01*
X66472057Y-60471739D01*
X66544557Y-60472954D01*
X66617516Y-60474259D01*
X66690603Y-60475656D01*
X66763487Y-60477148D01*
X66835839Y-60478737D01*
X66907328Y-60480425D01*
X66977624Y-60482215D01*
X67046396Y-60484110D01*
X67113314Y-60486111D01*
X67178049Y-60488222D01*
X67240269Y-60490445D01*
X67299645Y-60492782D01*
X67355845Y-60495235D01*
X67408541Y-60497808D01*
G37*
G36*
X75478325Y-55380921D02*
G01*
X75467236Y-55394261D01*
X75431399Y-55437853D01*
X75391616Y-55487087D01*
X75347781Y-55542334D01*
X75316251Y-55582686D01*
X75282840Y-55625983D01*
X75247515Y-55672333D01*
X75210244Y-55721846D01*
X75170994Y-55774631D01*
X75129733Y-55830797D01*
X75086429Y-55890453D01*
X75041051Y-55953709D01*
X74993565Y-56020672D01*
X74943939Y-56091454D01*
X74892142Y-56166161D01*
X74845042Y-56235973D01*
X74800537Y-56301930D01*
X74758531Y-56364172D01*
X74718927Y-56422838D01*
X74681631Y-56478067D01*
X74646545Y-56529997D01*
X74613573Y-56578768D01*
X74582621Y-56624517D01*
X74526390Y-56707510D01*
X74477084Y-56780086D01*
X74433935Y-56843357D01*
X74396176Y-56898432D01*
X74363040Y-56946423D01*
X74333758Y-56988442D01*
X74295386Y-57042700D01*
X74261370Y-57089767D01*
X74229121Y-57133393D01*
X74196050Y-57177327D01*
X74248104Y-57248038D01*
X74298244Y-57316687D01*
X74346455Y-57383404D01*
X74392727Y-57448315D01*
X74437048Y-57511549D01*
X74479404Y-57573234D01*
X74519785Y-57633498D01*
X74558178Y-57692469D01*
X74594571Y-57750276D01*
X74628952Y-57807047D01*
X74661308Y-57862909D01*
X74691629Y-57917991D01*
X74719901Y-57972421D01*
X74746113Y-58026327D01*
X74770253Y-58079837D01*
X74792308Y-58133080D01*
X74812266Y-58186183D01*
X74830116Y-58239274D01*
X74845845Y-58292483D01*
X74859441Y-58345936D01*
X74870892Y-58399762D01*
X74880187Y-58454089D01*
X74887312Y-58509046D01*
X74892256Y-58564760D01*
X74895007Y-58621359D01*
X74895553Y-58678972D01*
X74893882Y-58737727D01*
X74889981Y-58797752D01*
X74883839Y-58859174D01*
X74875443Y-58922123D01*
X74864781Y-58986726D01*
X74851842Y-59053112D01*
X74830461Y-59146770D01*
X74806200Y-59236362D01*
X74779121Y-59321949D01*
X74749286Y-59403593D01*
X74716756Y-59481356D01*
X74681592Y-59555300D01*
X74643857Y-59625487D01*
X74603611Y-59691979D01*
X74560916Y-59754837D01*
X74515833Y-59814124D01*
X74468425Y-59869902D01*
X74418752Y-59922232D01*
X74366876Y-59971177D01*
X74312858Y-60016799D01*
X74256761Y-60059158D01*
X74198645Y-60098319D01*
X74138572Y-60134341D01*
X74076603Y-60167288D01*
X74012800Y-60197221D01*
X73947225Y-60224201D01*
X73879939Y-60248292D01*
X73811003Y-60269555D01*
X73740479Y-60288052D01*
X73668428Y-60303845D01*
X73594912Y-60316996D01*
X73519993Y-60327566D01*
X73443731Y-60335618D01*
X73366189Y-60341214D01*
X73287428Y-60344415D01*
X73207509Y-60345284D01*
X73126494Y-60343882D01*
X73044445Y-60340272D01*
X72936978Y-59602658D01*
X72983952Y-59611173D01*
X73035018Y-59619946D01*
X73090035Y-59628547D01*
X73148859Y-59636547D01*
X73211346Y-59643516D01*
X73260529Y-59647809D01*
X73311632Y-59651100D01*
X73364595Y-59653207D01*
X73419357Y-59653949D01*
X73470149Y-59653122D01*
X73564140Y-59646680D01*
X73648489Y-59634249D01*
X73723769Y-59616301D01*
X73790554Y-59593309D01*
X73849419Y-59565744D01*
X73900938Y-59534079D01*
X73945685Y-59498786D01*
X73984234Y-59460337D01*
X74017160Y-59419205D01*
X74045037Y-59375862D01*
X74068439Y-59330780D01*
X74087940Y-59284432D01*
X74104115Y-59237290D01*
X74117538Y-59189825D01*
X74133768Y-59119057D01*
X74147010Y-59048403D01*
X74157027Y-58979505D01*
X74163907Y-58912297D01*
X74167740Y-58846710D01*
X74168613Y-58782677D01*
X74166614Y-58720129D01*
X74161833Y-58659000D01*
X74154357Y-58599221D01*
X74144274Y-58540725D01*
X74131673Y-58483443D01*
X74116643Y-58427309D01*
X74099271Y-58372254D01*
X74079646Y-58318211D01*
X74057856Y-58265111D01*
X74033990Y-58212888D01*
X74008135Y-58161473D01*
X73980381Y-58110798D01*
X73950816Y-58060797D01*
X73919527Y-58011400D01*
X73886603Y-57962541D01*
X73852133Y-57914152D01*
X73816205Y-57866164D01*
X73778907Y-57818510D01*
X73740327Y-57771123D01*
X73700554Y-57723934D01*
X73659676Y-57676876D01*
X73617782Y-57629882D01*
X73574960Y-57582882D01*
X73531297Y-57535810D01*
X73486884Y-57488598D01*
X73441806Y-57441178D01*
X73396154Y-57393482D01*
X74518450Y-55653251D01*
X73546364Y-55653251D01*
X72835617Y-59075094D01*
X72822430Y-59139536D01*
X72804822Y-59228962D01*
X72794562Y-59281996D01*
X72783440Y-59340019D01*
X72771535Y-59402612D01*
X72758929Y-59469355D01*
X72745702Y-59539830D01*
X72731935Y-59613618D01*
X72717708Y-59690299D01*
X72703103Y-59769454D01*
X72688201Y-59850665D01*
X72673081Y-59933513D01*
X72657825Y-60017577D01*
X72642513Y-60102440D01*
X72627226Y-60187682D01*
X72612045Y-60272885D01*
X72597050Y-60357628D01*
X72582322Y-60441494D01*
X72567943Y-60524063D01*
X72553992Y-60604916D01*
X72540551Y-60683633D01*
X72527699Y-60759797D01*
X72515519Y-60832987D01*
X72504090Y-60902786D01*
X72493493Y-60968773D01*
X72483810Y-61030530D01*
X72475120Y-61087637D01*
X72467504Y-61139676D01*
X72455819Y-61226873D01*
X71709658Y-61226873D01*
X71725862Y-61162532D01*
X71746556Y-61078565D01*
X71758381Y-61030110D01*
X71771079Y-60977814D01*
X71784569Y-60922034D01*
X71798768Y-60863123D01*
X71813593Y-60801438D01*
X71828961Y-60737334D01*
X71844791Y-60671165D01*
X71860997Y-60603288D01*
X71877500Y-60534058D01*
X71894214Y-60463830D01*
X71911058Y-60392959D01*
X71927950Y-60321801D01*
X71944805Y-60250711D01*
X71961542Y-60180044D01*
X71978078Y-60110155D01*
X71994329Y-60041401D01*
X72010214Y-59974136D01*
X72025650Y-59908715D01*
X72040553Y-59845495D01*
X72054841Y-59784829D01*
X72068432Y-59727074D01*
X72081242Y-59672585D01*
X72104191Y-59574826D01*
X72123025Y-59494393D01*
X72137083Y-59434131D01*
X72145548Y-59397237D01*
X72158091Y-59345058D01*
X72173297Y-59282920D01*
X72185596Y-59232981D01*
X72197997Y-59182681D01*
X72213659Y-59118932D01*
X72227023Y-59063856D01*
X72239665Y-59009148D01*
X72631674Y-57121151D01*
X72635359Y-57100558D01*
X72645413Y-57044560D01*
X72661019Y-56957712D01*
X72670650Y-56904141D01*
X72681362Y-56844565D01*
X72693056Y-56779552D01*
X72705627Y-56709672D01*
X72718975Y-56635494D01*
X72732997Y-56557587D01*
X72747592Y-56476519D01*
X72762657Y-56392861D01*
X72778090Y-56307181D01*
X72793790Y-56220047D01*
X72809655Y-56132031D01*
X72825583Y-56043699D01*
X72841471Y-55955622D01*
X72857217Y-55868369D01*
X72872721Y-55782508D01*
X72887879Y-55698609D01*
X72902590Y-55617241D01*
X72916752Y-55538972D01*
X72930262Y-55464373D01*
X72943020Y-55394012D01*
X72954922Y-55328458D01*
X72965867Y-55268280D01*
X72984479Y-55166330D01*
X72998039Y-55092714D01*
X73027473Y-55093030D01*
X73088080Y-55094557D01*
X73137545Y-55096158D01*
X73192732Y-55098130D01*
X73252329Y-55100389D01*
X73315029Y-55102854D01*
X73379521Y-55105443D01*
X73444496Y-55108073D01*
X73508645Y-55110662D01*
X73570658Y-55113127D01*
X73629225Y-55115386D01*
X73683037Y-55117358D01*
X73751976Y-55119595D01*
X73815031Y-55120802D01*
X74629581Y-55120802D01*
X74673635Y-55119566D01*
X74724415Y-55117204D01*
X74786952Y-55113840D01*
X74858143Y-55109679D01*
X74908879Y-55106564D01*
X74961162Y-55103246D01*
X75014073Y-55099787D01*
X75066692Y-55096248D01*
X75118101Y-55092688D01*
X75190931Y-55087446D01*
X75255864Y-55082501D01*
X75309797Y-55078060D01*
X75478325Y-55380921D01*
G37*
G36*
X71627836Y-54865568D02*
G01*
X71665496Y-54869742D01*
X71718645Y-54877551D01*
X71766797Y-54890120D01*
X71807767Y-54920746D01*
X71812240Y-54973035D01*
X71803009Y-54998423D01*
X71770205Y-55036137D01*
X71727298Y-55063440D01*
X71682661Y-55083978D01*
X71631205Y-55103578D01*
X71574103Y-55123244D01*
X71565393Y-55160287D01*
X71553078Y-55213394D01*
X71541512Y-55264161D01*
X71530525Y-55313270D01*
X71519948Y-55361402D01*
X71509614Y-55409241D01*
X71499351Y-55457468D01*
X71488992Y-55506766D01*
X71478367Y-55557817D01*
X71467308Y-55611303D01*
X71455645Y-55667906D01*
X71660809Y-55667906D01*
X71675765Y-55667825D01*
X71736510Y-55666685D01*
X71788380Y-55665266D01*
X71847617Y-55663403D01*
X71912735Y-55661168D01*
X71982251Y-55658632D01*
X72054679Y-55655868D01*
X72128534Y-55652946D01*
X72202332Y-55649938D01*
X72274588Y-55646916D01*
X72343818Y-55643952D01*
X72408536Y-55641116D01*
X72467257Y-55638480D01*
X72540848Y-55635059D01*
X72592595Y-55632491D01*
X72588211Y-55649965D01*
X72572190Y-55713229D01*
X72559470Y-55763174D01*
X72545445Y-55818154D01*
X72530397Y-55877154D01*
X72514607Y-55939163D01*
X72498355Y-56003169D01*
X72481923Y-56068159D01*
X72465591Y-56133120D01*
X72449639Y-56197040D01*
X72434350Y-56258906D01*
X72420004Y-56317706D01*
X72406881Y-56372428D01*
X72390105Y-56444648D01*
X72377662Y-56501995D01*
X72157843Y-57557124D01*
X72148489Y-57602692D01*
X72137963Y-57655308D01*
X72126467Y-57713863D01*
X72114204Y-57777248D01*
X72101375Y-57844354D01*
X72088184Y-57914072D01*
X72074831Y-57985292D01*
X72061520Y-58056906D01*
X72048452Y-58127805D01*
X72035829Y-58196878D01*
X72023854Y-58263018D01*
X72012729Y-58325116D01*
X72002655Y-58382061D01*
X71989959Y-58455392D01*
X71980767Y-58510893D01*
X71913464Y-58508476D01*
X71853377Y-58506524D01*
X71783288Y-58504364D01*
X71705055Y-58502048D01*
X71620539Y-58499630D01*
X71531602Y-58497163D01*
X71440103Y-58494702D01*
X71347902Y-58492300D01*
X71256861Y-58490011D01*
X71168839Y-58487888D01*
X71085698Y-58485985D01*
X71009297Y-58484356D01*
X70941497Y-58483054D01*
X70884158Y-58482133D01*
X70821835Y-58481584D01*
X69767927Y-58481584D01*
X69456517Y-59975129D01*
X69530422Y-59957449D01*
X69600866Y-59940569D01*
X69667971Y-59924457D01*
X69731861Y-59909083D01*
X69792658Y-59894415D01*
X69850487Y-59880423D01*
X69905470Y-59867076D01*
X69957730Y-59854343D01*
X70054577Y-59830595D01*
X70142012Y-59808934D01*
X70221022Y-59789111D01*
X70292591Y-59770881D01*
X70357706Y-59753995D01*
X70417353Y-59738208D01*
X70472517Y-59723273D01*
X70524183Y-59708942D01*
X70573338Y-59694969D01*
X70620967Y-59681107D01*
X70668055Y-59667109D01*
X70715589Y-59652728D01*
X70693345Y-59604801D01*
X70670669Y-59558167D01*
X70647704Y-59512918D01*
X70613021Y-59447841D01*
X70578482Y-59386391D01*
X70544562Y-59328878D01*
X70511739Y-59275610D01*
X70480490Y-59226894D01*
X70451292Y-59183038D01*
X70416375Y-59132655D01*
X70387083Y-59092191D01*
X71017229Y-58762463D01*
X71052988Y-58808417D01*
X71087903Y-58855994D01*
X71121967Y-58905093D01*
X71155174Y-58955613D01*
X71187517Y-59007452D01*
X71218989Y-59060509D01*
X71249584Y-59114682D01*
X71279294Y-59169871D01*
X71308114Y-59225975D01*
X71336036Y-59282891D01*
X71363054Y-59340518D01*
X71389160Y-59398756D01*
X71414349Y-59457503D01*
X71438614Y-59516657D01*
X71461948Y-59576118D01*
X71484344Y-59635784D01*
X71505795Y-59695553D01*
X71526295Y-59755325D01*
X71545837Y-59814998D01*
X71564414Y-59874471D01*
X71582020Y-59933643D01*
X71598648Y-59992412D01*
X71614291Y-60050677D01*
X71628943Y-60108336D01*
X71642596Y-60165289D01*
X71655245Y-60221434D01*
X71666882Y-60276670D01*
X71677501Y-60330895D01*
X71687094Y-60384009D01*
X71695656Y-60435909D01*
X71703179Y-60486496D01*
X71709658Y-60535666D01*
X71025778Y-60891039D01*
X71017024Y-60827882D01*
X71009537Y-60774988D01*
X71000951Y-60717149D01*
X70990988Y-60654178D01*
X70979371Y-60585888D01*
X70970571Y-60537314D01*
X70960829Y-60486238D01*
X70950064Y-60432603D01*
X70938194Y-60376355D01*
X70925135Y-60317437D01*
X70910807Y-60255796D01*
X70895126Y-60191374D01*
X70878011Y-60124117D01*
X70820400Y-60146575D01*
X70759958Y-60169490D01*
X70696977Y-60192802D01*
X70631745Y-60216452D01*
X70564553Y-60240381D01*
X70495690Y-60264530D01*
X70425445Y-60288840D01*
X70354110Y-60313252D01*
X70281973Y-60337707D01*
X70209324Y-60362146D01*
X70136454Y-60386510D01*
X70063652Y-60410740D01*
X69991207Y-60434776D01*
X69919410Y-60458560D01*
X69848550Y-60482033D01*
X69778918Y-60505136D01*
X69714098Y-60526798D01*
X69654256Y-60546719D01*
X69597989Y-60565301D01*
X69543891Y-60582950D01*
X69490560Y-60600069D01*
X69436589Y-60617063D01*
X69380576Y-60634336D01*
X69321115Y-60652292D01*
X69256803Y-60671336D01*
X69186235Y-60691872D01*
X69108008Y-60714304D01*
X69020716Y-60739036D01*
X68973232Y-60752392D01*
X68922955Y-60766474D01*
X68869710Y-60781333D01*
X68813321Y-60797020D01*
X68753614Y-60813586D01*
X68690411Y-60831080D01*
X68623538Y-60849554D01*
X68552819Y-60869057D01*
X68523151Y-60905835D01*
X68484626Y-60953322D01*
X68443043Y-61003581D01*
X68410726Y-61040703D01*
X68370185Y-61079908D01*
X68319567Y-61097424D01*
X68279794Y-61087908D01*
X68248674Y-61046792D01*
X68238166Y-60997428D01*
X68234082Y-60947215D01*
X68212100Y-60263335D01*
X68245831Y-60257133D01*
X68308383Y-60245622D01*
X68367802Y-60234506D01*
X68428179Y-60222824D01*
X68476554Y-60213114D01*
X68529496Y-60202143D01*
X68588734Y-60189506D01*
X68655994Y-60174797D01*
X68706143Y-60163642D01*
X68761137Y-60151266D01*
X68821486Y-60137550D01*
X69277579Y-57943028D01*
X69879057Y-57943028D01*
X71467857Y-57943028D01*
X71585094Y-57380048D01*
X69996294Y-57380048D01*
X69879057Y-57943028D01*
X69277579Y-57943028D01*
X69391793Y-57393482D01*
X69397542Y-57365149D01*
X69411744Y-57292760D01*
X69429118Y-57201823D01*
X69438832Y-57150305D01*
X69449144Y-57095237D01*
X69459990Y-57036983D01*
X69471305Y-56975903D01*
X69483023Y-56912362D01*
X69495081Y-56846721D01*
X69496261Y-56840272D01*
X70108646Y-56840272D01*
X71697445Y-56840272D01*
X71831779Y-56193028D01*
X70242979Y-56193028D01*
X70108646Y-56840272D01*
X69496261Y-56840272D01*
X69507412Y-56779342D01*
X69519953Y-56710589D01*
X69532639Y-56640823D01*
X69545404Y-56570408D01*
X69558183Y-56499706D01*
X69570913Y-56429078D01*
X69583528Y-56358888D01*
X69595963Y-56289498D01*
X69608153Y-56221271D01*
X69620034Y-56154569D01*
X69631540Y-56089754D01*
X69642608Y-56027189D01*
X69653171Y-55967237D01*
X69663165Y-55910260D01*
X69672526Y-55856620D01*
X69689087Y-55760802D01*
X69702335Y-55682683D01*
X69711751Y-55625163D01*
X69735033Y-55626851D01*
X69793457Y-55630413D01*
X69845424Y-55633339D01*
X69905684Y-55636599D01*
X69972419Y-55640097D01*
X70043813Y-55643743D01*
X70118048Y-55647442D01*
X70193306Y-55651102D01*
X70267769Y-55654629D01*
X70339621Y-55657931D01*
X70407044Y-55660915D01*
X70468220Y-55663487D01*
X70544295Y-55666370D01*
X70606901Y-55667906D01*
X70853586Y-55667906D01*
X70864255Y-55616199D01*
X70875163Y-55563316D01*
X70886264Y-55509423D01*
X70897512Y-55454690D01*
X70908860Y-55399284D01*
X70920262Y-55343373D01*
X70931671Y-55287126D01*
X70943040Y-55230711D01*
X70954324Y-55174296D01*
X70965475Y-55118050D01*
X70976448Y-55062139D01*
X70987195Y-55006733D01*
X70997670Y-54952000D01*
X71007827Y-54898107D01*
X71017618Y-54845223D01*
X71026999Y-54793517D01*
X71627836Y-54865568D01*
G37*
G36*
X131159851Y-55262794D02*
G01*
X131144905Y-55310194D01*
X131127622Y-55369348D01*
X131113583Y-55419523D01*
X131098977Y-55473196D01*
X131084123Y-55529032D01*
X131069342Y-55585698D01*
X131054953Y-55641858D01*
X131041276Y-55696179D01*
X131028632Y-55747327D01*
X131021520Y-55774675D01*
X131007778Y-55828202D01*
X130991137Y-55893644D01*
X130978869Y-55942172D01*
X130965971Y-55993421D01*
X130952703Y-56046357D01*
X130939330Y-56099952D01*
X130926115Y-56153175D01*
X130913320Y-56204996D01*
X130901208Y-56254384D01*
X130884897Y-56321649D01*
X130871603Y-56377645D01*
X130860104Y-56428764D01*
X130526713Y-58028555D01*
X130520595Y-58058666D01*
X130507449Y-58125953D01*
X130493249Y-58201550D01*
X130478192Y-58284127D01*
X130462473Y-58372357D01*
X130446285Y-58464910D01*
X130429825Y-58560456D01*
X130421553Y-58608937D01*
X130413287Y-58657667D01*
X130405049Y-58706482D01*
X130396866Y-58755214D01*
X130388760Y-58803697D01*
X130372880Y-58899254D01*
X130357605Y-58991824D01*
X130343130Y-59080078D01*
X130329649Y-59162685D01*
X130317358Y-59238318D01*
X130306451Y-59305647D01*
X130297124Y-59363342D01*
X130233157Y-59361970D01*
X130169038Y-59360609D01*
X130104786Y-59359269D01*
X130040421Y-59357961D01*
X129975964Y-59356696D01*
X129911433Y-59355485D01*
X129846848Y-59354339D01*
X129782230Y-59353267D01*
X129717597Y-59352281D01*
X129652970Y-59351392D01*
X129588367Y-59350611D01*
X129523810Y-59349947D01*
X129459316Y-59349412D01*
X129394907Y-59349017D01*
X129330602Y-59348772D01*
X129266420Y-59348688D01*
X129018513Y-60541814D01*
X129013267Y-60569128D01*
X129006253Y-60618814D01*
X129004023Y-60681771D01*
X129015400Y-60746311D01*
X129041604Y-60791745D01*
X129080917Y-60821422D01*
X129131621Y-60838692D01*
X129191999Y-60846903D01*
X129242599Y-60849131D01*
X129296950Y-60849560D01*
X130118827Y-60849560D01*
X130191067Y-60845924D01*
X130261787Y-60832969D01*
X130308325Y-60817637D01*
X130354541Y-60795886D01*
X130400577Y-60766806D01*
X130446573Y-60729486D01*
X130492671Y-60683017D01*
X130539013Y-60626486D01*
X130585739Y-60558985D01*
X130632991Y-60479601D01*
X130656858Y-60435170D01*
X130680910Y-60387426D01*
X130705164Y-60336256D01*
X130729638Y-60281547D01*
X130754349Y-60223185D01*
X130779316Y-60161055D01*
X130804555Y-60095044D01*
X130830085Y-60025039D01*
X130855922Y-59950925D01*
X130882086Y-59872588D01*
X131364466Y-60291465D01*
X131328109Y-60390431D01*
X131291181Y-60483213D01*
X131253707Y-60570012D01*
X131215709Y-60651027D01*
X131177211Y-60726456D01*
X131138237Y-60796500D01*
X131098809Y-60861358D01*
X131058952Y-60921230D01*
X131018689Y-60976314D01*
X130978043Y-61026811D01*
X130937039Y-61072920D01*
X130895698Y-61114840D01*
X130854046Y-61152771D01*
X130812104Y-61186912D01*
X130769898Y-61217463D01*
X130727450Y-61244623D01*
X130641922Y-61289568D01*
X130555709Y-61323343D01*
X130468999Y-61347545D01*
X130381980Y-61363767D01*
X130294839Y-61373607D01*
X130207763Y-61378660D01*
X130120942Y-61380522D01*
X130034563Y-61380788D01*
X129041716Y-61380788D01*
X129010915Y-61380769D01*
X128953274Y-61380591D01*
X128900616Y-61380173D01*
X128830179Y-61378956D01*
X128768919Y-61376838D01*
X128715617Y-61373600D01*
X128654817Y-61367167D01*
X128603105Y-61357844D01*
X128546841Y-61341339D01*
X128494612Y-61318506D01*
X128473782Y-61307627D01*
X128420607Y-61270862D01*
X128380417Y-61227987D01*
X128351938Y-61179106D01*
X128333896Y-61124319D01*
X128325016Y-61063730D01*
X128324026Y-60997442D01*
X128329650Y-60925557D01*
X128336446Y-60874576D01*
X128345238Y-60821182D01*
X128355649Y-60765408D01*
X128367302Y-60707283D01*
X128379818Y-60646838D01*
X128650928Y-59342581D01*
X128150230Y-59342581D01*
X128079997Y-59512615D01*
X128005923Y-59673482D01*
X127928237Y-59825459D01*
X127847171Y-59968826D01*
X127762953Y-60103860D01*
X127675814Y-60230840D01*
X127585984Y-60350043D01*
X127493694Y-60461748D01*
X127399172Y-60566233D01*
X127302650Y-60663777D01*
X127204358Y-60754657D01*
X127104525Y-60839151D01*
X127003381Y-60917538D01*
X126901157Y-60990096D01*
X126798084Y-61057103D01*
X126694390Y-61118838D01*
X126590306Y-61175577D01*
X126486062Y-61227601D01*
X126381889Y-61275186D01*
X126278015Y-61318611D01*
X126174673Y-61358154D01*
X126072090Y-61394094D01*
X125970498Y-61426708D01*
X125870127Y-61456274D01*
X125771207Y-61483072D01*
X125673968Y-61507378D01*
X125578639Y-61529472D01*
X125485452Y-61549630D01*
X125394636Y-61568133D01*
X125306421Y-61585257D01*
X125221038Y-61601281D01*
X125138715Y-61616482D01*
X124894473Y-60877648D01*
X124929030Y-60878910D01*
X125005960Y-60881108D01*
X125092592Y-60882115D01*
X125188069Y-60881021D01*
X125238855Y-60879403D01*
X125291531Y-60876919D01*
X125345988Y-60873456D01*
X125402120Y-60868899D01*
X125459818Y-60863136D01*
X125518977Y-60856053D01*
X125579488Y-60847536D01*
X125641244Y-60837472D01*
X125704138Y-60825746D01*
X125768062Y-60812246D01*
X125832909Y-60796858D01*
X125898572Y-60779468D01*
X125964943Y-60759963D01*
X126031916Y-60738229D01*
X126099382Y-60714152D01*
X126167234Y-60687619D01*
X126235366Y-60658516D01*
X126303669Y-60626730D01*
X126372037Y-60592147D01*
X126440362Y-60554654D01*
X126508536Y-60514136D01*
X126576453Y-60470481D01*
X126644005Y-60423574D01*
X126711085Y-60373303D01*
X126777585Y-60319553D01*
X126794292Y-60305420D01*
X126848191Y-60258101D01*
X126886974Y-60222212D01*
X126927756Y-60182624D01*
X126970299Y-60139144D01*
X127014362Y-60091577D01*
X127059706Y-60039731D01*
X127106092Y-59983414D01*
X127153278Y-59922430D01*
X127201027Y-59856589D01*
X127249097Y-59785695D01*
X127297250Y-59709556D01*
X127345245Y-59627980D01*
X127369109Y-59585091D01*
X127392843Y-59540771D01*
X127416418Y-59494995D01*
X127439805Y-59447738D01*
X127462971Y-59398977D01*
X127485889Y-59348688D01*
X127428628Y-59351748D01*
X127368003Y-59354382D01*
X127296364Y-59357219D01*
X127244325Y-59359185D01*
X127190150Y-59361183D01*
X127134943Y-59363189D01*
X127079807Y-59365182D01*
X127025847Y-59367137D01*
X126974166Y-59369031D01*
X126903331Y-59371707D01*
X126843833Y-59374116D01*
X126788576Y-59376775D01*
X126746889Y-59378841D01*
X126694887Y-59381648D01*
X126634810Y-59385341D01*
X126579139Y-59389369D01*
X126526727Y-59393872D01*
X126476428Y-59398990D01*
X126427096Y-59404863D01*
X126440798Y-59365567D01*
X126458162Y-59311945D01*
X126474988Y-59255504D01*
X126491822Y-59194698D01*
X126504779Y-59145299D01*
X126518275Y-59091924D01*
X126532541Y-59033920D01*
X126547804Y-58970635D01*
X126564295Y-58901417D01*
X126576085Y-58851653D01*
X126587504Y-58803421D01*
X126597458Y-58761284D01*
X127266071Y-58761284D01*
X129730481Y-58761284D01*
X129852602Y-58176322D01*
X127388192Y-58176322D01*
X127266071Y-58761284D01*
X126597458Y-58761284D01*
X126598863Y-58755337D01*
X126610158Y-58707379D01*
X126621384Y-58659522D01*
X126632539Y-58611744D01*
X126643619Y-58564022D01*
X126654620Y-58516331D01*
X126665539Y-58468650D01*
X126676371Y-58420954D01*
X126687115Y-58373221D01*
X126697765Y-58325427D01*
X126708319Y-58277549D01*
X126718773Y-58229564D01*
X126729123Y-58181448D01*
X126739365Y-58133178D01*
X126749497Y-58084731D01*
X126844051Y-57629218D01*
X127501765Y-57629218D01*
X129966175Y-57629218D01*
X130096845Y-57003956D01*
X127632435Y-57003956D01*
X127501765Y-57629218D01*
X126844051Y-57629218D01*
X127084110Y-56472728D01*
X127086996Y-56458073D01*
X127746008Y-56458073D01*
X130210418Y-56458073D01*
X130332540Y-55865785D01*
X127868129Y-55865785D01*
X127746008Y-56458073D01*
X127086996Y-56458073D01*
X127092817Y-56428519D01*
X127103621Y-56370928D01*
X127116213Y-56301918D01*
X127130287Y-56223448D01*
X127145534Y-56137478D01*
X127161647Y-56045971D01*
X127178319Y-55950886D01*
X127186767Y-55902614D01*
X127195240Y-55854183D01*
X127203699Y-55805838D01*
X127220419Y-55710386D01*
X127236621Y-55618218D01*
X127251996Y-55531296D01*
X127266237Y-55451579D01*
X127279036Y-55381028D01*
X127290086Y-55321604D01*
X127302707Y-55257620D01*
X127391001Y-55261343D01*
X127475313Y-55264735D01*
X127556126Y-55267808D01*
X127633923Y-55270576D01*
X127709187Y-55273051D01*
X127782401Y-55275244D01*
X127854048Y-55277169D01*
X127924610Y-55278838D01*
X127994572Y-55280265D01*
X128064416Y-55281460D01*
X128134624Y-55282437D01*
X128205681Y-55283208D01*
X128278068Y-55283786D01*
X128352269Y-55284184D01*
X128428767Y-55284413D01*
X128508046Y-55284487D01*
X129988157Y-55284487D01*
X130047170Y-55284099D01*
X130113131Y-55282991D01*
X130184974Y-55281242D01*
X130261633Y-55278934D01*
X130342041Y-55276146D01*
X130425132Y-55272959D01*
X130509841Y-55269454D01*
X130595101Y-55265710D01*
X130679845Y-55261810D01*
X130763008Y-55257832D01*
X130843524Y-55253858D01*
X130920325Y-55249968D01*
X130992347Y-55246243D01*
X131058523Y-55242763D01*
X131117786Y-55239608D01*
X131169071Y-55236859D01*
X131159851Y-55262794D01*
G37*
G36*
X138700300Y-59004305D02*
G01*
X138648857Y-58999332D01*
X138580015Y-58986674D01*
X138495610Y-58965601D01*
X138448144Y-58951681D01*
X138397477Y-58935383D01*
X138343836Y-58916617D01*
X138287451Y-58895290D01*
X138228552Y-58871313D01*
X138167368Y-58844593D01*
X138104129Y-58815040D01*
X138039064Y-58782562D01*
X137972402Y-58747068D01*
X137904373Y-58708466D01*
X137835207Y-58666666D01*
X137765132Y-58621576D01*
X137694378Y-58573105D01*
X137623174Y-58521162D01*
X137551751Y-58465656D01*
X137480337Y-58406495D01*
X137409162Y-58343587D01*
X137338455Y-58276843D01*
X137268446Y-58206170D01*
X137199363Y-58131478D01*
X137131438Y-58052675D01*
X137064898Y-57969670D01*
X136999974Y-57882371D01*
X136936894Y-57790688D01*
X136875889Y-57694529D01*
X136817187Y-57593803D01*
X136890622Y-57594487D01*
X136962378Y-57595168D01*
X137032547Y-57595851D01*
X137101217Y-57596541D01*
X137168479Y-57597241D01*
X137234421Y-57597957D01*
X137299134Y-57598692D01*
X137362707Y-57599451D01*
X137425231Y-57600239D01*
X137486793Y-57601060D01*
X137547485Y-57601918D01*
X137607396Y-57602819D01*
X137666616Y-57603766D01*
X137725234Y-57604764D01*
X137783339Y-57605817D01*
X137841023Y-57606931D01*
X137898373Y-57608109D01*
X137955481Y-57609355D01*
X138012435Y-57610675D01*
X138069325Y-57612073D01*
X138126242Y-57613553D01*
X138183274Y-57615120D01*
X138240511Y-57616778D01*
X138298043Y-57618532D01*
X138355960Y-57620386D01*
X138414351Y-57622345D01*
X138473306Y-57624413D01*
X138532915Y-57626594D01*
X138593266Y-57628894D01*
X138654451Y-57631316D01*
X138716559Y-57633865D01*
X138779678Y-57636545D01*
X138901800Y-57046699D01*
X138840360Y-57048734D01*
X138777493Y-57050719D01*
X138713336Y-57052652D01*
X138648028Y-57054532D01*
X138581709Y-57056358D01*
X138514517Y-57058130D01*
X138446592Y-57059846D01*
X138378071Y-57061506D01*
X138309094Y-57063109D01*
X138239800Y-57064653D01*
X138170327Y-57066139D01*
X138100815Y-57067564D01*
X138031402Y-57068929D01*
X137962227Y-57070232D01*
X137893429Y-57071473D01*
X137825147Y-57072650D01*
X137757520Y-57073762D01*
X137690686Y-57074809D01*
X137624785Y-57075790D01*
X137559955Y-57076704D01*
X137496335Y-57077550D01*
X137434065Y-57078327D01*
X137373282Y-57079035D01*
X137314126Y-57079672D01*
X137256736Y-57080237D01*
X137201250Y-57080729D01*
X137147807Y-57081149D01*
X137096547Y-57081494D01*
X137047608Y-57081764D01*
X136957248Y-57082075D01*
X136916106Y-57082114D01*
X135832889Y-57082114D01*
X135864409Y-57039294D01*
X135896850Y-56996494D01*
X135933327Y-56948325D01*
X135965791Y-56905259D01*
X135995310Y-56865959D01*
X136049856Y-56851054D01*
X136108512Y-56834432D01*
X136162213Y-56817230D01*
X136208237Y-56795714D01*
X136237119Y-56754037D01*
X136239553Y-56743838D01*
X136237515Y-56694600D01*
X136203676Y-56657368D01*
X136171165Y-56642477D01*
X135807243Y-56483719D01*
X137702568Y-56362819D01*
X137727068Y-56409723D01*
X137756948Y-56468120D01*
X137783862Y-56521135D01*
X137813569Y-56579939D01*
X137845109Y-56642629D01*
X137877522Y-56707303D01*
X137909850Y-56772059D01*
X137941130Y-56834996D01*
X137970404Y-56894212D01*
X137988332Y-56930683D01*
X138523224Y-56433649D01*
X138501815Y-56377697D01*
X138471081Y-56313238D01*
X138431800Y-56241498D01*
X138384749Y-56163704D01*
X138330708Y-56081079D01*
X138301309Y-56038338D01*
X138270454Y-55994849D01*
X138238240Y-55950766D01*
X138204765Y-55906241D01*
X138170126Y-55861427D01*
X138134419Y-55816478D01*
X138097744Y-55771547D01*
X138060196Y-55726787D01*
X138021873Y-55682351D01*
X137982872Y-55638393D01*
X137943291Y-55595065D01*
X137903226Y-55552521D01*
X137862776Y-55510914D01*
X137822037Y-55470397D01*
X137781106Y-55431124D01*
X137740081Y-55393247D01*
X137699060Y-55356919D01*
X137658139Y-55322294D01*
X137617415Y-55289525D01*
X137576987Y-55258766D01*
X137536950Y-55230168D01*
X137497404Y-55203886D01*
X137001591Y-55652072D01*
X137048280Y-55676612D01*
X137096898Y-55704495D01*
X137138477Y-55731576D01*
X137183512Y-55764853D01*
X137232991Y-55806129D01*
X137273611Y-55843422D01*
X137317701Y-55886989D01*
X137365680Y-55937592D01*
X137382609Y-55956154D01*
X135841437Y-56019658D01*
X135784796Y-56022090D01*
X135726595Y-56024427D01*
X135670400Y-56026641D01*
X135615658Y-56029142D01*
X135562997Y-56032432D01*
X135538576Y-56034312D01*
X135583596Y-55991567D01*
X135631675Y-55944674D01*
X135668890Y-55908061D01*
X135709206Y-55868235D01*
X135751742Y-55826109D01*
X135795614Y-55782597D01*
X135839942Y-55738614D01*
X135883843Y-55695074D01*
X135926435Y-55652891D01*
X135966837Y-55612979D01*
X136004167Y-55576252D01*
X136052471Y-55529133D01*
X136088902Y-55494322D01*
X136097892Y-55485987D01*
X136146607Y-55475514D01*
X136201182Y-55462806D01*
X136248109Y-55448673D01*
X136293382Y-55427037D01*
X136329515Y-55391014D01*
X136343356Y-55355317D01*
X136342288Y-55306468D01*
X136316270Y-55263534D01*
X136274024Y-55232698D01*
X136241995Y-55218541D01*
X135685122Y-55001165D01*
X135640794Y-55067381D01*
X135594859Y-55133275D01*
X135547367Y-55198926D01*
X135498371Y-55264413D01*
X135447923Y-55329813D01*
X135396073Y-55395207D01*
X135342875Y-55460672D01*
X135288380Y-55526287D01*
X135232639Y-55592131D01*
X135175706Y-55658283D01*
X135117631Y-55724821D01*
X135058467Y-55791825D01*
X134998265Y-55859372D01*
X134937078Y-55927542D01*
X134874957Y-55996413D01*
X134811953Y-56066064D01*
X134745805Y-56063960D01*
X134673148Y-56063129D01*
X134616348Y-56062870D01*
X134554484Y-56062809D01*
X134488951Y-56062915D01*
X134421141Y-56063156D01*
X134352449Y-56063498D01*
X134284267Y-56063910D01*
X134217990Y-56064359D01*
X134155010Y-56064814D01*
X134096722Y-56065242D01*
X134044518Y-56065611D01*
X133980671Y-56065983D01*
X133949776Y-56066064D01*
X133900370Y-56066008D01*
X133851434Y-56065468D01*
X133802324Y-56063456D01*
X133747054Y-56058203D01*
X133699427Y-56051409D01*
X133677445Y-56654689D01*
X133676892Y-56707812D01*
X133683094Y-56762766D01*
X133709406Y-56809674D01*
X133751939Y-56823217D01*
X133802730Y-56808855D01*
X133841360Y-56772949D01*
X133875315Y-56734541D01*
X133910878Y-56692987D01*
X133943670Y-56654689D01*
X134001665Y-56645867D01*
X134052710Y-56638565D01*
X134101307Y-56632337D01*
X134151956Y-56626735D01*
X134209157Y-56621311D01*
X134262659Y-56616801D01*
X134308813Y-56613168D01*
X134368680Y-56609893D01*
X134423985Y-56606500D01*
X134489481Y-56602293D01*
X134563351Y-56597404D01*
X134643774Y-56591966D01*
X134728932Y-56586111D01*
X134817004Y-56579972D01*
X134906173Y-56573680D01*
X134994617Y-56567369D01*
X135080519Y-56561171D01*
X135162059Y-56555217D01*
X135237417Y-56549642D01*
X135304774Y-56544576D01*
X135362311Y-56540152D01*
X135426224Y-56535010D01*
X135395426Y-56593493D01*
X135366626Y-56647727D01*
X135339732Y-56697928D01*
X135314655Y-56744315D01*
X135280243Y-56807213D01*
X135249404Y-56862743D01*
X135221829Y-56911637D01*
X135197211Y-56954623D01*
X135168453Y-57004013D01*
X135138014Y-57055449D01*
X135122142Y-57082114D01*
X134868129Y-57082114D01*
X134776039Y-57081958D01*
X134726551Y-57081765D01*
X134674941Y-57081496D01*
X134621340Y-57081153D01*
X134565876Y-57080737D01*
X134508680Y-57080249D01*
X134449883Y-57079691D01*
X134389612Y-57079062D01*
X134328000Y-57078365D01*
X134265175Y-57077600D01*
X134201268Y-57076769D01*
X134136408Y-57075872D01*
X134070725Y-57074912D01*
X134004350Y-57073888D01*
X133937411Y-57072802D01*
X133870040Y-57071656D01*
X133802366Y-57070450D01*
X133734519Y-57069185D01*
X133666629Y-57067862D01*
X133598825Y-57066484D01*
X133531238Y-57065050D01*
X133463998Y-57063562D01*
X133397234Y-57062021D01*
X133331077Y-57060428D01*
X133265656Y-57058785D01*
X133201101Y-57057092D01*
X133137542Y-57055350D01*
X133075110Y-57053561D01*
X133013933Y-57051725D01*
X132954143Y-57049845D01*
X132895868Y-57047920D01*
X132773747Y-57635324D01*
X132843344Y-57632754D01*
X132912241Y-57630309D01*
X132980452Y-57627985D01*
X133047993Y-57625776D01*
X133114878Y-57623679D01*
X133181122Y-57621690D01*
X133246741Y-57619804D01*
X133311749Y-57618017D01*
X133376161Y-57616325D01*
X133439993Y-57614723D01*
X133503259Y-57613208D01*
X133565974Y-57611775D01*
X133628153Y-57610420D01*
X133689812Y-57609138D01*
X133750964Y-57607925D01*
X133811626Y-57606778D01*
X133871812Y-57605692D01*
X133931538Y-57604662D01*
X133990817Y-57603684D01*
X134049665Y-57602754D01*
X134108098Y-57601869D01*
X134166129Y-57601022D01*
X134223775Y-57600212D01*
X134281050Y-57599432D01*
X134337968Y-57598679D01*
X134394546Y-57597948D01*
X134450798Y-57597236D01*
X134506738Y-57596539D01*
X134562383Y-57595850D01*
X134617746Y-57595168D01*
X134672843Y-57594487D01*
X134727690Y-57593803D01*
X134674284Y-57649529D01*
X134618111Y-57705365D01*
X134559300Y-57761217D01*
X134497980Y-57816996D01*
X134434282Y-57872610D01*
X134368335Y-57927966D01*
X134300270Y-57982974D01*
X134230217Y-58037542D01*
X134158304Y-58091579D01*
X134084663Y-58144993D01*
X134009424Y-58197693D01*
X133932715Y-58249588D01*
X133854667Y-58300585D01*
X133775411Y-58350593D01*
X133695075Y-58399522D01*
X133613790Y-58447279D01*
X133531685Y-58493773D01*
X133448891Y-58538913D01*
X133365538Y-58582606D01*
X133281755Y-58624763D01*
X133197673Y-58665290D01*
X133113421Y-58704098D01*
X133029129Y-58741094D01*
X132944927Y-58776186D01*
X132860945Y-58809284D01*
X132777313Y-58840296D01*
X132694161Y-58869130D01*
X132611619Y-58895696D01*
X132529816Y-58919901D01*
X132448883Y-58941654D01*
X132368950Y-58960864D01*
X132290146Y-58977438D01*
X132683377Y-59522100D01*
X132745159Y-59496923D01*
X132809965Y-59470337D01*
X132877651Y-59442257D01*
X132948070Y-59412596D01*
X133021078Y-59381270D01*
X133096530Y-59348193D01*
X133174279Y-59313280D01*
X133254180Y-59276445D01*
X133336089Y-59237603D01*
X133419859Y-59196668D01*
X133505346Y-59153556D01*
X133592404Y-59108180D01*
X133680888Y-59060455D01*
X133770652Y-59010296D01*
X133861551Y-58957617D01*
X133953440Y-58902334D01*
X134046173Y-58844360D01*
X134139605Y-58783609D01*
X134233591Y-58719998D01*
X134327985Y-58653440D01*
X134422642Y-58583849D01*
X134517417Y-58511142D01*
X134612164Y-58435231D01*
X134706738Y-58356031D01*
X134800994Y-58273458D01*
X134894786Y-58187426D01*
X134987968Y-58097848D01*
X135080396Y-58004641D01*
X135171925Y-57907718D01*
X135262408Y-57806995D01*
X135351701Y-57702385D01*
X135439658Y-57593803D01*
X136138192Y-57593803D01*
X136163320Y-57673663D01*
X136189867Y-57751719D01*
X136218078Y-57828168D01*
X136248197Y-57903209D01*
X136280470Y-57977041D01*
X136315142Y-58049862D01*
X136352458Y-58121871D01*
X136392663Y-58193266D01*
X136436002Y-58264247D01*
X136482720Y-58335011D01*
X136533063Y-58405757D01*
X136587275Y-58476683D01*
X136645601Y-58547989D01*
X136708287Y-58619873D01*
X136741341Y-58656094D01*
X136775577Y-58692533D01*
X136811026Y-58729217D01*
X136847718Y-58766168D01*
X136884737Y-58802105D01*
X136921410Y-58837118D01*
X136957782Y-58871236D01*
X136993901Y-58904488D01*
X137065561Y-58968505D01*
X137136764Y-59029397D01*
X137207880Y-59087392D01*
X137279283Y-59142715D01*
X137351344Y-59195595D01*
X137424436Y-59246258D01*
X137498930Y-59294932D01*
X137575199Y-59341844D01*
X137653614Y-59387222D01*
X137734548Y-59431291D01*
X137818373Y-59474280D01*
X137905461Y-59516416D01*
X137950345Y-59537235D01*
X137996184Y-59557926D01*
X138043025Y-59578517D01*
X138090914Y-59599036D01*
X138700300Y-59004305D01*
G37*
G36*
X136292065Y-58596420D02*
G01*
X136285901Y-58545395D01*
X136258105Y-58501792D01*
X136224599Y-58464331D01*
X136202916Y-58441325D01*
X135823119Y-58059085D01*
X135762697Y-58119582D01*
X135701417Y-58179210D01*
X135639278Y-58237905D01*
X135576281Y-58295600D01*
X135512425Y-58352229D01*
X135447710Y-58407725D01*
X135382136Y-58462023D01*
X135315704Y-58515056D01*
X135248414Y-58566758D01*
X135180264Y-58617063D01*
X135111256Y-58665905D01*
X135041389Y-58713217D01*
X134970664Y-58758934D01*
X134899079Y-58802988D01*
X134826637Y-58845315D01*
X134753335Y-58885847D01*
X134704308Y-58911417D01*
X134646942Y-58940191D01*
X134581854Y-58971714D01*
X134509665Y-59005526D01*
X134430992Y-59041171D01*
X134346456Y-59078189D01*
X134256675Y-59116123D01*
X134210011Y-59135290D01*
X134162267Y-59154515D01*
X134113522Y-59173739D01*
X134063853Y-59192906D01*
X134013337Y-59211959D01*
X133962050Y-59230840D01*
X133910072Y-59249493D01*
X133857479Y-59267858D01*
X133804348Y-59285881D01*
X133750756Y-59303503D01*
X133696782Y-59320666D01*
X133642503Y-59337315D01*
X133587996Y-59353391D01*
X133533337Y-59368838D01*
X133478606Y-59383597D01*
X133423878Y-59397612D01*
X133369232Y-59410826D01*
X133314745Y-59423182D01*
X133622491Y-59916552D01*
X133671997Y-59903101D01*
X133721325Y-59889112D01*
X133770412Y-59874636D01*
X133819195Y-59859720D01*
X133867610Y-59844416D01*
X133915594Y-59828772D01*
X133963084Y-59812838D01*
X134010016Y-59796663D01*
X134056328Y-59780297D01*
X134146836Y-59747188D01*
X134234102Y-59713906D01*
X134317620Y-59680847D01*
X134396882Y-59648406D01*
X134471383Y-59616978D01*
X134540617Y-59586959D01*
X134604078Y-59558744D01*
X134661258Y-59532729D01*
X134711652Y-59509308D01*
X134773412Y-59479907D01*
X134804626Y-59464703D01*
X134879194Y-59428107D01*
X134949626Y-59392155D01*
X135016824Y-59356318D01*
X135081689Y-59320065D01*
X135145123Y-59282868D01*
X135208028Y-59244197D01*
X135271304Y-59203523D01*
X135335854Y-59160315D01*
X135402580Y-59114045D01*
X135472382Y-59064183D01*
X135546163Y-59010199D01*
X135624824Y-58951564D01*
X135666266Y-58920337D01*
X135709267Y-58887748D01*
X135753938Y-58853732D01*
X135800393Y-58818223D01*
X135848744Y-58781153D01*
X135899104Y-58742457D01*
X135951585Y-58702069D01*
X136006301Y-58659923D01*
X136055996Y-58667780D01*
X136104903Y-58672654D01*
X136158953Y-58674577D01*
X136207646Y-58669698D01*
X136257422Y-58649234D01*
X136288544Y-58608970D01*
X136292065Y-58596420D01*
G37*
G36*
X136818408Y-59330369D02*
G01*
X136819847Y-59278248D01*
X136807287Y-59230157D01*
X136783907Y-59187206D01*
X136780551Y-59182602D01*
X136414187Y-58738080D01*
X136333910Y-58800758D01*
X136253930Y-58863036D01*
X136174064Y-58924842D01*
X136094128Y-58986106D01*
X136013940Y-59046756D01*
X135933317Y-59106722D01*
X135852076Y-59165932D01*
X135770034Y-59224315D01*
X135687008Y-59281799D01*
X135602815Y-59338315D01*
X135517273Y-59393790D01*
X135430198Y-59448155D01*
X135341407Y-59501336D01*
X135250718Y-59553264D01*
X135157948Y-59603868D01*
X135062913Y-59653075D01*
X134965431Y-59700816D01*
X134865319Y-59747019D01*
X134762394Y-59791612D01*
X134656473Y-59834526D01*
X134547373Y-59875688D01*
X134434911Y-59915027D01*
X134318905Y-59952474D01*
X134199171Y-59987955D01*
X134075527Y-60021401D01*
X133947789Y-60052740D01*
X133815775Y-60081901D01*
X133679301Y-60108812D01*
X133538185Y-60133404D01*
X133392245Y-60155604D01*
X133241296Y-60175342D01*
X133085157Y-60192547D01*
X133442972Y-60743314D01*
X133497805Y-60735722D01*
X133552619Y-60727596D01*
X133607410Y-60718935D01*
X133662175Y-60709736D01*
X133716910Y-60699994D01*
X133771611Y-60689707D01*
X133826273Y-60678871D01*
X133880892Y-60667484D01*
X133935465Y-60655543D01*
X133989987Y-60643044D01*
X134044455Y-60629984D01*
X134098865Y-60616360D01*
X134153211Y-60602170D01*
X134207491Y-60587408D01*
X134261701Y-60572074D01*
X134315835Y-60556163D01*
X134369891Y-60539673D01*
X134423864Y-60522599D01*
X134477751Y-60504940D01*
X134531546Y-60486692D01*
X134585247Y-60467852D01*
X134638849Y-60448417D01*
X134692348Y-60428383D01*
X134745741Y-60407747D01*
X134799022Y-60386507D01*
X134852189Y-60364660D01*
X134905236Y-60342201D01*
X134958160Y-60319128D01*
X135010958Y-60295438D01*
X135063624Y-60271128D01*
X135116156Y-60246195D01*
X135168548Y-60220635D01*
X135223737Y-60192107D01*
X135279447Y-60162173D01*
X135348106Y-60124558D01*
X135427841Y-60080159D01*
X135471277Y-60055698D01*
X135516779Y-60029878D01*
X135564114Y-60002812D01*
X135613047Y-59974614D01*
X135663345Y-59945394D01*
X135714772Y-59915266D01*
X135767096Y-59884343D01*
X135820081Y-59852736D01*
X135873494Y-59820558D01*
X135927101Y-59787921D01*
X135980667Y-59754939D01*
X136033959Y-59721724D01*
X136086742Y-59688387D01*
X136138782Y-59655042D01*
X136189846Y-59621801D01*
X136239698Y-59588776D01*
X136288105Y-59556080D01*
X136334832Y-59523826D01*
X136379647Y-59492125D01*
X136422313Y-59461091D01*
X136462598Y-59430836D01*
X136535087Y-59373112D01*
X136585863Y-59379626D01*
X136637758Y-59388471D01*
X136686727Y-59396811D01*
X136720711Y-59401200D01*
X136772537Y-59390580D01*
X136810203Y-59353749D01*
X136818408Y-59330369D01*
G37*
G36*
X137376503Y-60072868D02*
G01*
X137380521Y-60021026D01*
X137355724Y-59974293D01*
X137321549Y-59938534D01*
X136936866Y-59550188D01*
X136884957Y-59591594D01*
X136832731Y-59632462D01*
X136780192Y-59672795D01*
X136727347Y-59712590D01*
X136674199Y-59751849D01*
X136620754Y-59790572D01*
X136567016Y-59828757D01*
X136512990Y-59866406D01*
X136458682Y-59903518D01*
X136404097Y-59940094D01*
X136349238Y-59976133D01*
X136294112Y-60011635D01*
X136238722Y-60046601D01*
X136183075Y-60081030D01*
X136127174Y-60114922D01*
X136071025Y-60148278D01*
X136014633Y-60181097D01*
X135958003Y-60213379D01*
X135901139Y-60245124D01*
X135844046Y-60276333D01*
X135786730Y-60307006D01*
X135729196Y-60337141D01*
X135671447Y-60366740D01*
X135613490Y-60395802D01*
X135555328Y-60424328D01*
X135496968Y-60452317D01*
X135438414Y-60479769D01*
X135379670Y-60506685D01*
X135320742Y-60533064D01*
X135261635Y-60558906D01*
X135202354Y-60584212D01*
X135142903Y-60608981D01*
X135075778Y-60636283D01*
X135009447Y-60662552D01*
X134943833Y-60687792D01*
X134878858Y-60712006D01*
X134814442Y-60735199D01*
X134750508Y-60757374D01*
X134686977Y-60778536D01*
X134623772Y-60798689D01*
X134560813Y-60817836D01*
X134498023Y-60835982D01*
X134435324Y-60853130D01*
X134372636Y-60869285D01*
X134309882Y-60884451D01*
X134246984Y-60898632D01*
X134183863Y-60911832D01*
X134120441Y-60924054D01*
X134056640Y-60935303D01*
X133992381Y-60945583D01*
X133927586Y-60954898D01*
X133862178Y-60963252D01*
X133796077Y-60970649D01*
X133729206Y-60977093D01*
X133661485Y-60982587D01*
X133592838Y-60987137D01*
X133523186Y-60990746D01*
X133452449Y-60993418D01*
X133380551Y-60995157D01*
X133307413Y-60995967D01*
X133232956Y-60995853D01*
X133157103Y-60994817D01*
X133079774Y-60992865D01*
X133000893Y-60990000D01*
X133253684Y-61620146D01*
X133310456Y-61614690D01*
X133373249Y-61608500D01*
X133441867Y-61601386D01*
X133516114Y-61593155D01*
X133595793Y-61583619D01*
X133680707Y-61572587D01*
X133770660Y-61559867D01*
X133865455Y-61545270D01*
X133964896Y-61528606D01*
X134068786Y-61509682D01*
X134176929Y-61488310D01*
X134289128Y-61464298D01*
X134405187Y-61437456D01*
X134524908Y-61407594D01*
X134648096Y-61374521D01*
X134774554Y-61338046D01*
X134904085Y-61297978D01*
X135036493Y-61254129D01*
X135171581Y-61206306D01*
X135309152Y-61154320D01*
X135449011Y-61097979D01*
X135590960Y-61037094D01*
X135734803Y-60971473D01*
X135880344Y-60900927D01*
X136027386Y-60825265D01*
X136175732Y-60744296D01*
X136325185Y-60657829D01*
X136475550Y-60565675D01*
X136626630Y-60467643D01*
X136778227Y-60363542D01*
X136930147Y-60253181D01*
X137082191Y-60136371D01*
X137136669Y-60147300D01*
X137192637Y-60155401D01*
X137241066Y-60161836D01*
X137261709Y-60164459D01*
X137314647Y-60155131D01*
X137355530Y-60123314D01*
X137375526Y-60077428D01*
X137376503Y-60072868D01*
G37*
G36*
X141859581Y-60286580D02*
G01*
X141709371Y-61008318D01*
X142449427Y-61008318D01*
X142599637Y-60286580D01*
X141859581Y-60286580D01*
G37*
G36*
X142777934Y-55868227D02*
G01*
X142396915Y-57702491D01*
X142130690Y-59739476D01*
X142549567Y-59739476D01*
X143136971Y-57702491D01*
X143517990Y-55868227D01*
X142777934Y-55868227D01*
G37*
D11*
X37520000Y-45670000D02*
X37520000Y-47170000D01*
X37520000Y-47170000D02*
X42920000Y-47170000D01*
X39720000Y-45920000D02*
X39720000Y-46920000D01*
X39820000Y-46420000D02*
X40720000Y-45920000D01*
X40720000Y-45920000D02*
X40720000Y-46920000D01*
X40720000Y-46920000D02*
X39820000Y-46420000D01*
X42920000Y-45670000D02*
X37520000Y-45670000D01*
X42920000Y-47170000D02*
X42920000Y-45670000D01*
X4480000Y-45690000D02*
X4480000Y-47190000D01*
X4480000Y-47190000D02*
X9880000Y-47190000D01*
X6680000Y-45940000D02*
X6680000Y-46940000D01*
X6780000Y-46440000D02*
X7680000Y-45940000D01*
X7680000Y-45940000D02*
X7680000Y-46940000D01*
X7680000Y-46940000D02*
X6780000Y-46440000D01*
X9880000Y-45690000D02*
X4480000Y-45690000D01*
X9880000Y-47190000D02*
X9880000Y-45690000D01*
X106800000Y-45560000D02*
X106800000Y-47060000D01*
X106800000Y-47060000D02*
X112200000Y-47060000D01*
X109000000Y-45810000D02*
X109000000Y-46810000D01*
X109100000Y-46310000D02*
X110000000Y-45810000D01*
X110000000Y-45810000D02*
X110000000Y-46810000D01*
X110000000Y-46810000D02*
X109100000Y-46310000D01*
X112200000Y-45560000D02*
X106800000Y-45560000D01*
X112200000Y-47060000D02*
X112200000Y-45560000D01*
X125850000Y-45580000D02*
X125850000Y-47080000D01*
X125850000Y-47080000D02*
X131250000Y-47080000D01*
X128050000Y-45830000D02*
X128050000Y-46830000D01*
X128150000Y-46330000D02*
X129050000Y-45830000D01*
X129050000Y-45830000D02*
X129050000Y-46830000D01*
X129050000Y-46830000D02*
X128150000Y-46330000D01*
X131250000Y-45580000D02*
X125850000Y-45580000D01*
X131250000Y-47080000D02*
X131250000Y-45580000D01*
X158330000Y-45790000D02*
X158330000Y-47290000D01*
X158330000Y-47290000D02*
X163730000Y-47290000D01*
X160530000Y-46040000D02*
X160530000Y-47040000D01*
X160630000Y-46540000D02*
X161530000Y-46040000D01*
X161530000Y-46040000D02*
X161530000Y-47040000D01*
X161530000Y-47040000D02*
X160630000Y-46540000D01*
X163730000Y-45790000D02*
X158330000Y-45790000D01*
X163730000Y-47290000D02*
X163730000Y-45790000D01*
X25910000Y-9910000D02*
X25910000Y-11410000D01*
X25910000Y-11410000D02*
X31310000Y-11410000D01*
X28110000Y-10160000D02*
X28110000Y-11160000D01*
X28210000Y-10660000D02*
X29110000Y-10160000D01*
X29110000Y-10160000D02*
X29110000Y-11160000D01*
X29110000Y-11160000D02*
X28210000Y-10660000D01*
X31310000Y-9910000D02*
X25910000Y-9910000D01*
X31310000Y-11410000D02*
X31310000Y-9910000D01*
X59180000Y-26630000D02*
X59180000Y-28130000D01*
X59180000Y-28130000D02*
X64580000Y-28130000D01*
X61380000Y-26880000D02*
X61380000Y-27880000D01*
X61480000Y-27380000D02*
X62380000Y-26880000D01*
X62380000Y-26880000D02*
X62380000Y-27880000D01*
X62380000Y-27880000D02*
X61480000Y-27380000D01*
X64580000Y-26630000D02*
X59180000Y-26630000D01*
X64580000Y-28130000D02*
X64580000Y-26630000D01*
X173565000Y-64570000D02*
X173565000Y-66070000D01*
X173565000Y-66070000D02*
X178965000Y-66070000D01*
X175765000Y-64820000D02*
X175765000Y-65820000D01*
X175865000Y-65320000D02*
X176765000Y-64820000D01*
X176765000Y-64820000D02*
X176765000Y-65820000D01*
X176765000Y-65820000D02*
X175865000Y-65320000D01*
X178965000Y-64570000D02*
X173565000Y-64570000D01*
X178965000Y-66070000D02*
X178965000Y-64570000D01*
X28220000Y-26560000D02*
X28220000Y-28060000D01*
X28220000Y-28060000D02*
X33620000Y-28060000D01*
X30420000Y-26810000D02*
X30420000Y-27810000D01*
X30520000Y-27310000D02*
X31420000Y-26810000D01*
X31420000Y-26810000D02*
X31420000Y-27810000D01*
X31420000Y-27810000D02*
X30520000Y-27310000D01*
X33620000Y-26560000D02*
X28220000Y-26560000D01*
X33620000Y-28060000D02*
X33620000Y-26560000D01*
X17935000Y-26480000D02*
X17935000Y-27980000D01*
X17935000Y-27980000D02*
X23335000Y-27980000D01*
X20135000Y-26730000D02*
X20135000Y-27730000D01*
X20235000Y-27230000D02*
X21135000Y-26730000D01*
X21135000Y-26730000D02*
X21135000Y-27730000D01*
X21135000Y-27730000D02*
X20235000Y-27230000D01*
X23335000Y-26480000D02*
X17935000Y-26480000D01*
X23335000Y-27980000D02*
X23335000Y-26480000D01*
X180465000Y-7960000D02*
X180465000Y-9460000D01*
X180465000Y-9460000D02*
X185865000Y-9460000D01*
X182665000Y-8210000D02*
X182665000Y-9210000D01*
X182765000Y-8710000D02*
X183665000Y-8210000D01*
X183665000Y-8210000D02*
X183665000Y-9210000D01*
X183665000Y-9210000D02*
X182765000Y-8710000D01*
X185865000Y-7960000D02*
X180465000Y-7960000D01*
X185865000Y-9460000D02*
X185865000Y-7960000D01*
X116430000Y-26480000D02*
X116430000Y-27980000D01*
X116430000Y-27980000D02*
X121830000Y-27980000D01*
X118630000Y-26730000D02*
X118630000Y-27730000D01*
X118730000Y-27230000D02*
X119630000Y-26730000D01*
X119630000Y-26730000D02*
X119630000Y-27730000D01*
X119630000Y-27730000D02*
X118730000Y-27230000D01*
X121830000Y-26480000D02*
X116430000Y-26480000D01*
X121830000Y-27980000D02*
X121830000Y-26480000D01*
X145060000Y-7600000D02*
X145060000Y-9100000D01*
X145060000Y-9100000D02*
X150460000Y-9100000D01*
X147260000Y-7850000D02*
X147260000Y-8850000D01*
X147360000Y-8350000D02*
X148260000Y-7850000D01*
X148260000Y-7850000D02*
X148260000Y-8850000D01*
X148260000Y-8850000D02*
X147360000Y-8350000D01*
X150460000Y-7600000D02*
X145060000Y-7600000D01*
X150460000Y-9100000D02*
X150460000Y-7600000D01*
X54400000Y-7610000D02*
X54400000Y-9110000D01*
X54400000Y-9110000D02*
X59800000Y-9110000D01*
X56600000Y-7860000D02*
X56600000Y-8860000D01*
X56700000Y-8360000D02*
X57600000Y-7860000D01*
X57600000Y-7860000D02*
X57600000Y-8860000D01*
X57600000Y-8860000D02*
X56700000Y-8360000D01*
X59800000Y-7610000D02*
X54400000Y-7610000D01*
X59800000Y-9110000D02*
X59800000Y-7610000D01*
X16755000Y-7490000D02*
X16755000Y-8990000D01*
X16755000Y-8990000D02*
X22155000Y-8990000D01*
X18955000Y-7740000D02*
X18955000Y-8740000D01*
X19055000Y-8240000D02*
X19955000Y-7740000D01*
X19955000Y-7740000D02*
X19955000Y-8740000D01*
X19955000Y-8740000D02*
X19055000Y-8240000D01*
X22155000Y-7490000D02*
X16755000Y-7490000D01*
X22155000Y-8990000D02*
X22155000Y-7490000D01*
X97340000Y-26500000D02*
X97340000Y-28000000D01*
X97340000Y-28000000D02*
X102740000Y-28000000D01*
X99540000Y-26750000D02*
X99540000Y-27750000D01*
X99640000Y-27250000D02*
X100540000Y-26750000D01*
X100540000Y-26750000D02*
X100540000Y-27750000D01*
X100540000Y-27750000D02*
X99640000Y-27250000D01*
X102740000Y-26500000D02*
X97340000Y-26500000D01*
X102740000Y-28000000D02*
X102740000Y-26500000D01*
X92570000Y-7700000D02*
X92570000Y-9200000D01*
X92570000Y-9200000D02*
X97970000Y-9200000D01*
X94770000Y-7950000D02*
X94770000Y-8950000D01*
X94870000Y-8450000D02*
X95770000Y-7950000D01*
X95770000Y-7950000D02*
X95770000Y-8950000D01*
X95770000Y-8950000D02*
X94870000Y-8450000D01*
X97970000Y-7700000D02*
X92570000Y-7700000D01*
X97970000Y-9200000D02*
X97970000Y-7700000D01*
X97360000Y-64620000D02*
X97360000Y-66120000D01*
X97360000Y-66120000D02*
X102760000Y-66120000D01*
X99560000Y-64870000D02*
X99560000Y-65870000D01*
X99660000Y-65370000D02*
X100560000Y-64870000D01*
X100560000Y-64870000D02*
X100560000Y-65870000D01*
X100560000Y-65870000D02*
X99660000Y-65370000D01*
X102760000Y-64620000D02*
X97360000Y-64620000D01*
X102760000Y-66120000D02*
X102760000Y-64620000D01*
X21145000Y-64580000D02*
X21145000Y-66080000D01*
X21145000Y-66080000D02*
X26545000Y-66080000D01*
X23345000Y-64830000D02*
X23345000Y-65830000D01*
X23445000Y-65330000D02*
X24345000Y-64830000D01*
X24345000Y-64830000D02*
X24345000Y-65830000D01*
X24345000Y-65830000D02*
X23445000Y-65330000D01*
X26545000Y-64580000D02*
X21145000Y-64580000D01*
X26545000Y-66080000D02*
X26545000Y-64580000D01*
X130640000Y-7790000D02*
X130640000Y-9290000D01*
X130640000Y-9290000D02*
X136040000Y-9290000D01*
X132840000Y-8040000D02*
X132840000Y-9040000D01*
X132940000Y-8540000D02*
X133840000Y-8040000D01*
X133840000Y-8040000D02*
X133840000Y-9040000D01*
X133840000Y-9040000D02*
X132940000Y-8540000D01*
X136040000Y-7790000D02*
X130640000Y-7790000D01*
X136040000Y-9290000D02*
X136040000Y-7790000D01*
X35450000Y-7610000D02*
X35450000Y-9110000D01*
X35450000Y-9110000D02*
X40850000Y-9110000D01*
X37650000Y-7860000D02*
X37650000Y-8860000D01*
X37750000Y-8360000D02*
X38650000Y-7860000D01*
X38650000Y-7860000D02*
X38650000Y-8860000D01*
X38650000Y-8860000D02*
X37750000Y-8360000D01*
X40850000Y-7610000D02*
X35450000Y-7610000D01*
X40850000Y-9110000D02*
X40850000Y-7610000D01*
X154490000Y-26600000D02*
X154490000Y-28100000D01*
X154490000Y-28100000D02*
X159890000Y-28100000D01*
X156690000Y-26850000D02*
X156690000Y-27850000D01*
X156790000Y-27350000D02*
X157690000Y-26850000D01*
X157690000Y-26850000D02*
X157690000Y-27850000D01*
X157690000Y-27850000D02*
X156790000Y-27350000D01*
X159890000Y-26600000D02*
X154490000Y-26600000D01*
X159890000Y-28100000D02*
X159890000Y-26600000D01*
X173855000Y-26520000D02*
X173855000Y-28020000D01*
X173855000Y-28020000D02*
X179255000Y-28020000D01*
X176055000Y-26770000D02*
X176055000Y-27770000D01*
X176155000Y-27270000D02*
X177055000Y-26770000D01*
X177055000Y-26770000D02*
X177055000Y-27770000D01*
X177055000Y-27770000D02*
X176155000Y-27270000D01*
X179255000Y-26520000D02*
X173855000Y-26520000D01*
X179255000Y-28020000D02*
X179255000Y-26520000D01*
X111720000Y-7730000D02*
X111720000Y-9230000D01*
X111720000Y-9230000D02*
X117120000Y-9230000D01*
X113920000Y-7980000D02*
X113920000Y-8980000D01*
X114020000Y-8480000D02*
X114920000Y-7980000D01*
X114920000Y-7980000D02*
X114920000Y-8980000D01*
X114920000Y-8980000D02*
X114020000Y-8480000D01*
X117120000Y-7730000D02*
X111720000Y-7730000D01*
X117120000Y-9230000D02*
X117120000Y-7730000D01*
X40250000Y-26480000D02*
X40250000Y-27980000D01*
X40250000Y-27980000D02*
X45650000Y-27980000D01*
X42450000Y-26730000D02*
X42450000Y-27730000D01*
X42550000Y-27230000D02*
X43450000Y-26730000D01*
X43450000Y-26730000D02*
X43450000Y-27730000D01*
X43450000Y-27730000D02*
X42550000Y-27230000D01*
X45650000Y-26480000D02*
X40250000Y-26480000D01*
X45650000Y-27980000D02*
X45650000Y-26480000D01*
X135340000Y-26510000D02*
X135340000Y-28010000D01*
X135340000Y-28010000D02*
X140740000Y-28010000D01*
X137540000Y-26760000D02*
X137540000Y-27760000D01*
X137640000Y-27260000D02*
X138540000Y-26760000D01*
X138540000Y-26760000D02*
X138540000Y-27760000D01*
X138540000Y-27760000D02*
X137640000Y-27260000D01*
X140740000Y-26510000D02*
X135340000Y-26510000D01*
X140740000Y-28010000D02*
X140740000Y-26510000D01*
X144960000Y-45590000D02*
X144960000Y-47090000D01*
X144960000Y-47090000D02*
X150360000Y-47090000D01*
X147160000Y-45840000D02*
X147160000Y-46840000D01*
X147260000Y-46340000D02*
X148160000Y-45840000D01*
X148160000Y-45840000D02*
X148160000Y-46840000D01*
X148160000Y-46840000D02*
X147260000Y-46340000D01*
X150360000Y-45590000D02*
X144960000Y-45590000D01*
X150360000Y-47090000D02*
X150360000Y-45590000D01*
X190540000Y-45570000D02*
X190540000Y-47070000D01*
X190540000Y-47070000D02*
X195940000Y-47070000D01*
X192740000Y-45820000D02*
X192740000Y-46820000D01*
X192840000Y-46320000D02*
X193740000Y-45820000D01*
X193740000Y-45820000D02*
X193740000Y-46820000D01*
X193740000Y-46820000D02*
X192840000Y-46320000D01*
X195940000Y-45570000D02*
X190540000Y-45570000D01*
X195940000Y-47070000D02*
X195940000Y-45570000D01*
X3040000Y-64560000D02*
X3040000Y-66060000D01*
X3040000Y-66060000D02*
X8440000Y-66060000D01*
X5240000Y-64810000D02*
X5240000Y-65810000D01*
X5340000Y-65310000D02*
X6240000Y-64810000D01*
X6240000Y-64810000D02*
X6240000Y-65810000D01*
X6240000Y-65810000D02*
X5340000Y-65310000D01*
X8440000Y-64560000D02*
X3040000Y-64560000D01*
X8440000Y-66060000D02*
X8440000Y-64560000D01*
X158150000Y-7500000D02*
X158150000Y-9000000D01*
X158150000Y-9000000D02*
X163550000Y-9000000D01*
X160350000Y-7750000D02*
X160350000Y-8750000D01*
X160450000Y-8250000D02*
X161350000Y-7750000D01*
X161350000Y-7750000D02*
X161350000Y-8750000D01*
X161350000Y-8750000D02*
X160450000Y-8250000D01*
X163550000Y-7500000D02*
X158150000Y-7500000D01*
X163550000Y-9000000D02*
X163550000Y-7500000D01*
X193030000Y-64620000D02*
X193030000Y-66120000D01*
X193030000Y-66120000D02*
X198430000Y-66120000D01*
X195230000Y-64870000D02*
X195230000Y-65870000D01*
X195330000Y-65370000D02*
X196230000Y-64870000D01*
X196230000Y-64870000D02*
X196230000Y-65870000D01*
X196230000Y-65870000D02*
X195330000Y-65370000D01*
X198430000Y-64620000D02*
X193030000Y-64620000D01*
X198430000Y-66120000D02*
X198430000Y-64620000D01*
X68740000Y-45560000D02*
X68740000Y-47060000D01*
X68740000Y-47060000D02*
X74140000Y-47060000D01*
X70940000Y-45810000D02*
X70940000Y-46810000D01*
X71040000Y-46310000D02*
X71940000Y-45810000D01*
X71940000Y-45810000D02*
X71940000Y-46810000D01*
X71940000Y-46810000D02*
X71040000Y-46310000D01*
X74140000Y-45560000D02*
X68740000Y-45560000D01*
X74140000Y-47060000D02*
X74140000Y-45560000D01*
X73610000Y-7650000D02*
X73610000Y-9150000D01*
X73610000Y-9150000D02*
X79010000Y-9150000D01*
X75810000Y-7900000D02*
X75810000Y-8900000D01*
X75910000Y-8400000D02*
X76810000Y-7900000D01*
X76810000Y-7900000D02*
X76810000Y-8900000D01*
X76810000Y-8900000D02*
X75910000Y-8400000D01*
X79010000Y-7650000D02*
X73610000Y-7650000D01*
X79010000Y-9150000D02*
X79010000Y-7650000D01*
X49780000Y-45570000D02*
X49780000Y-47070000D01*
X49780000Y-47070000D02*
X55180000Y-47070000D01*
X51980000Y-45820000D02*
X51980000Y-46820000D01*
X52080000Y-46320000D02*
X52980000Y-45820000D01*
X52980000Y-45820000D02*
X52980000Y-46820000D01*
X52980000Y-46820000D02*
X52080000Y-46320000D01*
X55180000Y-45570000D02*
X49780000Y-45570000D01*
X55180000Y-47070000D02*
X55180000Y-45570000D01*
X78250000Y-26630000D02*
X78250000Y-28130000D01*
X78250000Y-28130000D02*
X83650000Y-28130000D01*
X80450000Y-26880000D02*
X80450000Y-27880000D01*
X80550000Y-27380000D02*
X81450000Y-26880000D01*
X81450000Y-26880000D02*
X81450000Y-27880000D01*
X81450000Y-27880000D02*
X80550000Y-27380000D01*
X83650000Y-26630000D02*
X78250000Y-26630000D01*
X83650000Y-28130000D02*
X83650000Y-26630000D01*
X87780000Y-45550000D02*
X87780000Y-47050000D01*
X87780000Y-47050000D02*
X93180000Y-47050000D01*
X89980000Y-45800000D02*
X89980000Y-46800000D01*
X90080000Y-46300000D02*
X90980000Y-45800000D01*
X90980000Y-45800000D02*
X90980000Y-46800000D01*
X90980000Y-46800000D02*
X90080000Y-46300000D01*
X93180000Y-45550000D02*
X87780000Y-45550000D01*
X93180000Y-47050000D02*
X93180000Y-45550000D01*
D12*
X36410000Y-46420000D03*
D13*
X44030000Y-46420000D03*
D12*
X3370000Y-46440000D03*
D13*
X10990000Y-46440000D03*
D12*
X105690000Y-46310000D03*
D13*
X113310000Y-46310000D03*
D12*
X124740000Y-46330000D03*
D13*
X132360000Y-46330000D03*
D12*
X157220000Y-46540000D03*
D13*
X164840000Y-46540000D03*
D12*
X24800000Y-10660000D03*
D13*
X32420000Y-10660000D03*
D12*
X58070000Y-27380000D03*
D13*
X65690000Y-27380000D03*
D12*
X172455000Y-65320000D03*
D13*
X180075000Y-65320000D03*
D12*
X27110000Y-27310000D03*
D13*
X34730000Y-27310000D03*
D12*
X16825000Y-27230000D03*
D13*
X24445000Y-27230000D03*
D12*
X179355000Y-8710000D03*
D13*
X186975000Y-8710000D03*
D12*
X115320000Y-27230000D03*
D13*
X122940000Y-27230000D03*
D12*
X143950000Y-8350000D03*
D13*
X151570000Y-8350000D03*
D12*
X53290000Y-8360000D03*
D13*
X60910000Y-8360000D03*
D12*
X15645000Y-8240000D03*
D13*
X23265000Y-8240000D03*
D12*
X96230000Y-27250000D03*
D13*
X103850000Y-27250000D03*
D12*
X91460000Y-8450000D03*
D13*
X99080000Y-8450000D03*
D12*
X96250000Y-65370000D03*
D13*
X103870000Y-65370000D03*
D12*
X20035000Y-65330000D03*
D13*
X27655000Y-65330000D03*
D12*
X129530000Y-8540000D03*
D13*
X137150000Y-8540000D03*
D12*
X34340000Y-8360000D03*
D13*
X41960000Y-8360000D03*
D12*
X153380000Y-27350000D03*
D13*
X161000000Y-27350000D03*
D12*
X172745000Y-27270000D03*
D13*
X180365000Y-27270000D03*
D12*
X110610000Y-8480000D03*
D13*
X118230000Y-8480000D03*
D12*
X39140000Y-27230000D03*
D13*
X46760000Y-27230000D03*
D12*
X134230000Y-27260000D03*
D13*
X141850000Y-27260000D03*
D12*
X143850000Y-46340000D03*
D13*
X151470000Y-46340000D03*
D12*
X189430000Y-46320000D03*
D13*
X197050000Y-46320000D03*
D12*
X1930000Y-65310000D03*
D13*
X9550000Y-65310000D03*
D12*
X157040000Y-8250000D03*
D13*
X164660000Y-8250000D03*
D12*
X191920000Y-65370000D03*
D13*
X199540000Y-65370000D03*
D12*
X67630000Y-46310000D03*
D13*
X75250000Y-46310000D03*
D12*
X72500000Y-8400000D03*
D13*
X80120000Y-8400000D03*
D12*
X48670000Y-46320000D03*
D13*
X56290000Y-46320000D03*
D12*
X77140000Y-27380000D03*
D13*
X84760000Y-27380000D03*
D12*
X86670000Y-46300000D03*
D13*
X94290000Y-46300000D03*
M02*
