G04 #@! TF.GenerationSoftware,KiCad,Pcbnew,7.0.8*
G04 #@! TF.CreationDate,2024-07-14T10:46:29+09:00*
G04 #@! TF.ProjectId,cool336_pcb,636f6f6c-3333-4365-9f70-63622e6b6963,rev?*
G04 #@! TF.SameCoordinates,Original*
G04 #@! TF.FileFunction,Legend,Bot*
G04 #@! TF.FilePolarity,Positive*
%FSLAX46Y46*%
G04 Gerber Fmt 4.6, Leading zero omitted, Abs format (unit mm)*
G04 Created by KiCad (PCBNEW 7.0.8) date 2024-07-14 10:46:29*
%MOMM*%
%LPD*%
G01*
G04 APERTURE LIST*
%ADD10C,0.300000*%
%ADD11C,0.150000*%
%ADD12C,0.400000*%
%ADD13C,0.500000*%
%ADD14C,1.000000*%
%ADD15C,3.500000*%
%ADD16C,3.000000*%
%ADD17C,0.800000*%
G04 APERTURE END LIST*
D10*
X162752632Y-57974400D02*
X162895489Y-58045828D01*
X162895489Y-58045828D02*
X163181203Y-58045828D01*
X163181203Y-58045828D02*
X163324060Y-57974400D01*
X163324060Y-57974400D02*
X163395489Y-57902971D01*
X163395489Y-57902971D02*
X163466917Y-57760114D01*
X163466917Y-57760114D02*
X163466917Y-57331542D01*
X163466917Y-57331542D02*
X163395489Y-57188685D01*
X163395489Y-57188685D02*
X163324060Y-57117257D01*
X163324060Y-57117257D02*
X163181203Y-57045828D01*
X163181203Y-57045828D02*
X162895489Y-57045828D01*
X162895489Y-57045828D02*
X162752632Y-57117257D01*
X161895489Y-58045828D02*
X162038346Y-57974400D01*
X162038346Y-57974400D02*
X162109775Y-57902971D01*
X162109775Y-57902971D02*
X162181203Y-57760114D01*
X162181203Y-57760114D02*
X162181203Y-57331542D01*
X162181203Y-57331542D02*
X162109775Y-57188685D01*
X162109775Y-57188685D02*
X162038346Y-57117257D01*
X162038346Y-57117257D02*
X161895489Y-57045828D01*
X161895489Y-57045828D02*
X161681203Y-57045828D01*
X161681203Y-57045828D02*
X161538346Y-57117257D01*
X161538346Y-57117257D02*
X161466918Y-57188685D01*
X161466918Y-57188685D02*
X161395489Y-57331542D01*
X161395489Y-57331542D02*
X161395489Y-57760114D01*
X161395489Y-57760114D02*
X161466918Y-57902971D01*
X161466918Y-57902971D02*
X161538346Y-57974400D01*
X161538346Y-57974400D02*
X161681203Y-58045828D01*
X161681203Y-58045828D02*
X161895489Y-58045828D01*
X160538346Y-58045828D02*
X160681203Y-57974400D01*
X160681203Y-57974400D02*
X160752632Y-57902971D01*
X160752632Y-57902971D02*
X160824060Y-57760114D01*
X160824060Y-57760114D02*
X160824060Y-57331542D01*
X160824060Y-57331542D02*
X160752632Y-57188685D01*
X160752632Y-57188685D02*
X160681203Y-57117257D01*
X160681203Y-57117257D02*
X160538346Y-57045828D01*
X160538346Y-57045828D02*
X160324060Y-57045828D01*
X160324060Y-57045828D02*
X160181203Y-57117257D01*
X160181203Y-57117257D02*
X160109775Y-57188685D01*
X160109775Y-57188685D02*
X160038346Y-57331542D01*
X160038346Y-57331542D02*
X160038346Y-57760114D01*
X160038346Y-57760114D02*
X160109775Y-57902971D01*
X160109775Y-57902971D02*
X160181203Y-57974400D01*
X160181203Y-57974400D02*
X160324060Y-58045828D01*
X160324060Y-58045828D02*
X160538346Y-58045828D01*
X159181203Y-58045828D02*
X159324060Y-57974400D01*
X159324060Y-57974400D02*
X159395489Y-57831542D01*
X159395489Y-57831542D02*
X159395489Y-56545828D01*
X158752632Y-56545828D02*
X157824060Y-56545828D01*
X157824060Y-56545828D02*
X158324060Y-57117257D01*
X158324060Y-57117257D02*
X158109775Y-57117257D01*
X158109775Y-57117257D02*
X157966918Y-57188685D01*
X157966918Y-57188685D02*
X157895489Y-57260114D01*
X157895489Y-57260114D02*
X157824060Y-57402971D01*
X157824060Y-57402971D02*
X157824060Y-57760114D01*
X157824060Y-57760114D02*
X157895489Y-57902971D01*
X157895489Y-57902971D02*
X157966918Y-57974400D01*
X157966918Y-57974400D02*
X158109775Y-58045828D01*
X158109775Y-58045828D02*
X158538346Y-58045828D01*
X158538346Y-58045828D02*
X158681203Y-57974400D01*
X158681203Y-57974400D02*
X158752632Y-57902971D01*
X157324061Y-56545828D02*
X156395489Y-56545828D01*
X156395489Y-56545828D02*
X156895489Y-57117257D01*
X156895489Y-57117257D02*
X156681204Y-57117257D01*
X156681204Y-57117257D02*
X156538347Y-57188685D01*
X156538347Y-57188685D02*
X156466918Y-57260114D01*
X156466918Y-57260114D02*
X156395489Y-57402971D01*
X156395489Y-57402971D02*
X156395489Y-57760114D01*
X156395489Y-57760114D02*
X156466918Y-57902971D01*
X156466918Y-57902971D02*
X156538347Y-57974400D01*
X156538347Y-57974400D02*
X156681204Y-58045828D01*
X156681204Y-58045828D02*
X157109775Y-58045828D01*
X157109775Y-58045828D02*
X157252632Y-57974400D01*
X157252632Y-57974400D02*
X157324061Y-57902971D01*
X155109776Y-56545828D02*
X155395490Y-56545828D01*
X155395490Y-56545828D02*
X155538347Y-56617257D01*
X155538347Y-56617257D02*
X155609776Y-56688685D01*
X155609776Y-56688685D02*
X155752633Y-56902971D01*
X155752633Y-56902971D02*
X155824061Y-57188685D01*
X155824061Y-57188685D02*
X155824061Y-57760114D01*
X155824061Y-57760114D02*
X155752633Y-57902971D01*
X155752633Y-57902971D02*
X155681204Y-57974400D01*
X155681204Y-57974400D02*
X155538347Y-58045828D01*
X155538347Y-58045828D02*
X155252633Y-58045828D01*
X155252633Y-58045828D02*
X155109776Y-57974400D01*
X155109776Y-57974400D02*
X155038347Y-57902971D01*
X155038347Y-57902971D02*
X154966918Y-57760114D01*
X154966918Y-57760114D02*
X154966918Y-57402971D01*
X154966918Y-57402971D02*
X155038347Y-57260114D01*
X155038347Y-57260114D02*
X155109776Y-57188685D01*
X155109776Y-57188685D02*
X155252633Y-57117257D01*
X155252633Y-57117257D02*
X155538347Y-57117257D01*
X155538347Y-57117257D02*
X155681204Y-57188685D01*
X155681204Y-57188685D02*
X155752633Y-57260114D01*
X155752633Y-57260114D02*
X155824061Y-57402971D01*
X152538348Y-58045828D02*
X152538348Y-56545828D01*
X152538348Y-57974400D02*
X152681205Y-58045828D01*
X152681205Y-58045828D02*
X152966919Y-58045828D01*
X152966919Y-58045828D02*
X153109776Y-57974400D01*
X153109776Y-57974400D02*
X153181205Y-57902971D01*
X153181205Y-57902971D02*
X153252633Y-57760114D01*
X153252633Y-57760114D02*
X153252633Y-57331542D01*
X153252633Y-57331542D02*
X153181205Y-57188685D01*
X153181205Y-57188685D02*
X153109776Y-57117257D01*
X153109776Y-57117257D02*
X152966919Y-57045828D01*
X152966919Y-57045828D02*
X152681205Y-57045828D01*
X152681205Y-57045828D02*
X152538348Y-57117257D01*
X151252633Y-57974400D02*
X151395490Y-58045828D01*
X151395490Y-58045828D02*
X151681205Y-58045828D01*
X151681205Y-58045828D02*
X151824062Y-57974400D01*
X151824062Y-57974400D02*
X151895490Y-57831542D01*
X151895490Y-57831542D02*
X151895490Y-57260114D01*
X151895490Y-57260114D02*
X151824062Y-57117257D01*
X151824062Y-57117257D02*
X151681205Y-57045828D01*
X151681205Y-57045828D02*
X151395490Y-57045828D01*
X151395490Y-57045828D02*
X151252633Y-57117257D01*
X151252633Y-57117257D02*
X151181205Y-57260114D01*
X151181205Y-57260114D02*
X151181205Y-57402971D01*
X151181205Y-57402971D02*
X151895490Y-57545828D01*
X150609776Y-57974400D02*
X150466919Y-58045828D01*
X150466919Y-58045828D02*
X150181205Y-58045828D01*
X150181205Y-58045828D02*
X150038348Y-57974400D01*
X150038348Y-57974400D02*
X149966919Y-57831542D01*
X149966919Y-57831542D02*
X149966919Y-57760114D01*
X149966919Y-57760114D02*
X150038348Y-57617257D01*
X150038348Y-57617257D02*
X150181205Y-57545828D01*
X150181205Y-57545828D02*
X150395491Y-57545828D01*
X150395491Y-57545828D02*
X150538348Y-57474400D01*
X150538348Y-57474400D02*
X150609776Y-57331542D01*
X150609776Y-57331542D02*
X150609776Y-57260114D01*
X150609776Y-57260114D02*
X150538348Y-57117257D01*
X150538348Y-57117257D02*
X150395491Y-57045828D01*
X150395491Y-57045828D02*
X150181205Y-57045828D01*
X150181205Y-57045828D02*
X150038348Y-57117257D01*
X149324062Y-58045828D02*
X149324062Y-57045828D01*
X149324062Y-56545828D02*
X149395490Y-56617257D01*
X149395490Y-56617257D02*
X149324062Y-56688685D01*
X149324062Y-56688685D02*
X149252633Y-56617257D01*
X149252633Y-56617257D02*
X149324062Y-56545828D01*
X149324062Y-56545828D02*
X149324062Y-56688685D01*
X147966919Y-57045828D02*
X147966919Y-58260114D01*
X147966919Y-58260114D02*
X148038347Y-58402971D01*
X148038347Y-58402971D02*
X148109776Y-58474400D01*
X148109776Y-58474400D02*
X148252633Y-58545828D01*
X148252633Y-58545828D02*
X148466919Y-58545828D01*
X148466919Y-58545828D02*
X148609776Y-58474400D01*
X147966919Y-57974400D02*
X148109776Y-58045828D01*
X148109776Y-58045828D02*
X148395490Y-58045828D01*
X148395490Y-58045828D02*
X148538347Y-57974400D01*
X148538347Y-57974400D02*
X148609776Y-57902971D01*
X148609776Y-57902971D02*
X148681204Y-57760114D01*
X148681204Y-57760114D02*
X148681204Y-57331542D01*
X148681204Y-57331542D02*
X148609776Y-57188685D01*
X148609776Y-57188685D02*
X148538347Y-57117257D01*
X148538347Y-57117257D02*
X148395490Y-57045828D01*
X148395490Y-57045828D02*
X148109776Y-57045828D01*
X148109776Y-57045828D02*
X147966919Y-57117257D01*
X147252633Y-57045828D02*
X147252633Y-58045828D01*
X147252633Y-57188685D02*
X147181204Y-57117257D01*
X147181204Y-57117257D02*
X147038347Y-57045828D01*
X147038347Y-57045828D02*
X146824061Y-57045828D01*
X146824061Y-57045828D02*
X146681204Y-57117257D01*
X146681204Y-57117257D02*
X146609776Y-57260114D01*
X146609776Y-57260114D02*
X146609776Y-58045828D01*
X145324061Y-57974400D02*
X145466918Y-58045828D01*
X145466918Y-58045828D02*
X145752633Y-58045828D01*
X145752633Y-58045828D02*
X145895490Y-57974400D01*
X145895490Y-57974400D02*
X145966918Y-57831542D01*
X145966918Y-57831542D02*
X145966918Y-57260114D01*
X145966918Y-57260114D02*
X145895490Y-57117257D01*
X145895490Y-57117257D02*
X145752633Y-57045828D01*
X145752633Y-57045828D02*
X145466918Y-57045828D01*
X145466918Y-57045828D02*
X145324061Y-57117257D01*
X145324061Y-57117257D02*
X145252633Y-57260114D01*
X145252633Y-57260114D02*
X145252633Y-57402971D01*
X145252633Y-57402971D02*
X145966918Y-57545828D01*
X143966919Y-58045828D02*
X143966919Y-56545828D01*
X143966919Y-57974400D02*
X144109776Y-58045828D01*
X144109776Y-58045828D02*
X144395490Y-58045828D01*
X144395490Y-58045828D02*
X144538347Y-57974400D01*
X144538347Y-57974400D02*
X144609776Y-57902971D01*
X144609776Y-57902971D02*
X144681204Y-57760114D01*
X144681204Y-57760114D02*
X144681204Y-57331542D01*
X144681204Y-57331542D02*
X144609776Y-57188685D01*
X144609776Y-57188685D02*
X144538347Y-57117257D01*
X144538347Y-57117257D02*
X144395490Y-57045828D01*
X144395490Y-57045828D02*
X144109776Y-57045828D01*
X144109776Y-57045828D02*
X143966919Y-57117257D01*
X142109776Y-58045828D02*
X142109776Y-56545828D01*
X142109776Y-57117257D02*
X141966919Y-57045828D01*
X141966919Y-57045828D02*
X141681204Y-57045828D01*
X141681204Y-57045828D02*
X141538347Y-57117257D01*
X141538347Y-57117257D02*
X141466919Y-57188685D01*
X141466919Y-57188685D02*
X141395490Y-57331542D01*
X141395490Y-57331542D02*
X141395490Y-57760114D01*
X141395490Y-57760114D02*
X141466919Y-57902971D01*
X141466919Y-57902971D02*
X141538347Y-57974400D01*
X141538347Y-57974400D02*
X141681204Y-58045828D01*
X141681204Y-58045828D02*
X141966919Y-58045828D01*
X141966919Y-58045828D02*
X142109776Y-57974400D01*
X140895490Y-57045828D02*
X140538347Y-58045828D01*
X140181204Y-57045828D02*
X140538347Y-58045828D01*
X140538347Y-58045828D02*
X140681204Y-58402971D01*
X140681204Y-58402971D02*
X140752633Y-58474400D01*
X140752633Y-58474400D02*
X140895490Y-58545828D01*
X138466919Y-58045828D02*
X138466919Y-57045828D01*
X138466919Y-57188685D02*
X138395490Y-57117257D01*
X138395490Y-57117257D02*
X138252633Y-57045828D01*
X138252633Y-57045828D02*
X138038347Y-57045828D01*
X138038347Y-57045828D02*
X137895490Y-57117257D01*
X137895490Y-57117257D02*
X137824062Y-57260114D01*
X137824062Y-57260114D02*
X137824062Y-58045828D01*
X137824062Y-57260114D02*
X137752633Y-57117257D01*
X137752633Y-57117257D02*
X137609776Y-57045828D01*
X137609776Y-57045828D02*
X137395490Y-57045828D01*
X137395490Y-57045828D02*
X137252633Y-57117257D01*
X137252633Y-57117257D02*
X137181204Y-57260114D01*
X137181204Y-57260114D02*
X137181204Y-58045828D01*
X136466919Y-57902971D02*
X136395490Y-57974400D01*
X136395490Y-57974400D02*
X136466919Y-58045828D01*
X136466919Y-58045828D02*
X136538347Y-57974400D01*
X136538347Y-57974400D02*
X136466919Y-57902971D01*
X136466919Y-57902971D02*
X136466919Y-58045828D01*
X135752633Y-58045828D02*
X135752633Y-56545828D01*
X135609776Y-57474400D02*
X135181204Y-58045828D01*
X135181204Y-57045828D02*
X135752633Y-57617257D01*
X134538347Y-58045828D02*
X134538347Y-57045828D01*
X134538347Y-56545828D02*
X134609775Y-56617257D01*
X134609775Y-56617257D02*
X134538347Y-56688685D01*
X134538347Y-56688685D02*
X134466918Y-56617257D01*
X134466918Y-56617257D02*
X134538347Y-56545828D01*
X134538347Y-56545828D02*
X134538347Y-56688685D01*
X163538346Y-59460828D02*
X163181203Y-60460828D01*
X163181203Y-60460828D02*
X162824060Y-59460828D01*
X161681203Y-60389400D02*
X161824060Y-60460828D01*
X161824060Y-60460828D02*
X162109775Y-60460828D01*
X162109775Y-60460828D02*
X162252632Y-60389400D01*
X162252632Y-60389400D02*
X162324060Y-60246542D01*
X162324060Y-60246542D02*
X162324060Y-59675114D01*
X162324060Y-59675114D02*
X162252632Y-59532257D01*
X162252632Y-59532257D02*
X162109775Y-59460828D01*
X162109775Y-59460828D02*
X161824060Y-59460828D01*
X161824060Y-59460828D02*
X161681203Y-59532257D01*
X161681203Y-59532257D02*
X161609775Y-59675114D01*
X161609775Y-59675114D02*
X161609775Y-59817971D01*
X161609775Y-59817971D02*
X162324060Y-59960828D01*
X160966918Y-60460828D02*
X160966918Y-59460828D01*
X160966918Y-59746542D02*
X160895489Y-59603685D01*
X160895489Y-59603685D02*
X160824061Y-59532257D01*
X160824061Y-59532257D02*
X160681203Y-59460828D01*
X160681203Y-59460828D02*
X160538346Y-59460828D01*
X160038347Y-60317971D02*
X159966918Y-60389400D01*
X159966918Y-60389400D02*
X160038347Y-60460828D01*
X160038347Y-60460828D02*
X160109775Y-60389400D01*
X160109775Y-60389400D02*
X160038347Y-60317971D01*
X160038347Y-60317971D02*
X160038347Y-60460828D01*
X158538346Y-60460828D02*
X159395489Y-60460828D01*
X158966918Y-60460828D02*
X158966918Y-58960828D01*
X158966918Y-58960828D02*
X159109775Y-59175114D01*
X159109775Y-59175114D02*
X159252632Y-59317971D01*
X159252632Y-59317971D02*
X159395489Y-59389400D01*
X157895490Y-60317971D02*
X157824061Y-60389400D01*
X157824061Y-60389400D02*
X157895490Y-60460828D01*
X157895490Y-60460828D02*
X157966918Y-60389400D01*
X157966918Y-60389400D02*
X157895490Y-60317971D01*
X157895490Y-60317971D02*
X157895490Y-60460828D01*
X156895489Y-58960828D02*
X156752632Y-58960828D01*
X156752632Y-58960828D02*
X156609775Y-59032257D01*
X156609775Y-59032257D02*
X156538347Y-59103685D01*
X156538347Y-59103685D02*
X156466918Y-59246542D01*
X156466918Y-59246542D02*
X156395489Y-59532257D01*
X156395489Y-59532257D02*
X156395489Y-59889400D01*
X156395489Y-59889400D02*
X156466918Y-60175114D01*
X156466918Y-60175114D02*
X156538347Y-60317971D01*
X156538347Y-60317971D02*
X156609775Y-60389400D01*
X156609775Y-60389400D02*
X156752632Y-60460828D01*
X156752632Y-60460828D02*
X156895489Y-60460828D01*
X156895489Y-60460828D02*
X157038347Y-60389400D01*
X157038347Y-60389400D02*
X157109775Y-60317971D01*
X157109775Y-60317971D02*
X157181204Y-60175114D01*
X157181204Y-60175114D02*
X157252632Y-59889400D01*
X157252632Y-59889400D02*
X157252632Y-59532257D01*
X157252632Y-59532257D02*
X157181204Y-59246542D01*
X157181204Y-59246542D02*
X157109775Y-59103685D01*
X157109775Y-59103685D02*
X157038347Y-59032257D01*
X157038347Y-59032257D02*
X156895489Y-58960828D01*
X153966919Y-60460828D02*
X153966919Y-58960828D01*
X153966919Y-60389400D02*
X154109776Y-60460828D01*
X154109776Y-60460828D02*
X154395490Y-60460828D01*
X154395490Y-60460828D02*
X154538347Y-60389400D01*
X154538347Y-60389400D02*
X154609776Y-60317971D01*
X154609776Y-60317971D02*
X154681204Y-60175114D01*
X154681204Y-60175114D02*
X154681204Y-59746542D01*
X154681204Y-59746542D02*
X154609776Y-59603685D01*
X154609776Y-59603685D02*
X154538347Y-59532257D01*
X154538347Y-59532257D02*
X154395490Y-59460828D01*
X154395490Y-59460828D02*
X154109776Y-59460828D01*
X154109776Y-59460828D02*
X153966919Y-59532257D01*
X152609776Y-60460828D02*
X152609776Y-59675114D01*
X152609776Y-59675114D02*
X152681204Y-59532257D01*
X152681204Y-59532257D02*
X152824061Y-59460828D01*
X152824061Y-59460828D02*
X153109776Y-59460828D01*
X153109776Y-59460828D02*
X153252633Y-59532257D01*
X152609776Y-60389400D02*
X152752633Y-60460828D01*
X152752633Y-60460828D02*
X153109776Y-60460828D01*
X153109776Y-60460828D02*
X153252633Y-60389400D01*
X153252633Y-60389400D02*
X153324061Y-60246542D01*
X153324061Y-60246542D02*
X153324061Y-60103685D01*
X153324061Y-60103685D02*
X153252633Y-59960828D01*
X153252633Y-59960828D02*
X153109776Y-59889400D01*
X153109776Y-59889400D02*
X152752633Y-59889400D01*
X152752633Y-59889400D02*
X152609776Y-59817971D01*
X152109775Y-59460828D02*
X151538347Y-59460828D01*
X151895490Y-58960828D02*
X151895490Y-60246542D01*
X151895490Y-60246542D02*
X151824061Y-60389400D01*
X151824061Y-60389400D02*
X151681204Y-60460828D01*
X151681204Y-60460828D02*
X151538347Y-60460828D01*
X150395490Y-60460828D02*
X150395490Y-59675114D01*
X150395490Y-59675114D02*
X150466918Y-59532257D01*
X150466918Y-59532257D02*
X150609775Y-59460828D01*
X150609775Y-59460828D02*
X150895490Y-59460828D01*
X150895490Y-59460828D02*
X151038347Y-59532257D01*
X150395490Y-60389400D02*
X150538347Y-60460828D01*
X150538347Y-60460828D02*
X150895490Y-60460828D01*
X150895490Y-60460828D02*
X151038347Y-60389400D01*
X151038347Y-60389400D02*
X151109775Y-60246542D01*
X151109775Y-60246542D02*
X151109775Y-60103685D01*
X151109775Y-60103685D02*
X151038347Y-59960828D01*
X151038347Y-59960828D02*
X150895490Y-59889400D01*
X150895490Y-59889400D02*
X150538347Y-59889400D01*
X150538347Y-59889400D02*
X150395490Y-59817971D01*
X149752632Y-59103685D02*
X149681204Y-59032257D01*
X149681204Y-59032257D02*
X149538347Y-58960828D01*
X149538347Y-58960828D02*
X149181204Y-58960828D01*
X149181204Y-58960828D02*
X149038347Y-59032257D01*
X149038347Y-59032257D02*
X148966918Y-59103685D01*
X148966918Y-59103685D02*
X148895489Y-59246542D01*
X148895489Y-59246542D02*
X148895489Y-59389400D01*
X148895489Y-59389400D02*
X148966918Y-59603685D01*
X148966918Y-59603685D02*
X149824061Y-60460828D01*
X149824061Y-60460828D02*
X148895489Y-60460828D01*
X147966918Y-58960828D02*
X147824061Y-58960828D01*
X147824061Y-58960828D02*
X147681204Y-59032257D01*
X147681204Y-59032257D02*
X147609776Y-59103685D01*
X147609776Y-59103685D02*
X147538347Y-59246542D01*
X147538347Y-59246542D02*
X147466918Y-59532257D01*
X147466918Y-59532257D02*
X147466918Y-59889400D01*
X147466918Y-59889400D02*
X147538347Y-60175114D01*
X147538347Y-60175114D02*
X147609776Y-60317971D01*
X147609776Y-60317971D02*
X147681204Y-60389400D01*
X147681204Y-60389400D02*
X147824061Y-60460828D01*
X147824061Y-60460828D02*
X147966918Y-60460828D01*
X147966918Y-60460828D02*
X148109776Y-60389400D01*
X148109776Y-60389400D02*
X148181204Y-60317971D01*
X148181204Y-60317971D02*
X148252633Y-60175114D01*
X148252633Y-60175114D02*
X148324061Y-59889400D01*
X148324061Y-59889400D02*
X148324061Y-59532257D01*
X148324061Y-59532257D02*
X148252633Y-59246542D01*
X148252633Y-59246542D02*
X148181204Y-59103685D01*
X148181204Y-59103685D02*
X148109776Y-59032257D01*
X148109776Y-59032257D02*
X147966918Y-58960828D01*
X146895490Y-59103685D02*
X146824062Y-59032257D01*
X146824062Y-59032257D02*
X146681205Y-58960828D01*
X146681205Y-58960828D02*
X146324062Y-58960828D01*
X146324062Y-58960828D02*
X146181205Y-59032257D01*
X146181205Y-59032257D02*
X146109776Y-59103685D01*
X146109776Y-59103685D02*
X146038347Y-59246542D01*
X146038347Y-59246542D02*
X146038347Y-59389400D01*
X146038347Y-59389400D02*
X146109776Y-59603685D01*
X146109776Y-59603685D02*
X146966919Y-60460828D01*
X146966919Y-60460828D02*
X146038347Y-60460828D01*
X144752634Y-59460828D02*
X144752634Y-60460828D01*
X145109776Y-58889400D02*
X145466919Y-59960828D01*
X145466919Y-59960828D02*
X144538348Y-59960828D01*
X143681205Y-58960828D02*
X143538348Y-58960828D01*
X143538348Y-58960828D02*
X143395491Y-59032257D01*
X143395491Y-59032257D02*
X143324063Y-59103685D01*
X143324063Y-59103685D02*
X143252634Y-59246542D01*
X143252634Y-59246542D02*
X143181205Y-59532257D01*
X143181205Y-59532257D02*
X143181205Y-59889400D01*
X143181205Y-59889400D02*
X143252634Y-60175114D01*
X143252634Y-60175114D02*
X143324063Y-60317971D01*
X143324063Y-60317971D02*
X143395491Y-60389400D01*
X143395491Y-60389400D02*
X143538348Y-60460828D01*
X143538348Y-60460828D02*
X143681205Y-60460828D01*
X143681205Y-60460828D02*
X143824063Y-60389400D01*
X143824063Y-60389400D02*
X143895491Y-60317971D01*
X143895491Y-60317971D02*
X143966920Y-60175114D01*
X143966920Y-60175114D02*
X144038348Y-59889400D01*
X144038348Y-59889400D02*
X144038348Y-59532257D01*
X144038348Y-59532257D02*
X143966920Y-59246542D01*
X143966920Y-59246542D02*
X143895491Y-59103685D01*
X143895491Y-59103685D02*
X143824063Y-59032257D01*
X143824063Y-59032257D02*
X143681205Y-58960828D01*
X142681206Y-58960828D02*
X141681206Y-58960828D01*
X141681206Y-58960828D02*
X142324063Y-60460828D01*
X140324063Y-60460828D02*
X141181206Y-60460828D01*
X140752635Y-60460828D02*
X140752635Y-58960828D01*
X140752635Y-58960828D02*
X140895492Y-59175114D01*
X140895492Y-59175114D02*
X141038349Y-59317971D01*
X141038349Y-59317971D02*
X141181206Y-59389400D01*
X139038350Y-59460828D02*
X139038350Y-60460828D01*
X139395492Y-58889400D02*
X139752635Y-59960828D01*
X139752635Y-59960828D02*
X138824064Y-59960828D01*
D11*
X1594819Y-18628095D02*
X2404342Y-18628095D01*
X2404342Y-18628095D02*
X2499580Y-18675714D01*
X2499580Y-18675714D02*
X2547200Y-18723333D01*
X2547200Y-18723333D02*
X2594819Y-18818571D01*
X2594819Y-18818571D02*
X2594819Y-19009047D01*
X2594819Y-19009047D02*
X2547200Y-19104285D01*
X2547200Y-19104285D02*
X2499580Y-19151904D01*
X2499580Y-19151904D02*
X2404342Y-19199523D01*
X2404342Y-19199523D02*
X1594819Y-19199523D01*
X2594819Y-20199523D02*
X2594819Y-19628095D01*
X2594819Y-19913809D02*
X1594819Y-19913809D01*
X1594819Y-19913809D02*
X1737676Y-19818571D01*
X1737676Y-19818571D02*
X1832914Y-19723333D01*
X1832914Y-19723333D02*
X1880533Y-19628095D01*
X4172438Y-7399523D02*
X4124819Y-7304285D01*
X4124819Y-7304285D02*
X4124819Y-7161428D01*
X4124819Y-7161428D02*
X4172438Y-7018571D01*
X4172438Y-7018571D02*
X4267676Y-6923333D01*
X4267676Y-6923333D02*
X4362914Y-6875714D01*
X4362914Y-6875714D02*
X4553390Y-6828095D01*
X4553390Y-6828095D02*
X4696247Y-6828095D01*
X4696247Y-6828095D02*
X4886723Y-6875714D01*
X4886723Y-6875714D02*
X4981961Y-6923333D01*
X4981961Y-6923333D02*
X5077200Y-7018571D01*
X5077200Y-7018571D02*
X5124819Y-7161428D01*
X5124819Y-7161428D02*
X5124819Y-7256666D01*
X5124819Y-7256666D02*
X5077200Y-7399523D01*
X5077200Y-7399523D02*
X5029580Y-7447142D01*
X5029580Y-7447142D02*
X4696247Y-7447142D01*
X4696247Y-7447142D02*
X4696247Y-7256666D01*
X5124819Y-7875714D02*
X4124819Y-7875714D01*
X4124819Y-7875714D02*
X4124819Y-8256666D01*
X4124819Y-8256666D02*
X4172438Y-8351904D01*
X4172438Y-8351904D02*
X4220057Y-8399523D01*
X4220057Y-8399523D02*
X4315295Y-8447142D01*
X4315295Y-8447142D02*
X4458152Y-8447142D01*
X4458152Y-8447142D02*
X4553390Y-8399523D01*
X4553390Y-8399523D02*
X4601009Y-8351904D01*
X4601009Y-8351904D02*
X4648628Y-8256666D01*
X4648628Y-8256666D02*
X4648628Y-7875714D01*
X4220057Y-8828095D02*
X4172438Y-8875714D01*
X4172438Y-8875714D02*
X4124819Y-8970952D01*
X4124819Y-8970952D02*
X4124819Y-9209047D01*
X4124819Y-9209047D02*
X4172438Y-9304285D01*
X4172438Y-9304285D02*
X4220057Y-9351904D01*
X4220057Y-9351904D02*
X4315295Y-9399523D01*
X4315295Y-9399523D02*
X4410533Y-9399523D01*
X4410533Y-9399523D02*
X4553390Y-9351904D01*
X4553390Y-9351904D02*
X5124819Y-8780476D01*
X5124819Y-8780476D02*
X5124819Y-9399523D01*
X4124819Y-9732857D02*
X4124819Y-10399523D01*
X4124819Y-10399523D02*
X5124819Y-9970952D01*
X4172438Y-28195714D02*
X4124819Y-28100476D01*
X4124819Y-28100476D02*
X4124819Y-27957619D01*
X4124819Y-27957619D02*
X4172438Y-27814762D01*
X4172438Y-27814762D02*
X4267676Y-27719524D01*
X4267676Y-27719524D02*
X4362914Y-27671905D01*
X4362914Y-27671905D02*
X4553390Y-27624286D01*
X4553390Y-27624286D02*
X4696247Y-27624286D01*
X4696247Y-27624286D02*
X4886723Y-27671905D01*
X4886723Y-27671905D02*
X4981961Y-27719524D01*
X4981961Y-27719524D02*
X5077200Y-27814762D01*
X5077200Y-27814762D02*
X5124819Y-27957619D01*
X5124819Y-27957619D02*
X5124819Y-28052857D01*
X5124819Y-28052857D02*
X5077200Y-28195714D01*
X5077200Y-28195714D02*
X5029580Y-28243333D01*
X5029580Y-28243333D02*
X4696247Y-28243333D01*
X4696247Y-28243333D02*
X4696247Y-28052857D01*
X5124819Y-28671905D02*
X4124819Y-28671905D01*
X4124819Y-28671905D02*
X4124819Y-29052857D01*
X4124819Y-29052857D02*
X4172438Y-29148095D01*
X4172438Y-29148095D02*
X4220057Y-29195714D01*
X4220057Y-29195714D02*
X4315295Y-29243333D01*
X4315295Y-29243333D02*
X4458152Y-29243333D01*
X4458152Y-29243333D02*
X4553390Y-29195714D01*
X4553390Y-29195714D02*
X4601009Y-29148095D01*
X4601009Y-29148095D02*
X4648628Y-29052857D01*
X4648628Y-29052857D02*
X4648628Y-28671905D01*
X4124819Y-30148095D02*
X4124819Y-29671905D01*
X4124819Y-29671905D02*
X4601009Y-29624286D01*
X4601009Y-29624286D02*
X4553390Y-29671905D01*
X4553390Y-29671905D02*
X4505771Y-29767143D01*
X4505771Y-29767143D02*
X4505771Y-30005238D01*
X4505771Y-30005238D02*
X4553390Y-30100476D01*
X4553390Y-30100476D02*
X4601009Y-30148095D01*
X4601009Y-30148095D02*
X4696247Y-30195714D01*
X4696247Y-30195714D02*
X4934342Y-30195714D01*
X4934342Y-30195714D02*
X5029580Y-30148095D01*
X5029580Y-30148095D02*
X5077200Y-30100476D01*
X5077200Y-30100476D02*
X5124819Y-30005238D01*
X5124819Y-30005238D02*
X5124819Y-29767143D01*
X5124819Y-29767143D02*
X5077200Y-29671905D01*
X5077200Y-29671905D02*
X5029580Y-29624286D01*
X16020476Y-13172438D02*
X16115714Y-13124819D01*
X16115714Y-13124819D02*
X16258571Y-13124819D01*
X16258571Y-13124819D02*
X16401428Y-13172438D01*
X16401428Y-13172438D02*
X16496666Y-13267676D01*
X16496666Y-13267676D02*
X16544285Y-13362914D01*
X16544285Y-13362914D02*
X16591904Y-13553390D01*
X16591904Y-13553390D02*
X16591904Y-13696247D01*
X16591904Y-13696247D02*
X16544285Y-13886723D01*
X16544285Y-13886723D02*
X16496666Y-13981961D01*
X16496666Y-13981961D02*
X16401428Y-14077200D01*
X16401428Y-14077200D02*
X16258571Y-14124819D01*
X16258571Y-14124819D02*
X16163333Y-14124819D01*
X16163333Y-14124819D02*
X16020476Y-14077200D01*
X16020476Y-14077200D02*
X15972857Y-14029580D01*
X15972857Y-14029580D02*
X15972857Y-13696247D01*
X15972857Y-13696247D02*
X16163333Y-13696247D01*
X15544285Y-14124819D02*
X15544285Y-13124819D01*
X15544285Y-13124819D02*
X15163333Y-13124819D01*
X15163333Y-13124819D02*
X15068095Y-13172438D01*
X15068095Y-13172438D02*
X15020476Y-13220057D01*
X15020476Y-13220057D02*
X14972857Y-13315295D01*
X14972857Y-13315295D02*
X14972857Y-13458152D01*
X14972857Y-13458152D02*
X15020476Y-13553390D01*
X15020476Y-13553390D02*
X15068095Y-13601009D01*
X15068095Y-13601009D02*
X15163333Y-13648628D01*
X15163333Y-13648628D02*
X15544285Y-13648628D01*
X14020476Y-14124819D02*
X14591904Y-14124819D01*
X14306190Y-14124819D02*
X14306190Y-13124819D01*
X14306190Y-13124819D02*
X14401428Y-13267676D01*
X14401428Y-13267676D02*
X14496666Y-13362914D01*
X14496666Y-13362914D02*
X14591904Y-13410533D01*
X13687142Y-13124819D02*
X13068095Y-13124819D01*
X13068095Y-13124819D02*
X13401428Y-13505771D01*
X13401428Y-13505771D02*
X13258571Y-13505771D01*
X13258571Y-13505771D02*
X13163333Y-13553390D01*
X13163333Y-13553390D02*
X13115714Y-13601009D01*
X13115714Y-13601009D02*
X13068095Y-13696247D01*
X13068095Y-13696247D02*
X13068095Y-13934342D01*
X13068095Y-13934342D02*
X13115714Y-14029580D01*
X13115714Y-14029580D02*
X13163333Y-14077200D01*
X13163333Y-14077200D02*
X13258571Y-14124819D01*
X13258571Y-14124819D02*
X13544285Y-14124819D01*
X13544285Y-14124819D02*
X13639523Y-14077200D01*
X13639523Y-14077200D02*
X13687142Y-14029580D01*
X-907561Y-28195714D02*
X-955180Y-28100476D01*
X-955180Y-28100476D02*
X-955180Y-27957619D01*
X-955180Y-27957619D02*
X-907561Y-27814762D01*
X-907561Y-27814762D02*
X-812323Y-27719524D01*
X-812323Y-27719524D02*
X-717085Y-27671905D01*
X-717085Y-27671905D02*
X-526609Y-27624286D01*
X-526609Y-27624286D02*
X-383752Y-27624286D01*
X-383752Y-27624286D02*
X-193276Y-27671905D01*
X-193276Y-27671905D02*
X-98038Y-27719524D01*
X-98038Y-27719524D02*
X-2800Y-27814762D01*
X-2800Y-27814762D02*
X44819Y-27957619D01*
X44819Y-27957619D02*
X44819Y-28052857D01*
X44819Y-28052857D02*
X-2800Y-28195714D01*
X-2800Y-28195714D02*
X-50419Y-28243333D01*
X-50419Y-28243333D02*
X-383752Y-28243333D01*
X-383752Y-28243333D02*
X-383752Y-28052857D01*
X44819Y-28671905D02*
X-955180Y-28671905D01*
X-955180Y-28671905D02*
X-955180Y-29052857D01*
X-955180Y-29052857D02*
X-907561Y-29148095D01*
X-907561Y-29148095D02*
X-859942Y-29195714D01*
X-859942Y-29195714D02*
X-764704Y-29243333D01*
X-764704Y-29243333D02*
X-621847Y-29243333D01*
X-621847Y-29243333D02*
X-526609Y-29195714D01*
X-526609Y-29195714D02*
X-478990Y-29148095D01*
X-478990Y-29148095D02*
X-431371Y-29052857D01*
X-431371Y-29052857D02*
X-431371Y-28671905D01*
X-955180Y-29576667D02*
X-955180Y-30195714D01*
X-955180Y-30195714D02*
X-574228Y-29862381D01*
X-574228Y-29862381D02*
X-574228Y-30005238D01*
X-574228Y-30005238D02*
X-526609Y-30100476D01*
X-526609Y-30100476D02*
X-478990Y-30148095D01*
X-478990Y-30148095D02*
X-383752Y-30195714D01*
X-383752Y-30195714D02*
X-145657Y-30195714D01*
X-145657Y-30195714D02*
X-50419Y-30148095D01*
X-50419Y-30148095D02*
X-2800Y-30100476D01*
X-2800Y-30100476D02*
X44819Y-30005238D01*
X44819Y-30005238D02*
X44819Y-29719524D01*
X44819Y-29719524D02*
X-2800Y-29624286D01*
X-2800Y-29624286D02*
X-50419Y-29576667D01*
X-907561Y-7399523D02*
X-955180Y-7304285D01*
X-955180Y-7304285D02*
X-955180Y-7161428D01*
X-955180Y-7161428D02*
X-907561Y-7018571D01*
X-907561Y-7018571D02*
X-812323Y-6923333D01*
X-812323Y-6923333D02*
X-717085Y-6875714D01*
X-717085Y-6875714D02*
X-526609Y-6828095D01*
X-526609Y-6828095D02*
X-383752Y-6828095D01*
X-383752Y-6828095D02*
X-193276Y-6875714D01*
X-193276Y-6875714D02*
X-98038Y-6923333D01*
X-98038Y-6923333D02*
X-2800Y-7018571D01*
X-2800Y-7018571D02*
X44819Y-7161428D01*
X44819Y-7161428D02*
X44819Y-7256666D01*
X44819Y-7256666D02*
X-2800Y-7399523D01*
X-2800Y-7399523D02*
X-50419Y-7447142D01*
X-50419Y-7447142D02*
X-383752Y-7447142D01*
X-383752Y-7447142D02*
X-383752Y-7256666D01*
X44819Y-7875714D02*
X-955180Y-7875714D01*
X-955180Y-7875714D02*
X-955180Y-8256666D01*
X-955180Y-8256666D02*
X-907561Y-8351904D01*
X-907561Y-8351904D02*
X-859942Y-8399523D01*
X-859942Y-8399523D02*
X-764704Y-8447142D01*
X-764704Y-8447142D02*
X-621847Y-8447142D01*
X-621847Y-8447142D02*
X-526609Y-8399523D01*
X-526609Y-8399523D02*
X-478990Y-8351904D01*
X-478990Y-8351904D02*
X-431371Y-8256666D01*
X-431371Y-8256666D02*
X-431371Y-7875714D01*
X-859942Y-8828095D02*
X-907561Y-8875714D01*
X-907561Y-8875714D02*
X-955180Y-8970952D01*
X-955180Y-8970952D02*
X-955180Y-9209047D01*
X-955180Y-9209047D02*
X-907561Y-9304285D01*
X-907561Y-9304285D02*
X-859942Y-9351904D01*
X-859942Y-9351904D02*
X-764704Y-9399523D01*
X-764704Y-9399523D02*
X-669466Y-9399523D01*
X-669466Y-9399523D02*
X-526609Y-9351904D01*
X-526609Y-9351904D02*
X44819Y-8780476D01*
X44819Y-8780476D02*
X44819Y-9399523D01*
X44819Y-9875714D02*
X44819Y-10066190D01*
X44819Y-10066190D02*
X-2800Y-10161428D01*
X-2800Y-10161428D02*
X-50419Y-10209047D01*
X-50419Y-10209047D02*
X-193276Y-10304285D01*
X-193276Y-10304285D02*
X-383752Y-10351904D01*
X-383752Y-10351904D02*
X-764704Y-10351904D01*
X-764704Y-10351904D02*
X-859942Y-10304285D01*
X-859942Y-10304285D02*
X-907561Y-10256666D01*
X-907561Y-10256666D02*
X-955180Y-10161428D01*
X-955180Y-10161428D02*
X-955180Y-9970952D01*
X-955180Y-9970952D02*
X-907561Y-9875714D01*
X-907561Y-9875714D02*
X-859942Y-9828095D01*
X-859942Y-9828095D02*
X-764704Y-9780476D01*
X-764704Y-9780476D02*
X-526609Y-9780476D01*
X-526609Y-9780476D02*
X-431371Y-9828095D01*
X-431371Y-9828095D02*
X-383752Y-9875714D01*
X-383752Y-9875714D02*
X-336133Y-9970952D01*
X-336133Y-9970952D02*
X-336133Y-10161428D01*
X-336133Y-10161428D02*
X-383752Y-10256666D01*
X-383752Y-10256666D02*
X-431371Y-10304285D01*
X-431371Y-10304285D02*
X-526609Y-10351904D01*
X11792438Y-7399523D02*
X11744819Y-7304285D01*
X11744819Y-7304285D02*
X11744819Y-7161428D01*
X11744819Y-7161428D02*
X11792438Y-7018571D01*
X11792438Y-7018571D02*
X11887676Y-6923333D01*
X11887676Y-6923333D02*
X11982914Y-6875714D01*
X11982914Y-6875714D02*
X12173390Y-6828095D01*
X12173390Y-6828095D02*
X12316247Y-6828095D01*
X12316247Y-6828095D02*
X12506723Y-6875714D01*
X12506723Y-6875714D02*
X12601961Y-6923333D01*
X12601961Y-6923333D02*
X12697200Y-7018571D01*
X12697200Y-7018571D02*
X12744819Y-7161428D01*
X12744819Y-7161428D02*
X12744819Y-7256666D01*
X12744819Y-7256666D02*
X12697200Y-7399523D01*
X12697200Y-7399523D02*
X12649580Y-7447142D01*
X12649580Y-7447142D02*
X12316247Y-7447142D01*
X12316247Y-7447142D02*
X12316247Y-7256666D01*
X12744819Y-7875714D02*
X11744819Y-7875714D01*
X11744819Y-7875714D02*
X11744819Y-8256666D01*
X11744819Y-8256666D02*
X11792438Y-8351904D01*
X11792438Y-8351904D02*
X11840057Y-8399523D01*
X11840057Y-8399523D02*
X11935295Y-8447142D01*
X11935295Y-8447142D02*
X12078152Y-8447142D01*
X12078152Y-8447142D02*
X12173390Y-8399523D01*
X12173390Y-8399523D02*
X12221009Y-8351904D01*
X12221009Y-8351904D02*
X12268628Y-8256666D01*
X12268628Y-8256666D02*
X12268628Y-7875714D01*
X12744819Y-9399523D02*
X12744819Y-8828095D01*
X12744819Y-9113809D02*
X11744819Y-9113809D01*
X11744819Y-9113809D02*
X11887676Y-9018571D01*
X11887676Y-9018571D02*
X11982914Y-8923333D01*
X11982914Y-8923333D02*
X12030533Y-8828095D01*
X12078152Y-10256666D02*
X12744819Y-10256666D01*
X11697200Y-10018571D02*
X12411485Y-9780476D01*
X12411485Y-9780476D02*
X12411485Y-10399523D01*
X-8575180Y-8399523D02*
X-8575180Y-7923333D01*
X-8575180Y-7923333D02*
X-8098990Y-7875714D01*
X-8098990Y-7875714D02*
X-8146609Y-7923333D01*
X-8146609Y-7923333D02*
X-8194228Y-8018571D01*
X-8194228Y-8018571D02*
X-8194228Y-8256666D01*
X-8194228Y-8256666D02*
X-8146609Y-8351904D01*
X-8146609Y-8351904D02*
X-8098990Y-8399523D01*
X-8098990Y-8399523D02*
X-8003752Y-8447142D01*
X-8003752Y-8447142D02*
X-7765657Y-8447142D01*
X-7765657Y-8447142D02*
X-7670419Y-8399523D01*
X-7670419Y-8399523D02*
X-7622800Y-8351904D01*
X-7622800Y-8351904D02*
X-7575180Y-8256666D01*
X-7575180Y-8256666D02*
X-7575180Y-8018571D01*
X-7575180Y-8018571D02*
X-7622800Y-7923333D01*
X-7622800Y-7923333D02*
X-7670419Y-7875714D01*
X-8575180Y-8732857D02*
X-7575180Y-9066190D01*
X-7575180Y-9066190D02*
X-8575180Y-9399523D01*
X-5987561Y-7828095D02*
X-6035180Y-7732857D01*
X-6035180Y-7732857D02*
X-6035180Y-7590000D01*
X-6035180Y-7590000D02*
X-5987561Y-7447143D01*
X-5987561Y-7447143D02*
X-5892323Y-7351905D01*
X-5892323Y-7351905D02*
X-5797085Y-7304286D01*
X-5797085Y-7304286D02*
X-5606609Y-7256667D01*
X-5606609Y-7256667D02*
X-5463752Y-7256667D01*
X-5463752Y-7256667D02*
X-5273276Y-7304286D01*
X-5273276Y-7304286D02*
X-5178038Y-7351905D01*
X-5178038Y-7351905D02*
X-5082800Y-7447143D01*
X-5082800Y-7447143D02*
X-5035180Y-7590000D01*
X-5035180Y-7590000D02*
X-5035180Y-7685238D01*
X-5035180Y-7685238D02*
X-5082800Y-7828095D01*
X-5082800Y-7828095D02*
X-5130419Y-7875714D01*
X-5130419Y-7875714D02*
X-5463752Y-7875714D01*
X-5463752Y-7875714D02*
X-5463752Y-7685238D01*
X-5035180Y-8304286D02*
X-6035180Y-8304286D01*
X-6035180Y-8304286D02*
X-5035180Y-8875714D01*
X-5035180Y-8875714D02*
X-6035180Y-8875714D01*
X-5035180Y-9351905D02*
X-6035180Y-9351905D01*
X-6035180Y-9351905D02*
X-6035180Y-9590000D01*
X-6035180Y-9590000D02*
X-5987561Y-9732857D01*
X-5987561Y-9732857D02*
X-5892323Y-9828095D01*
X-5892323Y-9828095D02*
X-5797085Y-9875714D01*
X-5797085Y-9875714D02*
X-5606609Y-9923333D01*
X-5606609Y-9923333D02*
X-5463752Y-9923333D01*
X-5463752Y-9923333D02*
X-5273276Y-9875714D01*
X-5273276Y-9875714D02*
X-5178038Y-9828095D01*
X-5178038Y-9828095D02*
X-5082800Y-9732857D01*
X-5082800Y-9732857D02*
X-5035180Y-9590000D01*
X-5035180Y-9590000D02*
X-5035180Y-9351905D01*
X-8527561Y-28195714D02*
X-8575180Y-28100476D01*
X-8575180Y-28100476D02*
X-8575180Y-27957619D01*
X-8575180Y-27957619D02*
X-8527561Y-27814762D01*
X-8527561Y-27814762D02*
X-8432323Y-27719524D01*
X-8432323Y-27719524D02*
X-8337085Y-27671905D01*
X-8337085Y-27671905D02*
X-8146609Y-27624286D01*
X-8146609Y-27624286D02*
X-8003752Y-27624286D01*
X-8003752Y-27624286D02*
X-7813276Y-27671905D01*
X-7813276Y-27671905D02*
X-7718038Y-27719524D01*
X-7718038Y-27719524D02*
X-7622800Y-27814762D01*
X-7622800Y-27814762D02*
X-7575180Y-27957619D01*
X-7575180Y-27957619D02*
X-7575180Y-28052857D01*
X-7575180Y-28052857D02*
X-7622800Y-28195714D01*
X-7622800Y-28195714D02*
X-7670419Y-28243333D01*
X-7670419Y-28243333D02*
X-8003752Y-28243333D01*
X-8003752Y-28243333D02*
X-8003752Y-28052857D01*
X-7575180Y-28671905D02*
X-8575180Y-28671905D01*
X-8575180Y-28671905D02*
X-8575180Y-29052857D01*
X-8575180Y-29052857D02*
X-8527561Y-29148095D01*
X-8527561Y-29148095D02*
X-8479942Y-29195714D01*
X-8479942Y-29195714D02*
X-8384704Y-29243333D01*
X-8384704Y-29243333D02*
X-8241847Y-29243333D01*
X-8241847Y-29243333D02*
X-8146609Y-29195714D01*
X-8146609Y-29195714D02*
X-8098990Y-29148095D01*
X-8098990Y-29148095D02*
X-8051371Y-29052857D01*
X-8051371Y-29052857D02*
X-8051371Y-28671905D01*
X-8575180Y-29862381D02*
X-8575180Y-29957619D01*
X-8575180Y-29957619D02*
X-8527561Y-30052857D01*
X-8527561Y-30052857D02*
X-8479942Y-30100476D01*
X-8479942Y-30100476D02*
X-8384704Y-30148095D01*
X-8384704Y-30148095D02*
X-8194228Y-30195714D01*
X-8194228Y-30195714D02*
X-7956133Y-30195714D01*
X-7956133Y-30195714D02*
X-7765657Y-30148095D01*
X-7765657Y-30148095D02*
X-7670419Y-30100476D01*
X-7670419Y-30100476D02*
X-7622800Y-30052857D01*
X-7622800Y-30052857D02*
X-7575180Y-29957619D01*
X-7575180Y-29957619D02*
X-7575180Y-29862381D01*
X-7575180Y-29862381D02*
X-7622800Y-29767143D01*
X-7622800Y-29767143D02*
X-7670419Y-29719524D01*
X-7670419Y-29719524D02*
X-7765657Y-29671905D01*
X-7765657Y-29671905D02*
X-7956133Y-29624286D01*
X-7956133Y-29624286D02*
X-8194228Y-29624286D01*
X-8194228Y-29624286D02*
X-8384704Y-29671905D01*
X-8384704Y-29671905D02*
X-8479942Y-29719524D01*
X-8479942Y-29719524D02*
X-8527561Y-29767143D01*
X-8527561Y-29767143D02*
X-8575180Y-29862381D01*
X16020476Y-20792438D02*
X16115714Y-20744819D01*
X16115714Y-20744819D02*
X16258571Y-20744819D01*
X16258571Y-20744819D02*
X16401428Y-20792438D01*
X16401428Y-20792438D02*
X16496666Y-20887676D01*
X16496666Y-20887676D02*
X16544285Y-20982914D01*
X16544285Y-20982914D02*
X16591904Y-21173390D01*
X16591904Y-21173390D02*
X16591904Y-21316247D01*
X16591904Y-21316247D02*
X16544285Y-21506723D01*
X16544285Y-21506723D02*
X16496666Y-21601961D01*
X16496666Y-21601961D02*
X16401428Y-21697200D01*
X16401428Y-21697200D02*
X16258571Y-21744819D01*
X16258571Y-21744819D02*
X16163333Y-21744819D01*
X16163333Y-21744819D02*
X16020476Y-21697200D01*
X16020476Y-21697200D02*
X15972857Y-21649580D01*
X15972857Y-21649580D02*
X15972857Y-21316247D01*
X15972857Y-21316247D02*
X16163333Y-21316247D01*
X15544285Y-21744819D02*
X15544285Y-20744819D01*
X15544285Y-20744819D02*
X15163333Y-20744819D01*
X15163333Y-20744819D02*
X15068095Y-20792438D01*
X15068095Y-20792438D02*
X15020476Y-20840057D01*
X15020476Y-20840057D02*
X14972857Y-20935295D01*
X14972857Y-20935295D02*
X14972857Y-21078152D01*
X14972857Y-21078152D02*
X15020476Y-21173390D01*
X15020476Y-21173390D02*
X15068095Y-21221009D01*
X15068095Y-21221009D02*
X15163333Y-21268628D01*
X15163333Y-21268628D02*
X15544285Y-21268628D01*
X14020476Y-21744819D02*
X14591904Y-21744819D01*
X14306190Y-21744819D02*
X14306190Y-20744819D01*
X14306190Y-20744819D02*
X14401428Y-20887676D01*
X14401428Y-20887676D02*
X14496666Y-20982914D01*
X14496666Y-20982914D02*
X14591904Y-21030533D01*
X13401428Y-20744819D02*
X13306190Y-20744819D01*
X13306190Y-20744819D02*
X13210952Y-20792438D01*
X13210952Y-20792438D02*
X13163333Y-20840057D01*
X13163333Y-20840057D02*
X13115714Y-20935295D01*
X13115714Y-20935295D02*
X13068095Y-21125771D01*
X13068095Y-21125771D02*
X13068095Y-21363866D01*
X13068095Y-21363866D02*
X13115714Y-21554342D01*
X13115714Y-21554342D02*
X13163333Y-21649580D01*
X13163333Y-21649580D02*
X13210952Y-21697200D01*
X13210952Y-21697200D02*
X13306190Y-21744819D01*
X13306190Y-21744819D02*
X13401428Y-21744819D01*
X13401428Y-21744819D02*
X13496666Y-21697200D01*
X13496666Y-21697200D02*
X13544285Y-21649580D01*
X13544285Y-21649580D02*
X13591904Y-21554342D01*
X13591904Y-21554342D02*
X13639523Y-21363866D01*
X13639523Y-21363866D02*
X13639523Y-21125771D01*
X13639523Y-21125771D02*
X13591904Y-20935295D01*
X13591904Y-20935295D02*
X13544285Y-20840057D01*
X13544285Y-20840057D02*
X13496666Y-20792438D01*
X13496666Y-20792438D02*
X13401428Y-20744819D01*
X9252438Y-28195714D02*
X9204819Y-28100476D01*
X9204819Y-28100476D02*
X9204819Y-27957619D01*
X9204819Y-27957619D02*
X9252438Y-27814762D01*
X9252438Y-27814762D02*
X9347676Y-27719524D01*
X9347676Y-27719524D02*
X9442914Y-27671905D01*
X9442914Y-27671905D02*
X9633390Y-27624286D01*
X9633390Y-27624286D02*
X9776247Y-27624286D01*
X9776247Y-27624286D02*
X9966723Y-27671905D01*
X9966723Y-27671905D02*
X10061961Y-27719524D01*
X10061961Y-27719524D02*
X10157200Y-27814762D01*
X10157200Y-27814762D02*
X10204819Y-27957619D01*
X10204819Y-27957619D02*
X10204819Y-28052857D01*
X10204819Y-28052857D02*
X10157200Y-28195714D01*
X10157200Y-28195714D02*
X10109580Y-28243333D01*
X10109580Y-28243333D02*
X9776247Y-28243333D01*
X9776247Y-28243333D02*
X9776247Y-28052857D01*
X10204819Y-28671905D02*
X9204819Y-28671905D01*
X9204819Y-28671905D02*
X9204819Y-29052857D01*
X9204819Y-29052857D02*
X9252438Y-29148095D01*
X9252438Y-29148095D02*
X9300057Y-29195714D01*
X9300057Y-29195714D02*
X9395295Y-29243333D01*
X9395295Y-29243333D02*
X9538152Y-29243333D01*
X9538152Y-29243333D02*
X9633390Y-29195714D01*
X9633390Y-29195714D02*
X9681009Y-29148095D01*
X9681009Y-29148095D02*
X9728628Y-29052857D01*
X9728628Y-29052857D02*
X9728628Y-28671905D01*
X9204819Y-29576667D02*
X9204819Y-30243333D01*
X9204819Y-30243333D02*
X10204819Y-29814762D01*
X1632438Y-28195714D02*
X1584819Y-28100476D01*
X1584819Y-28100476D02*
X1584819Y-27957619D01*
X1584819Y-27957619D02*
X1632438Y-27814762D01*
X1632438Y-27814762D02*
X1727676Y-27719524D01*
X1727676Y-27719524D02*
X1822914Y-27671905D01*
X1822914Y-27671905D02*
X2013390Y-27624286D01*
X2013390Y-27624286D02*
X2156247Y-27624286D01*
X2156247Y-27624286D02*
X2346723Y-27671905D01*
X2346723Y-27671905D02*
X2441961Y-27719524D01*
X2441961Y-27719524D02*
X2537200Y-27814762D01*
X2537200Y-27814762D02*
X2584819Y-27957619D01*
X2584819Y-27957619D02*
X2584819Y-28052857D01*
X2584819Y-28052857D02*
X2537200Y-28195714D01*
X2537200Y-28195714D02*
X2489580Y-28243333D01*
X2489580Y-28243333D02*
X2156247Y-28243333D01*
X2156247Y-28243333D02*
X2156247Y-28052857D01*
X2584819Y-28671905D02*
X1584819Y-28671905D01*
X1584819Y-28671905D02*
X1584819Y-29052857D01*
X1584819Y-29052857D02*
X1632438Y-29148095D01*
X1632438Y-29148095D02*
X1680057Y-29195714D01*
X1680057Y-29195714D02*
X1775295Y-29243333D01*
X1775295Y-29243333D02*
X1918152Y-29243333D01*
X1918152Y-29243333D02*
X2013390Y-29195714D01*
X2013390Y-29195714D02*
X2061009Y-29148095D01*
X2061009Y-29148095D02*
X2108628Y-29052857D01*
X2108628Y-29052857D02*
X2108628Y-28671905D01*
X1918152Y-30100476D02*
X2584819Y-30100476D01*
X1537200Y-29862381D02*
X2251485Y-29624286D01*
X2251485Y-29624286D02*
X2251485Y-30243333D01*
X-3495180Y-7351905D02*
X-3495180Y-7970952D01*
X-3495180Y-7970952D02*
X-3114228Y-7637619D01*
X-3114228Y-7637619D02*
X-3114228Y-7780476D01*
X-3114228Y-7780476D02*
X-3066609Y-7875714D01*
X-3066609Y-7875714D02*
X-3018990Y-7923333D01*
X-3018990Y-7923333D02*
X-2923752Y-7970952D01*
X-2923752Y-7970952D02*
X-2685657Y-7970952D01*
X-2685657Y-7970952D02*
X-2590419Y-7923333D01*
X-2590419Y-7923333D02*
X-2542800Y-7875714D01*
X-2542800Y-7875714D02*
X-2495180Y-7780476D01*
X-2495180Y-7780476D02*
X-2495180Y-7494762D01*
X-2495180Y-7494762D02*
X-2542800Y-7399524D01*
X-2542800Y-7399524D02*
X-2590419Y-7351905D01*
X-3495180Y-8256667D02*
X-2495180Y-8590000D01*
X-2495180Y-8590000D02*
X-3495180Y-8923333D01*
X-3495180Y-9161429D02*
X-3495180Y-9780476D01*
X-3495180Y-9780476D02*
X-3114228Y-9447143D01*
X-3114228Y-9447143D02*
X-3114228Y-9590000D01*
X-3114228Y-9590000D02*
X-3066609Y-9685238D01*
X-3066609Y-9685238D02*
X-3018990Y-9732857D01*
X-3018990Y-9732857D02*
X-2923752Y-9780476D01*
X-2923752Y-9780476D02*
X-2685657Y-9780476D01*
X-2685657Y-9780476D02*
X-2590419Y-9732857D01*
X-2590419Y-9732857D02*
X-2542800Y-9685238D01*
X-2542800Y-9685238D02*
X-2495180Y-9590000D01*
X-2495180Y-9590000D02*
X-2495180Y-9304286D01*
X-2495180Y-9304286D02*
X-2542800Y-9209048D01*
X-2542800Y-9209048D02*
X-2590419Y-9161429D01*
X-3447561Y-28195714D02*
X-3495180Y-28100476D01*
X-3495180Y-28100476D02*
X-3495180Y-27957619D01*
X-3495180Y-27957619D02*
X-3447561Y-27814762D01*
X-3447561Y-27814762D02*
X-3352323Y-27719524D01*
X-3352323Y-27719524D02*
X-3257085Y-27671905D01*
X-3257085Y-27671905D02*
X-3066609Y-27624286D01*
X-3066609Y-27624286D02*
X-2923752Y-27624286D01*
X-2923752Y-27624286D02*
X-2733276Y-27671905D01*
X-2733276Y-27671905D02*
X-2638038Y-27719524D01*
X-2638038Y-27719524D02*
X-2542800Y-27814762D01*
X-2542800Y-27814762D02*
X-2495180Y-27957619D01*
X-2495180Y-27957619D02*
X-2495180Y-28052857D01*
X-2495180Y-28052857D02*
X-2542800Y-28195714D01*
X-2542800Y-28195714D02*
X-2590419Y-28243333D01*
X-2590419Y-28243333D02*
X-2923752Y-28243333D01*
X-2923752Y-28243333D02*
X-2923752Y-28052857D01*
X-2495180Y-28671905D02*
X-3495180Y-28671905D01*
X-3495180Y-28671905D02*
X-3495180Y-29052857D01*
X-3495180Y-29052857D02*
X-3447561Y-29148095D01*
X-3447561Y-29148095D02*
X-3399942Y-29195714D01*
X-3399942Y-29195714D02*
X-3304704Y-29243333D01*
X-3304704Y-29243333D02*
X-3161847Y-29243333D01*
X-3161847Y-29243333D02*
X-3066609Y-29195714D01*
X-3066609Y-29195714D02*
X-3018990Y-29148095D01*
X-3018990Y-29148095D02*
X-2971371Y-29052857D01*
X-2971371Y-29052857D02*
X-2971371Y-28671905D01*
X-3399942Y-29624286D02*
X-3447561Y-29671905D01*
X-3447561Y-29671905D02*
X-3495180Y-29767143D01*
X-3495180Y-29767143D02*
X-3495180Y-30005238D01*
X-3495180Y-30005238D02*
X-3447561Y-30100476D01*
X-3447561Y-30100476D02*
X-3399942Y-30148095D01*
X-3399942Y-30148095D02*
X-3304704Y-30195714D01*
X-3304704Y-30195714D02*
X-3209466Y-30195714D01*
X-3209466Y-30195714D02*
X-3066609Y-30148095D01*
X-3066609Y-30148095D02*
X-2495180Y-29576667D01*
X-2495180Y-29576667D02*
X-2495180Y-30195714D01*
X16020476Y-15712438D02*
X16115714Y-15664819D01*
X16115714Y-15664819D02*
X16258571Y-15664819D01*
X16258571Y-15664819D02*
X16401428Y-15712438D01*
X16401428Y-15712438D02*
X16496666Y-15807676D01*
X16496666Y-15807676D02*
X16544285Y-15902914D01*
X16544285Y-15902914D02*
X16591904Y-16093390D01*
X16591904Y-16093390D02*
X16591904Y-16236247D01*
X16591904Y-16236247D02*
X16544285Y-16426723D01*
X16544285Y-16426723D02*
X16496666Y-16521961D01*
X16496666Y-16521961D02*
X16401428Y-16617200D01*
X16401428Y-16617200D02*
X16258571Y-16664819D01*
X16258571Y-16664819D02*
X16163333Y-16664819D01*
X16163333Y-16664819D02*
X16020476Y-16617200D01*
X16020476Y-16617200D02*
X15972857Y-16569580D01*
X15972857Y-16569580D02*
X15972857Y-16236247D01*
X15972857Y-16236247D02*
X16163333Y-16236247D01*
X15544285Y-16664819D02*
X15544285Y-15664819D01*
X15544285Y-15664819D02*
X15163333Y-15664819D01*
X15163333Y-15664819D02*
X15068095Y-15712438D01*
X15068095Y-15712438D02*
X15020476Y-15760057D01*
X15020476Y-15760057D02*
X14972857Y-15855295D01*
X14972857Y-15855295D02*
X14972857Y-15998152D01*
X14972857Y-15998152D02*
X15020476Y-16093390D01*
X15020476Y-16093390D02*
X15068095Y-16141009D01*
X15068095Y-16141009D02*
X15163333Y-16188628D01*
X15163333Y-16188628D02*
X15544285Y-16188628D01*
X14020476Y-16664819D02*
X14591904Y-16664819D01*
X14306190Y-16664819D02*
X14306190Y-15664819D01*
X14306190Y-15664819D02*
X14401428Y-15807676D01*
X14401428Y-15807676D02*
X14496666Y-15902914D01*
X14496666Y-15902914D02*
X14591904Y-15950533D01*
X13639523Y-15760057D02*
X13591904Y-15712438D01*
X13591904Y-15712438D02*
X13496666Y-15664819D01*
X13496666Y-15664819D02*
X13258571Y-15664819D01*
X13258571Y-15664819D02*
X13163333Y-15712438D01*
X13163333Y-15712438D02*
X13115714Y-15760057D01*
X13115714Y-15760057D02*
X13068095Y-15855295D01*
X13068095Y-15855295D02*
X13068095Y-15950533D01*
X13068095Y-15950533D02*
X13115714Y-16093390D01*
X13115714Y-16093390D02*
X13687142Y-16664819D01*
X13687142Y-16664819D02*
X13068095Y-16664819D01*
X1632438Y-7399523D02*
X1584819Y-7304285D01*
X1584819Y-7304285D02*
X1584819Y-7161428D01*
X1584819Y-7161428D02*
X1632438Y-7018571D01*
X1632438Y-7018571D02*
X1727676Y-6923333D01*
X1727676Y-6923333D02*
X1822914Y-6875714D01*
X1822914Y-6875714D02*
X2013390Y-6828095D01*
X2013390Y-6828095D02*
X2156247Y-6828095D01*
X2156247Y-6828095D02*
X2346723Y-6875714D01*
X2346723Y-6875714D02*
X2441961Y-6923333D01*
X2441961Y-6923333D02*
X2537200Y-7018571D01*
X2537200Y-7018571D02*
X2584819Y-7161428D01*
X2584819Y-7161428D02*
X2584819Y-7256666D01*
X2584819Y-7256666D02*
X2537200Y-7399523D01*
X2537200Y-7399523D02*
X2489580Y-7447142D01*
X2489580Y-7447142D02*
X2156247Y-7447142D01*
X2156247Y-7447142D02*
X2156247Y-7256666D01*
X2584819Y-7875714D02*
X1584819Y-7875714D01*
X1584819Y-7875714D02*
X1584819Y-8256666D01*
X1584819Y-8256666D02*
X1632438Y-8351904D01*
X1632438Y-8351904D02*
X1680057Y-8399523D01*
X1680057Y-8399523D02*
X1775295Y-8447142D01*
X1775295Y-8447142D02*
X1918152Y-8447142D01*
X1918152Y-8447142D02*
X2013390Y-8399523D01*
X2013390Y-8399523D02*
X2061009Y-8351904D01*
X2061009Y-8351904D02*
X2108628Y-8256666D01*
X2108628Y-8256666D02*
X2108628Y-7875714D01*
X1680057Y-8828095D02*
X1632438Y-8875714D01*
X1632438Y-8875714D02*
X1584819Y-8970952D01*
X1584819Y-8970952D02*
X1584819Y-9209047D01*
X1584819Y-9209047D02*
X1632438Y-9304285D01*
X1632438Y-9304285D02*
X1680057Y-9351904D01*
X1680057Y-9351904D02*
X1775295Y-9399523D01*
X1775295Y-9399523D02*
X1870533Y-9399523D01*
X1870533Y-9399523D02*
X2013390Y-9351904D01*
X2013390Y-9351904D02*
X2584819Y-8780476D01*
X2584819Y-8780476D02*
X2584819Y-9399523D01*
X2013390Y-9970952D02*
X1965771Y-9875714D01*
X1965771Y-9875714D02*
X1918152Y-9828095D01*
X1918152Y-9828095D02*
X1822914Y-9780476D01*
X1822914Y-9780476D02*
X1775295Y-9780476D01*
X1775295Y-9780476D02*
X1680057Y-9828095D01*
X1680057Y-9828095D02*
X1632438Y-9875714D01*
X1632438Y-9875714D02*
X1584819Y-9970952D01*
X1584819Y-9970952D02*
X1584819Y-10161428D01*
X1584819Y-10161428D02*
X1632438Y-10256666D01*
X1632438Y-10256666D02*
X1680057Y-10304285D01*
X1680057Y-10304285D02*
X1775295Y-10351904D01*
X1775295Y-10351904D02*
X1822914Y-10351904D01*
X1822914Y-10351904D02*
X1918152Y-10304285D01*
X1918152Y-10304285D02*
X1965771Y-10256666D01*
X1965771Y-10256666D02*
X2013390Y-10161428D01*
X2013390Y-10161428D02*
X2013390Y-9970952D01*
X2013390Y-9970952D02*
X2061009Y-9875714D01*
X2061009Y-9875714D02*
X2108628Y-9828095D01*
X2108628Y-9828095D02*
X2203866Y-9780476D01*
X2203866Y-9780476D02*
X2394342Y-9780476D01*
X2394342Y-9780476D02*
X2489580Y-9828095D01*
X2489580Y-9828095D02*
X2537200Y-9875714D01*
X2537200Y-9875714D02*
X2584819Y-9970952D01*
X2584819Y-9970952D02*
X2584819Y-10161428D01*
X2584819Y-10161428D02*
X2537200Y-10256666D01*
X2537200Y-10256666D02*
X2489580Y-10304285D01*
X2489580Y-10304285D02*
X2394342Y-10351904D01*
X2394342Y-10351904D02*
X2203866Y-10351904D01*
X2203866Y-10351904D02*
X2108628Y-10304285D01*
X2108628Y-10304285D02*
X2061009Y-10256666D01*
X2061009Y-10256666D02*
X2013390Y-10161428D01*
X-5987561Y-28195714D02*
X-6035180Y-28100476D01*
X-6035180Y-28100476D02*
X-6035180Y-27957619D01*
X-6035180Y-27957619D02*
X-5987561Y-27814762D01*
X-5987561Y-27814762D02*
X-5892323Y-27719524D01*
X-5892323Y-27719524D02*
X-5797085Y-27671905D01*
X-5797085Y-27671905D02*
X-5606609Y-27624286D01*
X-5606609Y-27624286D02*
X-5463752Y-27624286D01*
X-5463752Y-27624286D02*
X-5273276Y-27671905D01*
X-5273276Y-27671905D02*
X-5178038Y-27719524D01*
X-5178038Y-27719524D02*
X-5082800Y-27814762D01*
X-5082800Y-27814762D02*
X-5035180Y-27957619D01*
X-5035180Y-27957619D02*
X-5035180Y-28052857D01*
X-5035180Y-28052857D02*
X-5082800Y-28195714D01*
X-5082800Y-28195714D02*
X-5130419Y-28243333D01*
X-5130419Y-28243333D02*
X-5463752Y-28243333D01*
X-5463752Y-28243333D02*
X-5463752Y-28052857D01*
X-5035180Y-28671905D02*
X-6035180Y-28671905D01*
X-6035180Y-28671905D02*
X-6035180Y-29052857D01*
X-6035180Y-29052857D02*
X-5987561Y-29148095D01*
X-5987561Y-29148095D02*
X-5939942Y-29195714D01*
X-5939942Y-29195714D02*
X-5844704Y-29243333D01*
X-5844704Y-29243333D02*
X-5701847Y-29243333D01*
X-5701847Y-29243333D02*
X-5606609Y-29195714D01*
X-5606609Y-29195714D02*
X-5558990Y-29148095D01*
X-5558990Y-29148095D02*
X-5511371Y-29052857D01*
X-5511371Y-29052857D02*
X-5511371Y-28671905D01*
X-5035180Y-30195714D02*
X-5035180Y-29624286D01*
X-5035180Y-29910000D02*
X-6035180Y-29910000D01*
X-6035180Y-29910000D02*
X-5892323Y-29814762D01*
X-5892323Y-29814762D02*
X-5797085Y-29719524D01*
X-5797085Y-29719524D02*
X-5749466Y-29624286D01*
X16020476Y-18252438D02*
X16115714Y-18204819D01*
X16115714Y-18204819D02*
X16258571Y-18204819D01*
X16258571Y-18204819D02*
X16401428Y-18252438D01*
X16401428Y-18252438D02*
X16496666Y-18347676D01*
X16496666Y-18347676D02*
X16544285Y-18442914D01*
X16544285Y-18442914D02*
X16591904Y-18633390D01*
X16591904Y-18633390D02*
X16591904Y-18776247D01*
X16591904Y-18776247D02*
X16544285Y-18966723D01*
X16544285Y-18966723D02*
X16496666Y-19061961D01*
X16496666Y-19061961D02*
X16401428Y-19157200D01*
X16401428Y-19157200D02*
X16258571Y-19204819D01*
X16258571Y-19204819D02*
X16163333Y-19204819D01*
X16163333Y-19204819D02*
X16020476Y-19157200D01*
X16020476Y-19157200D02*
X15972857Y-19109580D01*
X15972857Y-19109580D02*
X15972857Y-18776247D01*
X15972857Y-18776247D02*
X16163333Y-18776247D01*
X15544285Y-19204819D02*
X15544285Y-18204819D01*
X15544285Y-18204819D02*
X15163333Y-18204819D01*
X15163333Y-18204819D02*
X15068095Y-18252438D01*
X15068095Y-18252438D02*
X15020476Y-18300057D01*
X15020476Y-18300057D02*
X14972857Y-18395295D01*
X14972857Y-18395295D02*
X14972857Y-18538152D01*
X14972857Y-18538152D02*
X15020476Y-18633390D01*
X15020476Y-18633390D02*
X15068095Y-18681009D01*
X15068095Y-18681009D02*
X15163333Y-18728628D01*
X15163333Y-18728628D02*
X15544285Y-18728628D01*
X14020476Y-19204819D02*
X14591904Y-19204819D01*
X14306190Y-19204819D02*
X14306190Y-18204819D01*
X14306190Y-18204819D02*
X14401428Y-18347676D01*
X14401428Y-18347676D02*
X14496666Y-18442914D01*
X14496666Y-18442914D02*
X14591904Y-18490533D01*
X13068095Y-19204819D02*
X13639523Y-19204819D01*
X13353809Y-19204819D02*
X13353809Y-18204819D01*
X13353809Y-18204819D02*
X13449047Y-18347676D01*
X13449047Y-18347676D02*
X13544285Y-18442914D01*
X13544285Y-18442914D02*
X13639523Y-18490533D01*
X6712438Y-7399523D02*
X6664819Y-7304285D01*
X6664819Y-7304285D02*
X6664819Y-7161428D01*
X6664819Y-7161428D02*
X6712438Y-7018571D01*
X6712438Y-7018571D02*
X6807676Y-6923333D01*
X6807676Y-6923333D02*
X6902914Y-6875714D01*
X6902914Y-6875714D02*
X7093390Y-6828095D01*
X7093390Y-6828095D02*
X7236247Y-6828095D01*
X7236247Y-6828095D02*
X7426723Y-6875714D01*
X7426723Y-6875714D02*
X7521961Y-6923333D01*
X7521961Y-6923333D02*
X7617200Y-7018571D01*
X7617200Y-7018571D02*
X7664819Y-7161428D01*
X7664819Y-7161428D02*
X7664819Y-7256666D01*
X7664819Y-7256666D02*
X7617200Y-7399523D01*
X7617200Y-7399523D02*
X7569580Y-7447142D01*
X7569580Y-7447142D02*
X7236247Y-7447142D01*
X7236247Y-7447142D02*
X7236247Y-7256666D01*
X7664819Y-7875714D02*
X6664819Y-7875714D01*
X6664819Y-7875714D02*
X6664819Y-8256666D01*
X6664819Y-8256666D02*
X6712438Y-8351904D01*
X6712438Y-8351904D02*
X6760057Y-8399523D01*
X6760057Y-8399523D02*
X6855295Y-8447142D01*
X6855295Y-8447142D02*
X6998152Y-8447142D01*
X6998152Y-8447142D02*
X7093390Y-8399523D01*
X7093390Y-8399523D02*
X7141009Y-8351904D01*
X7141009Y-8351904D02*
X7188628Y-8256666D01*
X7188628Y-8256666D02*
X7188628Y-7875714D01*
X6760057Y-8828095D02*
X6712438Y-8875714D01*
X6712438Y-8875714D02*
X6664819Y-8970952D01*
X6664819Y-8970952D02*
X6664819Y-9209047D01*
X6664819Y-9209047D02*
X6712438Y-9304285D01*
X6712438Y-9304285D02*
X6760057Y-9351904D01*
X6760057Y-9351904D02*
X6855295Y-9399523D01*
X6855295Y-9399523D02*
X6950533Y-9399523D01*
X6950533Y-9399523D02*
X7093390Y-9351904D01*
X7093390Y-9351904D02*
X7664819Y-8780476D01*
X7664819Y-8780476D02*
X7664819Y-9399523D01*
X6664819Y-10256666D02*
X6664819Y-10066190D01*
X6664819Y-10066190D02*
X6712438Y-9970952D01*
X6712438Y-9970952D02*
X6760057Y-9923333D01*
X6760057Y-9923333D02*
X6902914Y-9828095D01*
X6902914Y-9828095D02*
X7093390Y-9780476D01*
X7093390Y-9780476D02*
X7474342Y-9780476D01*
X7474342Y-9780476D02*
X7569580Y-9828095D01*
X7569580Y-9828095D02*
X7617200Y-9875714D01*
X7617200Y-9875714D02*
X7664819Y-9970952D01*
X7664819Y-9970952D02*
X7664819Y-10161428D01*
X7664819Y-10161428D02*
X7617200Y-10256666D01*
X7617200Y-10256666D02*
X7569580Y-10304285D01*
X7569580Y-10304285D02*
X7474342Y-10351904D01*
X7474342Y-10351904D02*
X7236247Y-10351904D01*
X7236247Y-10351904D02*
X7141009Y-10304285D01*
X7141009Y-10304285D02*
X7093390Y-10256666D01*
X7093390Y-10256666D02*
X7045771Y-10161428D01*
X7045771Y-10161428D02*
X7045771Y-9970952D01*
X7045771Y-9970952D02*
X7093390Y-9875714D01*
X7093390Y-9875714D02*
X7141009Y-9828095D01*
X7141009Y-9828095D02*
X7236247Y-9780476D01*
X6712438Y-28195714D02*
X6664819Y-28100476D01*
X6664819Y-28100476D02*
X6664819Y-27957619D01*
X6664819Y-27957619D02*
X6712438Y-27814762D01*
X6712438Y-27814762D02*
X6807676Y-27719524D01*
X6807676Y-27719524D02*
X6902914Y-27671905D01*
X6902914Y-27671905D02*
X7093390Y-27624286D01*
X7093390Y-27624286D02*
X7236247Y-27624286D01*
X7236247Y-27624286D02*
X7426723Y-27671905D01*
X7426723Y-27671905D02*
X7521961Y-27719524D01*
X7521961Y-27719524D02*
X7617200Y-27814762D01*
X7617200Y-27814762D02*
X7664819Y-27957619D01*
X7664819Y-27957619D02*
X7664819Y-28052857D01*
X7664819Y-28052857D02*
X7617200Y-28195714D01*
X7617200Y-28195714D02*
X7569580Y-28243333D01*
X7569580Y-28243333D02*
X7236247Y-28243333D01*
X7236247Y-28243333D02*
X7236247Y-28052857D01*
X7664819Y-28671905D02*
X6664819Y-28671905D01*
X6664819Y-28671905D02*
X6664819Y-29052857D01*
X6664819Y-29052857D02*
X6712438Y-29148095D01*
X6712438Y-29148095D02*
X6760057Y-29195714D01*
X6760057Y-29195714D02*
X6855295Y-29243333D01*
X6855295Y-29243333D02*
X6998152Y-29243333D01*
X6998152Y-29243333D02*
X7093390Y-29195714D01*
X7093390Y-29195714D02*
X7141009Y-29148095D01*
X7141009Y-29148095D02*
X7188628Y-29052857D01*
X7188628Y-29052857D02*
X7188628Y-28671905D01*
X6664819Y-30100476D02*
X6664819Y-29910000D01*
X6664819Y-29910000D02*
X6712438Y-29814762D01*
X6712438Y-29814762D02*
X6760057Y-29767143D01*
X6760057Y-29767143D02*
X6902914Y-29671905D01*
X6902914Y-29671905D02*
X7093390Y-29624286D01*
X7093390Y-29624286D02*
X7474342Y-29624286D01*
X7474342Y-29624286D02*
X7569580Y-29671905D01*
X7569580Y-29671905D02*
X7617200Y-29719524D01*
X7617200Y-29719524D02*
X7664819Y-29814762D01*
X7664819Y-29814762D02*
X7664819Y-30005238D01*
X7664819Y-30005238D02*
X7617200Y-30100476D01*
X7617200Y-30100476D02*
X7569580Y-30148095D01*
X7569580Y-30148095D02*
X7474342Y-30195714D01*
X7474342Y-30195714D02*
X7236247Y-30195714D01*
X7236247Y-30195714D02*
X7141009Y-30148095D01*
X7141009Y-30148095D02*
X7093390Y-30100476D01*
X7093390Y-30100476D02*
X7045771Y-30005238D01*
X7045771Y-30005238D02*
X7045771Y-29814762D01*
X7045771Y-29814762D02*
X7093390Y-29719524D01*
X7093390Y-29719524D02*
X7141009Y-29671905D01*
X7141009Y-29671905D02*
X7236247Y-29624286D01*
X11792438Y-28195714D02*
X11744819Y-28100476D01*
X11744819Y-28100476D02*
X11744819Y-27957619D01*
X11744819Y-27957619D02*
X11792438Y-27814762D01*
X11792438Y-27814762D02*
X11887676Y-27719524D01*
X11887676Y-27719524D02*
X11982914Y-27671905D01*
X11982914Y-27671905D02*
X12173390Y-27624286D01*
X12173390Y-27624286D02*
X12316247Y-27624286D01*
X12316247Y-27624286D02*
X12506723Y-27671905D01*
X12506723Y-27671905D02*
X12601961Y-27719524D01*
X12601961Y-27719524D02*
X12697200Y-27814762D01*
X12697200Y-27814762D02*
X12744819Y-27957619D01*
X12744819Y-27957619D02*
X12744819Y-28052857D01*
X12744819Y-28052857D02*
X12697200Y-28195714D01*
X12697200Y-28195714D02*
X12649580Y-28243333D01*
X12649580Y-28243333D02*
X12316247Y-28243333D01*
X12316247Y-28243333D02*
X12316247Y-28052857D01*
X12744819Y-28671905D02*
X11744819Y-28671905D01*
X11744819Y-28671905D02*
X11744819Y-29052857D01*
X11744819Y-29052857D02*
X11792438Y-29148095D01*
X11792438Y-29148095D02*
X11840057Y-29195714D01*
X11840057Y-29195714D02*
X11935295Y-29243333D01*
X11935295Y-29243333D02*
X12078152Y-29243333D01*
X12078152Y-29243333D02*
X12173390Y-29195714D01*
X12173390Y-29195714D02*
X12221009Y-29148095D01*
X12221009Y-29148095D02*
X12268628Y-29052857D01*
X12268628Y-29052857D02*
X12268628Y-28671905D01*
X12173390Y-29814762D02*
X12125771Y-29719524D01*
X12125771Y-29719524D02*
X12078152Y-29671905D01*
X12078152Y-29671905D02*
X11982914Y-29624286D01*
X11982914Y-29624286D02*
X11935295Y-29624286D01*
X11935295Y-29624286D02*
X11840057Y-29671905D01*
X11840057Y-29671905D02*
X11792438Y-29719524D01*
X11792438Y-29719524D02*
X11744819Y-29814762D01*
X11744819Y-29814762D02*
X11744819Y-30005238D01*
X11744819Y-30005238D02*
X11792438Y-30100476D01*
X11792438Y-30100476D02*
X11840057Y-30148095D01*
X11840057Y-30148095D02*
X11935295Y-30195714D01*
X11935295Y-30195714D02*
X11982914Y-30195714D01*
X11982914Y-30195714D02*
X12078152Y-30148095D01*
X12078152Y-30148095D02*
X12125771Y-30100476D01*
X12125771Y-30100476D02*
X12173390Y-30005238D01*
X12173390Y-30005238D02*
X12173390Y-29814762D01*
X12173390Y-29814762D02*
X12221009Y-29719524D01*
X12221009Y-29719524D02*
X12268628Y-29671905D01*
X12268628Y-29671905D02*
X12363866Y-29624286D01*
X12363866Y-29624286D02*
X12554342Y-29624286D01*
X12554342Y-29624286D02*
X12649580Y-29671905D01*
X12649580Y-29671905D02*
X12697200Y-29719524D01*
X12697200Y-29719524D02*
X12744819Y-29814762D01*
X12744819Y-29814762D02*
X12744819Y-30005238D01*
X12744819Y-30005238D02*
X12697200Y-30100476D01*
X12697200Y-30100476D02*
X12649580Y-30148095D01*
X12649580Y-30148095D02*
X12554342Y-30195714D01*
X12554342Y-30195714D02*
X12363866Y-30195714D01*
X12363866Y-30195714D02*
X12268628Y-30148095D01*
X12268628Y-30148095D02*
X12221009Y-30100476D01*
X12221009Y-30100476D02*
X12173390Y-30005238D01*
X15544285Y-23332438D02*
X15639523Y-23284819D01*
X15639523Y-23284819D02*
X15782380Y-23284819D01*
X15782380Y-23284819D02*
X15925237Y-23332438D01*
X15925237Y-23332438D02*
X16020475Y-23427676D01*
X16020475Y-23427676D02*
X16068094Y-23522914D01*
X16068094Y-23522914D02*
X16115713Y-23713390D01*
X16115713Y-23713390D02*
X16115713Y-23856247D01*
X16115713Y-23856247D02*
X16068094Y-24046723D01*
X16068094Y-24046723D02*
X16020475Y-24141961D01*
X16020475Y-24141961D02*
X15925237Y-24237200D01*
X15925237Y-24237200D02*
X15782380Y-24284819D01*
X15782380Y-24284819D02*
X15687142Y-24284819D01*
X15687142Y-24284819D02*
X15544285Y-24237200D01*
X15544285Y-24237200D02*
X15496666Y-24189580D01*
X15496666Y-24189580D02*
X15496666Y-23856247D01*
X15496666Y-23856247D02*
X15687142Y-23856247D01*
X15068094Y-24284819D02*
X15068094Y-23284819D01*
X15068094Y-23284819D02*
X14687142Y-23284819D01*
X14687142Y-23284819D02*
X14591904Y-23332438D01*
X14591904Y-23332438D02*
X14544285Y-23380057D01*
X14544285Y-23380057D02*
X14496666Y-23475295D01*
X14496666Y-23475295D02*
X14496666Y-23618152D01*
X14496666Y-23618152D02*
X14544285Y-23713390D01*
X14544285Y-23713390D02*
X14591904Y-23761009D01*
X14591904Y-23761009D02*
X14687142Y-23808628D01*
X14687142Y-23808628D02*
X15068094Y-23808628D01*
X14020475Y-24284819D02*
X13829999Y-24284819D01*
X13829999Y-24284819D02*
X13734761Y-24237200D01*
X13734761Y-24237200D02*
X13687142Y-24189580D01*
X13687142Y-24189580D02*
X13591904Y-24046723D01*
X13591904Y-24046723D02*
X13544285Y-23856247D01*
X13544285Y-23856247D02*
X13544285Y-23475295D01*
X13544285Y-23475295D02*
X13591904Y-23380057D01*
X13591904Y-23380057D02*
X13639523Y-23332438D01*
X13639523Y-23332438D02*
X13734761Y-23284819D01*
X13734761Y-23284819D02*
X13925237Y-23284819D01*
X13925237Y-23284819D02*
X14020475Y-23332438D01*
X14020475Y-23332438D02*
X14068094Y-23380057D01*
X14068094Y-23380057D02*
X14115713Y-23475295D01*
X14115713Y-23475295D02*
X14115713Y-23713390D01*
X14115713Y-23713390D02*
X14068094Y-23808628D01*
X14068094Y-23808628D02*
X14020475Y-23856247D01*
X14020475Y-23856247D02*
X13925237Y-23903866D01*
X13925237Y-23903866D02*
X13734761Y-23903866D01*
X13734761Y-23903866D02*
X13639523Y-23856247D01*
X13639523Y-23856247D02*
X13591904Y-23808628D01*
X13591904Y-23808628D02*
X13544285Y-23713390D01*
X9252438Y-7399523D02*
X9204819Y-7304285D01*
X9204819Y-7304285D02*
X9204819Y-7161428D01*
X9204819Y-7161428D02*
X9252438Y-7018571D01*
X9252438Y-7018571D02*
X9347676Y-6923333D01*
X9347676Y-6923333D02*
X9442914Y-6875714D01*
X9442914Y-6875714D02*
X9633390Y-6828095D01*
X9633390Y-6828095D02*
X9776247Y-6828095D01*
X9776247Y-6828095D02*
X9966723Y-6875714D01*
X9966723Y-6875714D02*
X10061961Y-6923333D01*
X10061961Y-6923333D02*
X10157200Y-7018571D01*
X10157200Y-7018571D02*
X10204819Y-7161428D01*
X10204819Y-7161428D02*
X10204819Y-7256666D01*
X10204819Y-7256666D02*
X10157200Y-7399523D01*
X10157200Y-7399523D02*
X10109580Y-7447142D01*
X10109580Y-7447142D02*
X9776247Y-7447142D01*
X9776247Y-7447142D02*
X9776247Y-7256666D01*
X10204819Y-7875714D02*
X9204819Y-7875714D01*
X9204819Y-7875714D02*
X9204819Y-8256666D01*
X9204819Y-8256666D02*
X9252438Y-8351904D01*
X9252438Y-8351904D02*
X9300057Y-8399523D01*
X9300057Y-8399523D02*
X9395295Y-8447142D01*
X9395295Y-8447142D02*
X9538152Y-8447142D01*
X9538152Y-8447142D02*
X9633390Y-8399523D01*
X9633390Y-8399523D02*
X9681009Y-8351904D01*
X9681009Y-8351904D02*
X9728628Y-8256666D01*
X9728628Y-8256666D02*
X9728628Y-7875714D01*
X10204819Y-9399523D02*
X10204819Y-8828095D01*
X10204819Y-9113809D02*
X9204819Y-9113809D01*
X9204819Y-9113809D02*
X9347676Y-9018571D01*
X9347676Y-9018571D02*
X9442914Y-8923333D01*
X9442914Y-8923333D02*
X9490533Y-8828095D01*
X9204819Y-10304285D02*
X9204819Y-9828095D01*
X9204819Y-9828095D02*
X9681009Y-9780476D01*
X9681009Y-9780476D02*
X9633390Y-9828095D01*
X9633390Y-9828095D02*
X9585771Y-9923333D01*
X9585771Y-9923333D02*
X9585771Y-10161428D01*
X9585771Y-10161428D02*
X9633390Y-10256666D01*
X9633390Y-10256666D02*
X9681009Y-10304285D01*
X9681009Y-10304285D02*
X9776247Y-10351904D01*
X9776247Y-10351904D02*
X10014342Y-10351904D01*
X10014342Y-10351904D02*
X10109580Y-10304285D01*
X10109580Y-10304285D02*
X10157200Y-10256666D01*
X10157200Y-10256666D02*
X10204819Y-10161428D01*
X10204819Y-10161428D02*
X10204819Y-9923333D01*
X10204819Y-9923333D02*
X10157200Y-9828095D01*
X10157200Y-9828095D02*
X10109580Y-9780476D01*
X94887500Y-35100000D02*
X94887500Y-31500000D01*
X94887500Y-31500000D02*
X86687499Y-31500000D01*
X94867500Y-34100000D02*
X94867500Y-31850000D01*
D12*
X94737500Y-31700000D02*
X93487500Y-31700000D01*
D13*
X94687500Y-34850000D02*
X93387500Y-34800000D01*
D14*
X94387500Y-32100000D02*
X94387500Y-34600000D01*
D15*
X93087500Y-33300000D02*
X86387500Y-33300000D01*
D11*
X90087500Y-35100000D02*
X94887500Y-35100000D01*
D16*
X86317500Y-33000000D02*
X86317500Y-35240000D01*
D17*
X85187500Y-36500000D02*
X85187500Y-34700001D01*
D13*
X85037500Y-36800000D02*
X87487500Y-36800000D01*
D11*
X84837500Y-37000000D02*
X87867500Y-37000000D01*
X84837500Y-32550000D02*
X84837500Y-37000000D01*
D10*
X84687500Y-34050000D02*
X84687500Y-33400000D01*
D11*
X84587500Y-34150000D02*
X84787500Y-34150000D01*
X84587500Y-33400000D02*
X84587500Y-34150000D01*
X90087500Y-35100000D02*
G75*
G03*
X87871182Y-36978529I-65000J-2170000D01*
G01*
D14*
X89687500Y-34700000D02*
G75*
G03*
X87471182Y-36578529I-65000J-2170000D01*
G01*
D11*
X86687499Y-31500000D02*
G75*
G03*
X84587500Y-33400001I-99999J-2000000D01*
G01*
X56787500Y-35100000D02*
X56787500Y-31500000D01*
X56787500Y-31500000D02*
X48587499Y-31500000D01*
X56767500Y-34100000D02*
X56767500Y-31850000D01*
D12*
X56637500Y-31700000D02*
X55387500Y-31700000D01*
D13*
X56587500Y-34850000D02*
X55287500Y-34800000D01*
D14*
X56287500Y-32100000D02*
X56287500Y-34600000D01*
D15*
X54987500Y-33300000D02*
X48287500Y-33300000D01*
D11*
X51987500Y-35100000D02*
X56787500Y-35100000D01*
D16*
X48217500Y-33000000D02*
X48217500Y-35240000D01*
D17*
X47087500Y-36500000D02*
X47087500Y-34700001D01*
D13*
X46937500Y-36800000D02*
X49387500Y-36800000D01*
D11*
X46737500Y-37000000D02*
X49767500Y-37000000D01*
X46737500Y-32550000D02*
X46737500Y-37000000D01*
D10*
X46587500Y-34050000D02*
X46587500Y-33400000D01*
D11*
X46487500Y-34150000D02*
X46687500Y-34150000D01*
X46487500Y-33400000D02*
X46487500Y-34150000D01*
X51987500Y-35100000D02*
G75*
G03*
X49771182Y-36978529I-65000J-2170000D01*
G01*
D14*
X51587500Y-34700000D02*
G75*
G03*
X49371182Y-36578529I-65000J-2170000D01*
G01*
D11*
X48587499Y-31500000D02*
G75*
G03*
X46487500Y-33400001I-99999J-2000000D01*
G01*
X37520000Y-45670000D02*
X37520000Y-47170000D01*
X37520000Y-47170000D02*
X42920000Y-47170000D01*
X39720000Y-45920000D02*
X39720000Y-46920000D01*
X39820000Y-46420000D02*
X40720000Y-45920000D01*
X40720000Y-45920000D02*
X40720000Y-46920000D01*
X40720000Y-46920000D02*
X39820000Y-46420000D01*
X42920000Y-45670000D02*
X37520000Y-45670000D01*
X42920000Y-47170000D02*
X42920000Y-45670000D01*
X4480000Y-45690000D02*
X4480000Y-47190000D01*
X4480000Y-47190000D02*
X9880000Y-47190000D01*
X6680000Y-45940000D02*
X6680000Y-46940000D01*
X6780000Y-46440000D02*
X7680000Y-45940000D01*
X7680000Y-45940000D02*
X7680000Y-46940000D01*
X7680000Y-46940000D02*
X6780000Y-46440000D01*
X9880000Y-45690000D02*
X4480000Y-45690000D01*
X9880000Y-47190000D02*
X9880000Y-45690000D01*
X11550000Y-35090000D02*
X11550000Y-31490000D01*
X11550000Y-31490000D02*
X3349999Y-31490000D01*
X11530000Y-34090000D02*
X11530000Y-31840000D01*
D12*
X11400000Y-31690000D02*
X10150000Y-31690000D01*
D13*
X11350000Y-34840000D02*
X10050000Y-34790000D01*
D14*
X11050000Y-32090000D02*
X11050000Y-34590000D01*
D15*
X9750000Y-33290000D02*
X3050000Y-33290000D01*
D11*
X6750000Y-35090000D02*
X11550000Y-35090000D01*
D16*
X2980000Y-32990000D02*
X2980000Y-35230000D01*
D17*
X1850000Y-36490000D02*
X1850000Y-34690001D01*
D13*
X1700000Y-36790000D02*
X4150000Y-36790000D01*
D11*
X1500000Y-36990000D02*
X4530000Y-36990000D01*
X1500000Y-32540000D02*
X1500000Y-36990000D01*
D10*
X1350000Y-34040000D02*
X1350000Y-33390000D01*
D11*
X1250000Y-34140000D02*
X1450000Y-34140000D01*
X1250000Y-33390000D02*
X1250000Y-34140000D01*
X6750000Y-35090000D02*
G75*
G03*
X4533682Y-36968529I-65000J-2170000D01*
G01*
D14*
X6350000Y-34690000D02*
G75*
G03*
X4133682Y-36568529I-65000J-2170000D01*
G01*
D11*
X3349999Y-31490000D02*
G75*
G03*
X1250000Y-33390001I-99999J-2000000D01*
G01*
X106800000Y-45560000D02*
X106800000Y-47060000D01*
X106800000Y-47060000D02*
X112200000Y-47060000D01*
X109000000Y-45810000D02*
X109000000Y-46810000D01*
X109100000Y-46310000D02*
X110000000Y-45810000D01*
X110000000Y-45810000D02*
X110000000Y-46810000D01*
X110000000Y-46810000D02*
X109100000Y-46310000D01*
X112200000Y-45560000D02*
X106800000Y-45560000D01*
X112200000Y-47060000D02*
X112200000Y-45560000D01*
X202050000Y-6500000D02*
X202050000Y-2900000D01*
X202050000Y-2900000D02*
X193849999Y-2900000D01*
X202030000Y-5500000D02*
X202030000Y-3250000D01*
D12*
X201900000Y-3100000D02*
X200650000Y-3100000D01*
D13*
X201850000Y-6250000D02*
X200550000Y-6200000D01*
D14*
X201550000Y-3500000D02*
X201550000Y-6000000D01*
D15*
X200250000Y-4700000D02*
X193550000Y-4700000D01*
D11*
X197250000Y-6500000D02*
X202050000Y-6500000D01*
D16*
X193480000Y-4400000D02*
X193480000Y-6640000D01*
D17*
X192350000Y-7900000D02*
X192350000Y-6100001D01*
D13*
X192200000Y-8200000D02*
X194650000Y-8200000D01*
D11*
X192000000Y-8400000D02*
X195030000Y-8400000D01*
X192000000Y-3950000D02*
X192000000Y-8400000D01*
D10*
X191850000Y-5450000D02*
X191850000Y-4800000D01*
D11*
X191750000Y-5550000D02*
X191950000Y-5550000D01*
X191750000Y-4800000D02*
X191750000Y-5550000D01*
X197250000Y-6500000D02*
G75*
G03*
X195033682Y-8378529I-65000J-2170000D01*
G01*
D14*
X196850000Y-6100000D02*
G75*
G03*
X194633682Y-7978529I-65000J-2170000D01*
G01*
D11*
X193849999Y-2900000D02*
G75*
G03*
X191750000Y-4800001I-99999J-2000000D01*
G01*
X125850000Y-45580000D02*
X125850000Y-47080000D01*
X125850000Y-47080000D02*
X131250000Y-47080000D01*
X128050000Y-45830000D02*
X128050000Y-46830000D01*
X128150000Y-46330000D02*
X129050000Y-45830000D01*
X129050000Y-45830000D02*
X129050000Y-46830000D01*
X129050000Y-46830000D02*
X128150000Y-46330000D01*
X131250000Y-45580000D02*
X125850000Y-45580000D01*
X131250000Y-47080000D02*
X131250000Y-45580000D01*
X161562500Y-16050000D02*
X161562500Y-12450000D01*
X161562500Y-12450000D02*
X153362499Y-12450000D01*
X161542500Y-15050000D02*
X161542500Y-12800000D01*
D12*
X161412500Y-12650000D02*
X160162500Y-12650000D01*
D13*
X161362500Y-15800000D02*
X160062500Y-15750000D01*
D14*
X161062500Y-13050000D02*
X161062500Y-15550000D01*
D15*
X159762500Y-14250000D02*
X153062500Y-14250000D01*
D11*
X156762500Y-16050000D02*
X161562500Y-16050000D01*
D16*
X152992500Y-13950000D02*
X152992500Y-16190000D01*
D17*
X151862500Y-17450000D02*
X151862500Y-15650001D01*
D13*
X151712500Y-17750000D02*
X154162500Y-17750000D01*
D11*
X151512500Y-17950000D02*
X154542500Y-17950000D01*
X151512500Y-13500000D02*
X151512500Y-17950000D01*
D10*
X151362500Y-15000000D02*
X151362500Y-14350000D01*
D11*
X151262500Y-15100000D02*
X151462500Y-15100000D01*
X151262500Y-14350000D02*
X151262500Y-15100000D01*
X156762500Y-16050000D02*
G75*
G03*
X154546182Y-17928529I-65000J-2170000D01*
G01*
D14*
X156362500Y-15650000D02*
G75*
G03*
X154146182Y-17528529I-65000J-2170000D01*
G01*
D11*
X153362499Y-12450000D02*
G75*
G03*
X151262500Y-14350001I-99999J-2000000D01*
G01*
X197280000Y-35060000D02*
X197280000Y-31460000D01*
X197280000Y-31460000D02*
X189079999Y-31460000D01*
X197260000Y-34060000D02*
X197260000Y-31810000D01*
D12*
X197130000Y-31660000D02*
X195880000Y-31660000D01*
D13*
X197080000Y-34810000D02*
X195780000Y-34760000D01*
D14*
X196780000Y-32060000D02*
X196780000Y-34560000D01*
D15*
X195480000Y-33260000D02*
X188780000Y-33260000D01*
D11*
X192480000Y-35060000D02*
X197280000Y-35060000D01*
D16*
X188710000Y-32960000D02*
X188710000Y-35200000D01*
D17*
X187580000Y-36460000D02*
X187580000Y-34660001D01*
D13*
X187430000Y-36760000D02*
X189880000Y-36760000D01*
D11*
X187230000Y-36960000D02*
X190260000Y-36960000D01*
X187230000Y-32510000D02*
X187230000Y-36960000D01*
D10*
X187080000Y-34010000D02*
X187080000Y-33360000D01*
D11*
X186980000Y-34110000D02*
X187180000Y-34110000D01*
X186980000Y-33360000D02*
X186980000Y-34110000D01*
X192480000Y-35060000D02*
G75*
G03*
X190263682Y-36938529I-65000J-2170000D01*
G01*
D14*
X192080000Y-34660000D02*
G75*
G03*
X189863682Y-36538529I-65000J-2170000D01*
G01*
D11*
X189079999Y-31460000D02*
G75*
G03*
X186980000Y-33360001I-99999J-2000000D01*
G01*
X152037500Y-35100000D02*
X152037500Y-31500000D01*
X152037500Y-31500000D02*
X143837499Y-31500000D01*
X152017500Y-34100000D02*
X152017500Y-31850000D01*
D12*
X151887500Y-31700000D02*
X150637500Y-31700000D01*
D13*
X151837500Y-34850000D02*
X150537500Y-34800000D01*
D14*
X151537500Y-32100000D02*
X151537500Y-34600000D01*
D15*
X150237500Y-33300000D02*
X143537500Y-33300000D01*
D11*
X147237500Y-35100000D02*
X152037500Y-35100000D01*
D16*
X143467500Y-33000000D02*
X143467500Y-35240000D01*
D17*
X142337500Y-36500000D02*
X142337500Y-34700001D01*
D13*
X142187500Y-36800000D02*
X144637500Y-36800000D01*
D11*
X141987500Y-37000000D02*
X145017500Y-37000000D01*
X141987500Y-32550000D02*
X141987500Y-37000000D01*
D10*
X141837500Y-34050000D02*
X141837500Y-33400000D01*
D11*
X141737500Y-34150000D02*
X141937500Y-34150000D01*
X141737500Y-33400000D02*
X141737500Y-34150000D01*
X147237500Y-35100000D02*
G75*
G03*
X145021182Y-36978529I-65000J-2170000D01*
G01*
D14*
X146837500Y-34700000D02*
G75*
G03*
X144621182Y-36578529I-65000J-2170000D01*
G01*
D11*
X143837499Y-31500000D02*
G75*
G03*
X141737500Y-33400001I-99999J-2000000D01*
G01*
X158330000Y-45790000D02*
X158330000Y-47290000D01*
X158330000Y-47290000D02*
X163730000Y-47290000D01*
X160530000Y-46040000D02*
X160530000Y-47040000D01*
X160630000Y-46540000D02*
X161530000Y-46040000D01*
X161530000Y-46040000D02*
X161530000Y-47040000D01*
X161530000Y-47040000D02*
X160630000Y-46540000D01*
X163730000Y-45790000D02*
X158330000Y-45790000D01*
X163730000Y-47290000D02*
X163730000Y-45790000D01*
X25910000Y-9910000D02*
X25910000Y-11410000D01*
X25910000Y-11410000D02*
X31310000Y-11410000D01*
X28110000Y-10160000D02*
X28110000Y-11160000D01*
X28210000Y-10660000D02*
X29110000Y-10160000D01*
X29110000Y-10160000D02*
X29110000Y-11160000D01*
X29110000Y-11160000D02*
X28210000Y-10660000D01*
X31310000Y-9910000D02*
X25910000Y-9910000D01*
X31310000Y-11410000D02*
X31310000Y-9910000D01*
X59180000Y-26630000D02*
X59180000Y-28130000D01*
X59180000Y-28130000D02*
X64580000Y-28130000D01*
X61380000Y-26880000D02*
X61380000Y-27880000D01*
X61480000Y-27380000D02*
X62380000Y-26880000D01*
X62380000Y-26880000D02*
X62380000Y-27880000D01*
X62380000Y-27880000D02*
X61480000Y-27380000D01*
X64580000Y-26630000D02*
X59180000Y-26630000D01*
X64580000Y-28130000D02*
X64580000Y-26630000D01*
X173565000Y-64570000D02*
X173565000Y-66070000D01*
X173565000Y-66070000D02*
X178965000Y-66070000D01*
X175765000Y-64820000D02*
X175765000Y-65820000D01*
X175865000Y-65320000D02*
X176765000Y-64820000D01*
X176765000Y-64820000D02*
X176765000Y-65820000D01*
X176765000Y-65820000D02*
X175865000Y-65320000D01*
X178965000Y-64570000D02*
X173565000Y-64570000D01*
X178965000Y-66070000D02*
X178965000Y-64570000D01*
X104422500Y-54120000D02*
X104422500Y-50520000D01*
X104422500Y-50520000D02*
X96222499Y-50520000D01*
X104402500Y-53120000D02*
X104402500Y-50870000D01*
D12*
X104272500Y-50720000D02*
X103022500Y-50720000D01*
D13*
X104222500Y-53870000D02*
X102922500Y-53820000D01*
D14*
X103922500Y-51120000D02*
X103922500Y-53620000D01*
D15*
X102622500Y-52320000D02*
X95922500Y-52320000D01*
D11*
X99622500Y-54120000D02*
X104422500Y-54120000D01*
D16*
X95852500Y-52020000D02*
X95852500Y-54260000D01*
D17*
X94722500Y-55520000D02*
X94722500Y-53720001D01*
D13*
X94572500Y-55820000D02*
X97022500Y-55820000D01*
D11*
X94372500Y-56020000D02*
X97402500Y-56020000D01*
X94372500Y-51570000D02*
X94372500Y-56020000D01*
D10*
X94222500Y-53070000D02*
X94222500Y-52420000D01*
D11*
X94122500Y-53170000D02*
X94322500Y-53170000D01*
X94122500Y-52420000D02*
X94122500Y-53170000D01*
X99622500Y-54120000D02*
G75*
G03*
X97406182Y-55998529I-65000J-2170000D01*
G01*
D14*
X99222500Y-53720000D02*
G75*
G03*
X97006182Y-55598529I-65000J-2170000D01*
G01*
D11*
X96222499Y-50520000D02*
G75*
G03*
X94122500Y-52420001I-99999J-2000000D01*
G01*
X28220000Y-26560000D02*
X28220000Y-28060000D01*
X28220000Y-28060000D02*
X33620000Y-28060000D01*
X30420000Y-26810000D02*
X30420000Y-27810000D01*
X30520000Y-27310000D02*
X31420000Y-26810000D01*
X31420000Y-26810000D02*
X31420000Y-27810000D01*
X31420000Y-27810000D02*
X30520000Y-27310000D01*
X33620000Y-26560000D02*
X28220000Y-26560000D01*
X33620000Y-28060000D02*
X33620000Y-26560000D01*
X17935000Y-26480000D02*
X17935000Y-27980000D01*
X17935000Y-27980000D02*
X23335000Y-27980000D01*
X20135000Y-26730000D02*
X20135000Y-27730000D01*
X20235000Y-27230000D02*
X21135000Y-26730000D01*
X21135000Y-26730000D02*
X21135000Y-27730000D01*
X21135000Y-27730000D02*
X20235000Y-27230000D01*
X23335000Y-26480000D02*
X17935000Y-26480000D01*
X23335000Y-27980000D02*
X23335000Y-26480000D01*
X37737500Y-35100000D02*
X37737500Y-31500000D01*
X37737500Y-31500000D02*
X29537499Y-31500000D01*
X37717500Y-34100000D02*
X37717500Y-31850000D01*
D12*
X37587500Y-31700000D02*
X36337500Y-31700000D01*
D13*
X37537500Y-34850000D02*
X36237500Y-34800000D01*
D14*
X37237500Y-32100000D02*
X37237500Y-34600000D01*
D15*
X35937500Y-33300000D02*
X29237500Y-33300000D01*
D11*
X32937500Y-35100000D02*
X37737500Y-35100000D01*
D16*
X29167500Y-33000000D02*
X29167500Y-35240000D01*
D17*
X28037500Y-36500000D02*
X28037500Y-34700001D01*
D13*
X27887500Y-36800000D02*
X30337500Y-36800000D01*
D11*
X27687500Y-37000000D02*
X30717500Y-37000000D01*
X27687500Y-32550000D02*
X27687500Y-37000000D01*
D10*
X27537500Y-34050000D02*
X27537500Y-33400000D01*
D11*
X27437500Y-34150000D02*
X27637500Y-34150000D01*
X27437500Y-33400000D02*
X27437500Y-34150000D01*
X32937500Y-35100000D02*
G75*
G03*
X30721182Y-36978529I-65000J-2170000D01*
G01*
D14*
X32537500Y-34700000D02*
G75*
G03*
X30321182Y-36578529I-65000J-2170000D01*
G01*
D11*
X29537499Y-31500000D02*
G75*
G03*
X27437500Y-33400001I-99999J-2000000D01*
G01*
X23450000Y3000000D02*
X23450000Y6600000D01*
X23450000Y6600000D02*
X15249999Y6600000D01*
X23430000Y4000000D02*
X23430000Y6250000D01*
D12*
X23300000Y6400000D02*
X22050000Y6400000D01*
D13*
X23250000Y3250000D02*
X21950000Y3300000D01*
D14*
X22950000Y6000000D02*
X22950000Y3500000D01*
D15*
X21650000Y4800000D02*
X14950000Y4800000D01*
D11*
X18650000Y3000000D02*
X23450000Y3000000D01*
D16*
X14880000Y5100000D02*
X14880000Y2860000D01*
D17*
X13750000Y1600000D02*
X13750000Y3399999D01*
D13*
X13600000Y1300000D02*
X16050000Y1300000D01*
D11*
X13400000Y1100000D02*
X16430000Y1100000D01*
X13400000Y5550000D02*
X13400000Y1100000D01*
D10*
X13250000Y4050000D02*
X13250000Y4700000D01*
D11*
X13150000Y3950000D02*
X13350000Y3950000D01*
X13150000Y4700000D02*
X13150000Y3950000D01*
X18650000Y3000000D02*
G75*
G03*
X16433682Y1121471I-65000J-2170000D01*
G01*
D14*
X18250000Y3400000D02*
G75*
G03*
X16033682Y1521471I-65000J-2170000D01*
G01*
D11*
X15249999Y6600000D02*
G75*
G03*
X13150000Y4699999I-99999J-2000000D01*
G01*
X180612500Y-54120000D02*
X180612500Y-50520000D01*
X180612500Y-50520000D02*
X172412499Y-50520000D01*
X180592500Y-53120000D02*
X180592500Y-50870000D01*
D12*
X180462500Y-50720000D02*
X179212500Y-50720000D01*
D13*
X180412500Y-53870000D02*
X179112500Y-53820000D01*
D14*
X180112500Y-51120000D02*
X180112500Y-53620000D01*
D15*
X178812500Y-52320000D02*
X172112500Y-52320000D01*
D11*
X175812500Y-54120000D02*
X180612500Y-54120000D01*
D16*
X172042500Y-52020000D02*
X172042500Y-54260000D01*
D17*
X170912500Y-55520000D02*
X170912500Y-53720001D01*
D13*
X170762500Y-55820000D02*
X173212500Y-55820000D01*
D11*
X170562500Y-56020000D02*
X173592500Y-56020000D01*
X170562500Y-51570000D02*
X170562500Y-56020000D01*
D10*
X170412500Y-53070000D02*
X170412500Y-52420000D01*
D11*
X170312500Y-53170000D02*
X170512500Y-53170000D01*
X170312500Y-52420000D02*
X170312500Y-53170000D01*
X175812500Y-54120000D02*
G75*
G03*
X173596182Y-55998529I-65000J-2170000D01*
G01*
D14*
X175412500Y-53720000D02*
G75*
G03*
X173196182Y-55598529I-65000J-2170000D01*
G01*
D11*
X172412499Y-50520000D02*
G75*
G03*
X170312500Y-52420001I-99999J-2000000D01*
G01*
X156800000Y3000000D02*
X156800000Y6600000D01*
X156800000Y6600000D02*
X148599999Y6600000D01*
X156780000Y4000000D02*
X156780000Y6250000D01*
D12*
X156650000Y6400000D02*
X155400000Y6400000D01*
D13*
X156600000Y3250000D02*
X155300000Y3300000D01*
D14*
X156300000Y6000000D02*
X156300000Y3500000D01*
D15*
X155000000Y4800000D02*
X148300000Y4800000D01*
D11*
X152000000Y3000000D02*
X156800000Y3000000D01*
D16*
X148230000Y5100000D02*
X148230000Y2860000D01*
D17*
X147100000Y1600000D02*
X147100000Y3399999D01*
D13*
X146950000Y1300000D02*
X149400000Y1300000D01*
D11*
X146750000Y1100000D02*
X149780000Y1100000D01*
X146750000Y5550000D02*
X146750000Y1100000D01*
D10*
X146600000Y4050000D02*
X146600000Y4700000D01*
D11*
X146500000Y3950000D02*
X146700000Y3950000D01*
X146500000Y4700000D02*
X146500000Y3950000D01*
X152000000Y3000000D02*
G75*
G03*
X149783682Y1121471I-65000J-2170000D01*
G01*
D14*
X151600000Y3400000D02*
G75*
G03*
X149383682Y1521471I-65000J-2170000D01*
G01*
D11*
X148599999Y6600000D02*
G75*
G03*
X146500000Y4699999I-99999J-2000000D01*
G01*
X99650000Y3000000D02*
X99650000Y6600000D01*
X99650000Y6600000D02*
X91449999Y6600000D01*
X99630000Y4000000D02*
X99630000Y6250000D01*
D12*
X99500000Y6400000D02*
X98250000Y6400000D01*
D13*
X99450000Y3250000D02*
X98150000Y3300000D01*
D14*
X99150000Y6000000D02*
X99150000Y3500000D01*
D15*
X97850000Y4800000D02*
X91150000Y4800000D01*
D11*
X94850000Y3000000D02*
X99650000Y3000000D01*
D16*
X91080000Y5100000D02*
X91080000Y2860000D01*
D17*
X89950000Y1600000D02*
X89950000Y3399999D01*
D13*
X89800000Y1300000D02*
X92250000Y1300000D01*
D11*
X89600000Y1100000D02*
X92630000Y1100000D01*
X89600000Y5550000D02*
X89600000Y1100000D01*
D10*
X89450000Y4050000D02*
X89450000Y4700000D01*
D11*
X89350000Y3950000D02*
X89550000Y3950000D01*
X89350000Y4700000D02*
X89350000Y3950000D01*
X94850000Y3000000D02*
G75*
G03*
X92633682Y1121471I-65000J-2170000D01*
G01*
D14*
X94450000Y3400000D02*
G75*
G03*
X92233682Y1521471I-65000J-2170000D01*
G01*
D11*
X91449999Y6600000D02*
G75*
G03*
X89350000Y4699999I-99999J-2000000D01*
G01*
X104412500Y-16050000D02*
X104412500Y-12450000D01*
X104412500Y-12450000D02*
X96212499Y-12450000D01*
X104392500Y-15050000D02*
X104392500Y-12800000D01*
D12*
X104262500Y-12650000D02*
X103012500Y-12650000D01*
D13*
X104212500Y-15800000D02*
X102912500Y-15750000D01*
D14*
X103912500Y-13050000D02*
X103912500Y-15550000D01*
D15*
X102612500Y-14250000D02*
X95912500Y-14250000D01*
D11*
X99612500Y-16050000D02*
X104412500Y-16050000D01*
D16*
X95842500Y-13950000D02*
X95842500Y-16190000D01*
D17*
X94712500Y-17450000D02*
X94712500Y-15650001D01*
D13*
X94562500Y-17750000D02*
X97012500Y-17750000D01*
D11*
X94362500Y-17950000D02*
X97392500Y-17950000D01*
X94362500Y-13500000D02*
X94362500Y-17950000D01*
D10*
X94212500Y-15000000D02*
X94212500Y-14350000D01*
D11*
X94112500Y-15100000D02*
X94312500Y-15100000D01*
X94112500Y-14350000D02*
X94112500Y-15100000D01*
X99612500Y-16050000D02*
G75*
G03*
X97396182Y-17928529I-65000J-2170000D01*
G01*
D14*
X99212500Y-15650000D02*
G75*
G03*
X96996182Y-17528529I-65000J-2170000D01*
G01*
D11*
X96212499Y-12450000D02*
G75*
G03*
X94112500Y-14350001I-99999J-2000000D01*
G01*
X9165000Y-54120000D02*
X9165000Y-50520000D01*
X9165000Y-50520000D02*
X964999Y-50520000D01*
X9145000Y-53120000D02*
X9145000Y-50870000D01*
D12*
X9015000Y-50720000D02*
X7765000Y-50720000D01*
D13*
X8965000Y-53870000D02*
X7665000Y-53820000D01*
D14*
X8665000Y-51120000D02*
X8665000Y-53620000D01*
D15*
X7365000Y-52320000D02*
X665000Y-52320000D01*
D11*
X4365000Y-54120000D02*
X9165000Y-54120000D01*
D16*
X595000Y-52020000D02*
X595000Y-54260000D01*
D17*
X-535000Y-55520000D02*
X-535000Y-53720001D01*
D13*
X-685000Y-55820000D02*
X1765000Y-55820000D01*
D11*
X-885000Y-56020000D02*
X2145000Y-56020000D01*
X-885000Y-51570000D02*
X-885000Y-56020000D01*
D10*
X-1035000Y-53070000D02*
X-1035000Y-52420000D01*
D11*
X-1135000Y-53170000D02*
X-935000Y-53170000D01*
X-1135000Y-52420000D02*
X-1135000Y-53170000D01*
X4365000Y-54120000D02*
G75*
G03*
X2148682Y-55998529I-65000J-2170000D01*
G01*
D14*
X3965000Y-53720000D02*
G75*
G03*
X1748682Y-55598529I-65000J-2170000D01*
G01*
D11*
X964999Y-50520000D02*
G75*
G03*
X-1135000Y-52420001I-99999J-2000000D01*
G01*
X180465000Y-7960000D02*
X180465000Y-9460000D01*
X180465000Y-9460000D02*
X185865000Y-9460000D01*
X182665000Y-8210000D02*
X182665000Y-9210000D01*
X182765000Y-8710000D02*
X183665000Y-8210000D01*
X183665000Y-8210000D02*
X183665000Y-9210000D01*
X183665000Y-9210000D02*
X182765000Y-8710000D01*
X185865000Y-7960000D02*
X180465000Y-7960000D01*
X185865000Y-9460000D02*
X185865000Y-7960000D01*
X116430000Y-26480000D02*
X116430000Y-27980000D01*
X116430000Y-27980000D02*
X121830000Y-27980000D01*
X118630000Y-26730000D02*
X118630000Y-27730000D01*
X118730000Y-27230000D02*
X119630000Y-26730000D01*
X119630000Y-26730000D02*
X119630000Y-27730000D01*
X119630000Y-27730000D02*
X118730000Y-27230000D01*
X121830000Y-26480000D02*
X116430000Y-26480000D01*
X121830000Y-27980000D02*
X121830000Y-26480000D01*
X171087500Y-35100000D02*
X171087500Y-31500000D01*
X171087500Y-31500000D02*
X162887499Y-31500000D01*
X171067500Y-34100000D02*
X171067500Y-31850000D01*
D12*
X170937500Y-31700000D02*
X169687500Y-31700000D01*
D13*
X170887500Y-34850000D02*
X169587500Y-34800000D01*
D14*
X170587500Y-32100000D02*
X170587500Y-34600000D01*
D15*
X169287500Y-33300000D02*
X162587500Y-33300000D01*
D11*
X166287500Y-35100000D02*
X171087500Y-35100000D01*
D16*
X162517500Y-33000000D02*
X162517500Y-35240000D01*
D17*
X161387500Y-36500000D02*
X161387500Y-34700001D01*
D13*
X161237500Y-36800000D02*
X163687500Y-36800000D01*
D11*
X161037500Y-37000000D02*
X164067500Y-37000000D01*
X161037500Y-32550000D02*
X161037500Y-37000000D01*
D10*
X160887500Y-34050000D02*
X160887500Y-33400000D01*
D11*
X160787500Y-34150000D02*
X160987500Y-34150000D01*
X160787500Y-33400000D02*
X160787500Y-34150000D01*
X166287500Y-35100000D02*
G75*
G03*
X164071182Y-36978529I-65000J-2170000D01*
G01*
D14*
X165887500Y-34700000D02*
G75*
G03*
X163671182Y-36578529I-65000J-2170000D01*
G01*
D11*
X162887499Y-31500000D02*
G75*
G03*
X160787500Y-33400001I-99999J-2000000D01*
G01*
X175850000Y3000000D02*
X175850000Y6600000D01*
X175850000Y6600000D02*
X167649999Y6600000D01*
X175830000Y4000000D02*
X175830000Y6250000D01*
D12*
X175700000Y6400000D02*
X174450000Y6400000D01*
D13*
X175650000Y3250000D02*
X174350000Y3300000D01*
D14*
X175350000Y6000000D02*
X175350000Y3500000D01*
D15*
X174050000Y4800000D02*
X167350000Y4800000D01*
D11*
X171050000Y3000000D02*
X175850000Y3000000D01*
D16*
X167280000Y5100000D02*
X167280000Y2860000D01*
D17*
X166150000Y1600000D02*
X166150000Y3399999D01*
D13*
X166000000Y1300000D02*
X168450000Y1300000D01*
D11*
X165800000Y1100000D02*
X168830000Y1100000D01*
X165800000Y5550000D02*
X165800000Y1100000D01*
D10*
X165650000Y4050000D02*
X165650000Y4700000D01*
D11*
X165550000Y3950000D02*
X165750000Y3950000D01*
X165550000Y4700000D02*
X165550000Y3950000D01*
X171050000Y3000000D02*
G75*
G03*
X168833682Y1121471I-65000J-2170000D01*
G01*
D14*
X170650000Y3400000D02*
G75*
G03*
X168433682Y1521471I-65000J-2170000D01*
G01*
D11*
X167649999Y6600000D02*
G75*
G03*
X165550000Y4699999I-99999J-2000000D01*
G01*
X145060000Y-7600000D02*
X145060000Y-9100000D01*
X145060000Y-9100000D02*
X150460000Y-9100000D01*
X147260000Y-7850000D02*
X147260000Y-8850000D01*
X147360000Y-8350000D02*
X148260000Y-7850000D01*
X148260000Y-7850000D02*
X148260000Y-8850000D01*
X148260000Y-8850000D02*
X147360000Y-8350000D01*
X150460000Y-7600000D02*
X145060000Y-7600000D01*
X150460000Y-9100000D02*
X150460000Y-7600000D01*
X4400000Y3000000D02*
X4400000Y6600000D01*
X4400000Y6600000D02*
X-3800001Y6600000D01*
X4380000Y4000000D02*
X4380000Y6250000D01*
D12*
X4250000Y6400000D02*
X3000000Y6400000D01*
D13*
X4200000Y3250000D02*
X2900000Y3300000D01*
D14*
X3900000Y6000000D02*
X3900000Y3500000D01*
D15*
X2600000Y4800000D02*
X-4100000Y4800000D01*
D11*
X-400000Y3000000D02*
X4400000Y3000000D01*
D16*
X-4170000Y5100000D02*
X-4170000Y2860000D01*
D17*
X-5300000Y1600000D02*
X-5300000Y3399999D01*
D13*
X-5450000Y1300000D02*
X-3000000Y1300000D01*
D11*
X-5650000Y1100000D02*
X-2620000Y1100000D01*
X-5650000Y5550000D02*
X-5650000Y1100000D01*
D10*
X-5800000Y4050000D02*
X-5800000Y4700000D01*
D11*
X-5900000Y3950000D02*
X-5700000Y3950000D01*
X-5900000Y4700000D02*
X-5900000Y3950000D01*
X-400000Y3000000D02*
G75*
G03*
X-2616318Y1121471I-65000J-2170000D01*
G01*
D14*
X-800000Y3400000D02*
G75*
G03*
X-3016318Y1521471I-65000J-2170000D01*
G01*
D11*
X-3800001Y6600000D02*
G75*
G03*
X-5900000Y4699999I-99999J-2000000D01*
G01*
X80600000Y3000000D02*
X80600000Y6600000D01*
X80600000Y6600000D02*
X72399999Y6600000D01*
X80580000Y4000000D02*
X80580000Y6250000D01*
D12*
X80450000Y6400000D02*
X79200000Y6400000D01*
D13*
X80400000Y3250000D02*
X79100000Y3300000D01*
D14*
X80100000Y6000000D02*
X80100000Y3500000D01*
D15*
X78800000Y4800000D02*
X72100000Y4800000D01*
D11*
X75800000Y3000000D02*
X80600000Y3000000D01*
D16*
X72030000Y5100000D02*
X72030000Y2860000D01*
D17*
X70900000Y1600000D02*
X70900000Y3399999D01*
D13*
X70750000Y1300000D02*
X73200000Y1300000D01*
D11*
X70550000Y1100000D02*
X73580000Y1100000D01*
X70550000Y5550000D02*
X70550000Y1100000D01*
D10*
X70400000Y4050000D02*
X70400000Y4700000D01*
D11*
X70300000Y3950000D02*
X70500000Y3950000D01*
X70300000Y4700000D02*
X70300000Y3950000D01*
X75800000Y3000000D02*
G75*
G03*
X73583682Y1121471I-65000J-2170000D01*
G01*
D14*
X75400000Y3400000D02*
G75*
G03*
X73183682Y1521471I-65000J-2170000D01*
G01*
D11*
X72399999Y6600000D02*
G75*
G03*
X70300000Y4699999I-99999J-2000000D01*
G01*
X132987500Y-35100000D02*
X132987500Y-31500000D01*
X132987500Y-31500000D02*
X124787499Y-31500000D01*
X132967500Y-34100000D02*
X132967500Y-31850000D01*
D12*
X132837500Y-31700000D02*
X131587500Y-31700000D01*
D13*
X132787500Y-34850000D02*
X131487500Y-34800000D01*
D14*
X132487500Y-32100000D02*
X132487500Y-34600000D01*
D15*
X131187500Y-33300000D02*
X124487500Y-33300000D01*
D11*
X128187500Y-35100000D02*
X132987500Y-35100000D01*
D16*
X124417500Y-33000000D02*
X124417500Y-35240000D01*
D17*
X123287500Y-36500000D02*
X123287500Y-34700001D01*
D13*
X123137500Y-36800000D02*
X125587500Y-36800000D01*
D11*
X122937500Y-37000000D02*
X125967500Y-37000000D01*
X122937500Y-32550000D02*
X122937500Y-37000000D01*
D10*
X122787500Y-34050000D02*
X122787500Y-33400000D01*
D11*
X122687500Y-34150000D02*
X122887500Y-34150000D01*
X122687500Y-33400000D02*
X122687500Y-34150000D01*
X128187500Y-35100000D02*
G75*
G03*
X125971182Y-36978529I-65000J-2170000D01*
G01*
D14*
X127787500Y-34700000D02*
G75*
G03*
X125571182Y-36578529I-65000J-2170000D01*
G01*
D11*
X124787499Y-31500000D02*
G75*
G03*
X122687500Y-33400001I-99999J-2000000D01*
G01*
X61550000Y3000000D02*
X61550000Y6600000D01*
X61550000Y6600000D02*
X53349999Y6600000D01*
X61530000Y4000000D02*
X61530000Y6250000D01*
D12*
X61400000Y6400000D02*
X60150000Y6400000D01*
D13*
X61350000Y3250000D02*
X60050000Y3300000D01*
D14*
X61050000Y6000000D02*
X61050000Y3500000D01*
D15*
X59750000Y4800000D02*
X53050000Y4800000D01*
D11*
X56750000Y3000000D02*
X61550000Y3000000D01*
D16*
X52980000Y5100000D02*
X52980000Y2860000D01*
D17*
X51850000Y1600000D02*
X51850000Y3399999D01*
D13*
X51700000Y1300000D02*
X54150000Y1300000D01*
D11*
X51500000Y1100000D02*
X54530000Y1100000D01*
X51500000Y5550000D02*
X51500000Y1100000D01*
D10*
X51350000Y4050000D02*
X51350000Y4700000D01*
D11*
X51250000Y3950000D02*
X51450000Y3950000D01*
X51250000Y4700000D02*
X51250000Y3950000D01*
X56750000Y3000000D02*
G75*
G03*
X54533682Y1121471I-65000J-2170000D01*
G01*
D14*
X56350000Y3400000D02*
G75*
G03*
X54133682Y1521471I-65000J-2170000D01*
G01*
D11*
X53349999Y6600000D02*
G75*
G03*
X51250000Y4699999I-99999J-2000000D01*
G01*
X54400000Y-7610000D02*
X54400000Y-9110000D01*
X54400000Y-9110000D02*
X59800000Y-9110000D01*
X56600000Y-7860000D02*
X56600000Y-8860000D01*
X56700000Y-8360000D02*
X57600000Y-7860000D01*
X57600000Y-7860000D02*
X57600000Y-8860000D01*
X57600000Y-8860000D02*
X56700000Y-8360000D01*
X59800000Y-7610000D02*
X54400000Y-7610000D01*
X59800000Y-9110000D02*
X59800000Y-7610000D01*
X16755000Y-7490000D02*
X16755000Y-8990000D01*
X16755000Y-8990000D02*
X22155000Y-8990000D01*
X18955000Y-7740000D02*
X18955000Y-8740000D01*
X19055000Y-8240000D02*
X19955000Y-7740000D01*
X19955000Y-7740000D02*
X19955000Y-8740000D01*
X19955000Y-8740000D02*
X19055000Y-8240000D01*
X22155000Y-7490000D02*
X16755000Y-7490000D01*
X22155000Y-8990000D02*
X22155000Y-7490000D01*
X97340000Y-26500000D02*
X97340000Y-28000000D01*
X97340000Y-28000000D02*
X102740000Y-28000000D01*
X99540000Y-26750000D02*
X99540000Y-27750000D01*
X99640000Y-27250000D02*
X100540000Y-26750000D01*
X100540000Y-26750000D02*
X100540000Y-27750000D01*
X100540000Y-27750000D02*
X99640000Y-27250000D01*
X102740000Y-26500000D02*
X97340000Y-26500000D01*
X102740000Y-28000000D02*
X102740000Y-26500000D01*
X92570000Y-7700000D02*
X92570000Y-9200000D01*
X92570000Y-9200000D02*
X97970000Y-9200000D01*
X94770000Y-7950000D02*
X94770000Y-8950000D01*
X94870000Y-8450000D02*
X95770000Y-7950000D01*
X95770000Y-7950000D02*
X95770000Y-8950000D01*
X95770000Y-8950000D02*
X94870000Y-8450000D01*
X97970000Y-7700000D02*
X92570000Y-7700000D01*
X97970000Y-9200000D02*
X97970000Y-7700000D01*
X75837500Y-35100000D02*
X75837500Y-31500000D01*
X75837500Y-31500000D02*
X67637499Y-31500000D01*
X75817500Y-34100000D02*
X75817500Y-31850000D01*
D12*
X75687500Y-31700000D02*
X74437500Y-31700000D01*
D13*
X75637500Y-34850000D02*
X74337500Y-34800000D01*
D14*
X75337500Y-32100000D02*
X75337500Y-34600000D01*
D15*
X74037500Y-33300000D02*
X67337500Y-33300000D01*
D11*
X71037500Y-35100000D02*
X75837500Y-35100000D01*
D16*
X67267500Y-33000000D02*
X67267500Y-35240000D01*
D17*
X66137500Y-36500000D02*
X66137500Y-34700001D01*
D13*
X65987500Y-36800000D02*
X68437500Y-36800000D01*
D11*
X65787500Y-37000000D02*
X68817500Y-37000000D01*
X65787500Y-32550000D02*
X65787500Y-37000000D01*
D10*
X65637500Y-34050000D02*
X65637500Y-33400000D01*
D11*
X65537500Y-34150000D02*
X65737500Y-34150000D01*
X65537500Y-33400000D02*
X65537500Y-34150000D01*
X71037500Y-35100000D02*
G75*
G03*
X68821182Y-36978529I-65000J-2170000D01*
G01*
D14*
X70637500Y-34700000D02*
G75*
G03*
X68421182Y-36578529I-65000J-2170000D01*
G01*
D11*
X67637499Y-31500000D02*
G75*
G03*
X65537500Y-33400001I-99999J-2000000D01*
G01*
X97360000Y-64620000D02*
X97360000Y-66120000D01*
X97360000Y-66120000D02*
X102760000Y-66120000D01*
X99560000Y-64870000D02*
X99560000Y-65870000D01*
X99660000Y-65370000D02*
X100560000Y-64870000D01*
X100560000Y-64870000D02*
X100560000Y-65870000D01*
X100560000Y-65870000D02*
X99660000Y-65370000D01*
X102760000Y-64620000D02*
X97360000Y-64620000D01*
X102760000Y-66120000D02*
X102760000Y-64620000D01*
X21145000Y-64580000D02*
X21145000Y-66080000D01*
X21145000Y-66080000D02*
X26545000Y-66080000D01*
X23345000Y-64830000D02*
X23345000Y-65830000D01*
X23445000Y-65330000D02*
X24345000Y-64830000D01*
X24345000Y-64830000D02*
X24345000Y-65830000D01*
X24345000Y-65830000D02*
X23445000Y-65330000D01*
X26545000Y-64580000D02*
X21145000Y-64580000D01*
X26545000Y-66080000D02*
X26545000Y-64580000D01*
X28212500Y-16050000D02*
X28212500Y-12450000D01*
X28212500Y-12450000D02*
X20012499Y-12450000D01*
X28192500Y-15050000D02*
X28192500Y-12800000D01*
D12*
X28062500Y-12650000D02*
X26812500Y-12650000D01*
D13*
X28012500Y-15800000D02*
X26712500Y-15750000D01*
D14*
X27712500Y-13050000D02*
X27712500Y-15550000D01*
D15*
X26412500Y-14250000D02*
X19712500Y-14250000D01*
D11*
X23412500Y-16050000D02*
X28212500Y-16050000D01*
D16*
X19642500Y-13950000D02*
X19642500Y-16190000D01*
D17*
X18512500Y-17450000D02*
X18512500Y-15650001D01*
D13*
X18362500Y-17750000D02*
X20812500Y-17750000D01*
D11*
X18162500Y-17950000D02*
X21192500Y-17950000D01*
X18162500Y-13500000D02*
X18162500Y-17950000D01*
D10*
X18012500Y-15000000D02*
X18012500Y-14350000D01*
D11*
X17912500Y-15100000D02*
X18112500Y-15100000D01*
X17912500Y-14350000D02*
X17912500Y-15100000D01*
X23412500Y-16050000D02*
G75*
G03*
X21196182Y-17928529I-65000J-2170000D01*
G01*
D14*
X23012500Y-15650000D02*
G75*
G03*
X20796182Y-17528529I-65000J-2170000D01*
G01*
D11*
X20012499Y-12450000D02*
G75*
G03*
X17912500Y-14350001I-99999J-2000000D01*
G01*
X123462500Y-16050000D02*
X123462500Y-12450000D01*
X123462500Y-12450000D02*
X115262499Y-12450000D01*
X123442500Y-15050000D02*
X123442500Y-12800000D01*
D12*
X123312500Y-12650000D02*
X122062500Y-12650000D01*
D13*
X123262500Y-15800000D02*
X121962500Y-15750000D01*
D14*
X122962500Y-13050000D02*
X122962500Y-15550000D01*
D15*
X121662500Y-14250000D02*
X114962500Y-14250000D01*
D11*
X118662500Y-16050000D02*
X123462500Y-16050000D01*
D16*
X114892500Y-13950000D02*
X114892500Y-16190000D01*
D17*
X113762500Y-17450000D02*
X113762500Y-15650001D01*
D13*
X113612500Y-17750000D02*
X116062500Y-17750000D01*
D11*
X113412500Y-17950000D02*
X116442500Y-17950000D01*
X113412500Y-13500000D02*
X113412500Y-17950000D01*
D10*
X113262500Y-15000000D02*
X113262500Y-14350000D01*
D11*
X113162500Y-15100000D02*
X113362500Y-15100000D01*
X113162500Y-14350000D02*
X113162500Y-15100000D01*
X118662500Y-16050000D02*
G75*
G03*
X116446182Y-17928529I-65000J-2170000D01*
G01*
D14*
X118262500Y-15650000D02*
G75*
G03*
X116046182Y-17528529I-65000J-2170000D01*
G01*
D11*
X115262499Y-12450000D02*
G75*
G03*
X113162500Y-14350001I-99999J-2000000D01*
G01*
X130640000Y-7790000D02*
X130640000Y-9290000D01*
X130640000Y-9290000D02*
X136040000Y-9290000D01*
X132840000Y-8040000D02*
X132840000Y-9040000D01*
X132940000Y-8540000D02*
X133840000Y-8040000D01*
X133840000Y-8040000D02*
X133840000Y-9040000D01*
X133840000Y-9040000D02*
X132940000Y-8540000D01*
X136040000Y-7790000D02*
X130640000Y-7790000D01*
X136040000Y-9290000D02*
X136040000Y-7790000D01*
X42500000Y3000000D02*
X42500000Y6600000D01*
X42500000Y6600000D02*
X34299999Y6600000D01*
X42480000Y4000000D02*
X42480000Y6250000D01*
D12*
X42350000Y6400000D02*
X41100000Y6400000D01*
D13*
X42300000Y3250000D02*
X41000000Y3300000D01*
D14*
X42000000Y6000000D02*
X42000000Y3500000D01*
D15*
X40700000Y4800000D02*
X34000000Y4800000D01*
D11*
X37700000Y3000000D02*
X42500000Y3000000D01*
D16*
X33930000Y5100000D02*
X33930000Y2860000D01*
D17*
X32800000Y1600000D02*
X32800000Y3399999D01*
D13*
X32650000Y1300000D02*
X35100000Y1300000D01*
D11*
X32450000Y1100000D02*
X35480000Y1100000D01*
X32450000Y5550000D02*
X32450000Y1100000D01*
D10*
X32300000Y4050000D02*
X32300000Y4700000D01*
D11*
X32200000Y3950000D02*
X32400000Y3950000D01*
X32200000Y4700000D02*
X32200000Y3950000D01*
X37700000Y3000000D02*
G75*
G03*
X35483682Y1121471I-65000J-2170000D01*
G01*
D14*
X37300000Y3400000D02*
G75*
G03*
X35083682Y1521471I-65000J-2170000D01*
G01*
D11*
X34299999Y6600000D02*
G75*
G03*
X32200000Y4699999I-99999J-2000000D01*
G01*
X35450000Y-7610000D02*
X35450000Y-9110000D01*
X35450000Y-9110000D02*
X40850000Y-9110000D01*
X37650000Y-7860000D02*
X37650000Y-8860000D01*
X37750000Y-8360000D02*
X38650000Y-7860000D01*
X38650000Y-7860000D02*
X38650000Y-8860000D01*
X38650000Y-8860000D02*
X37750000Y-8360000D01*
X40850000Y-7610000D02*
X35450000Y-7610000D01*
X40850000Y-9110000D02*
X40850000Y-7610000D01*
X154490000Y-26600000D02*
X154490000Y-28100000D01*
X154490000Y-28100000D02*
X159890000Y-28100000D01*
X156690000Y-26850000D02*
X156690000Y-27850000D01*
X156790000Y-27350000D02*
X157690000Y-26850000D01*
X157690000Y-26850000D02*
X157690000Y-27850000D01*
X157690000Y-27850000D02*
X156790000Y-27350000D01*
X159890000Y-26600000D02*
X154490000Y-26600000D01*
X159890000Y-28100000D02*
X159890000Y-26600000D01*
X173855000Y-26520000D02*
X173855000Y-28020000D01*
X173855000Y-28020000D02*
X179255000Y-28020000D01*
X176055000Y-26770000D02*
X176055000Y-27770000D01*
X176155000Y-27270000D02*
X177055000Y-26770000D01*
X177055000Y-26770000D02*
X177055000Y-27770000D01*
X177055000Y-27770000D02*
X176155000Y-27270000D01*
X179255000Y-26520000D02*
X173855000Y-26520000D01*
X179255000Y-28020000D02*
X179255000Y-26520000D01*
X142512500Y-16050000D02*
X142512500Y-12450000D01*
X142512500Y-12450000D02*
X134312499Y-12450000D01*
X142492500Y-15050000D02*
X142492500Y-12800000D01*
D12*
X142362500Y-12650000D02*
X141112500Y-12650000D01*
D13*
X142312500Y-15800000D02*
X141012500Y-15750000D01*
D14*
X142012500Y-13050000D02*
X142012500Y-15550000D01*
D15*
X140712500Y-14250000D02*
X134012500Y-14250000D01*
D11*
X137712500Y-16050000D02*
X142512500Y-16050000D01*
D16*
X133942500Y-13950000D02*
X133942500Y-16190000D01*
D17*
X132812500Y-17450000D02*
X132812500Y-15650001D01*
D13*
X132662500Y-17750000D02*
X135112500Y-17750000D01*
D11*
X132462500Y-17950000D02*
X135492500Y-17950000D01*
X132462500Y-13500000D02*
X132462500Y-17950000D01*
D10*
X132312500Y-15000000D02*
X132312500Y-14350000D01*
D11*
X132212500Y-15100000D02*
X132412500Y-15100000D01*
X132212500Y-14350000D02*
X132212500Y-15100000D01*
X137712500Y-16050000D02*
G75*
G03*
X135496182Y-17928529I-65000J-2170000D01*
G01*
D14*
X137312500Y-15650000D02*
G75*
G03*
X135096182Y-17528529I-65000J-2170000D01*
G01*
D11*
X134312499Y-12450000D02*
G75*
G03*
X132212500Y-14350001I-99999J-2000000D01*
G01*
X111720000Y-7730000D02*
X111720000Y-9230000D01*
X111720000Y-9230000D02*
X117120000Y-9230000D01*
X113920000Y-7980000D02*
X113920000Y-8980000D01*
X114020000Y-8480000D02*
X114920000Y-7980000D01*
X114920000Y-7980000D02*
X114920000Y-8980000D01*
X114920000Y-8980000D02*
X114020000Y-8480000D01*
X117120000Y-7730000D02*
X111720000Y-7730000D01*
X117120000Y-9230000D02*
X117120000Y-7730000D01*
X199648000Y-54140000D02*
X199648000Y-50540000D01*
X199648000Y-50540000D02*
X191447999Y-50540000D01*
X199628000Y-53140000D02*
X199628000Y-50890000D01*
D12*
X199498000Y-50740000D02*
X198248000Y-50740000D01*
D13*
X199448000Y-53890000D02*
X198148000Y-53840000D01*
D14*
X199148000Y-51140000D02*
X199148000Y-53640000D01*
D15*
X197848000Y-52340000D02*
X191148000Y-52340000D01*
D11*
X194848000Y-54140000D02*
X199648000Y-54140000D01*
D16*
X191078000Y-52040000D02*
X191078000Y-54280000D01*
D17*
X189948000Y-55540000D02*
X189948000Y-53740001D01*
D13*
X189798000Y-55840000D02*
X192248000Y-55840000D01*
D11*
X189598000Y-56040000D02*
X192628000Y-56040000D01*
X189598000Y-51590000D02*
X189598000Y-56040000D01*
D10*
X189448000Y-53090000D02*
X189448000Y-52440000D01*
D11*
X189348000Y-53190000D02*
X189548000Y-53190000D01*
X189348000Y-52440000D02*
X189348000Y-53190000D01*
X194848000Y-54140000D02*
G75*
G03*
X192631682Y-56018529I-65000J-2170000D01*
G01*
D14*
X194448000Y-53740000D02*
G75*
G03*
X192231682Y-55618529I-65000J-2170000D01*
G01*
D11*
X191447999Y-50540000D02*
G75*
G03*
X189348000Y-52440001I-99999J-2000000D01*
G01*
X40250000Y-26480000D02*
X40250000Y-27980000D01*
X40250000Y-27980000D02*
X45650000Y-27980000D01*
X42450000Y-26730000D02*
X42450000Y-27730000D01*
X42550000Y-27230000D02*
X43450000Y-26730000D01*
X43450000Y-26730000D02*
X43450000Y-27730000D01*
X43450000Y-27730000D02*
X42550000Y-27230000D01*
X45650000Y-26480000D02*
X40250000Y-26480000D01*
X45650000Y-27980000D02*
X45650000Y-26480000D01*
X135340000Y-26510000D02*
X135340000Y-28010000D01*
X135340000Y-28010000D02*
X140740000Y-28010000D01*
X137540000Y-26760000D02*
X137540000Y-27760000D01*
X137640000Y-27260000D02*
X138540000Y-26760000D01*
X138540000Y-26760000D02*
X138540000Y-27760000D01*
X138540000Y-27760000D02*
X137640000Y-27260000D01*
X140740000Y-26510000D02*
X135340000Y-26510000D01*
X140740000Y-28010000D02*
X140740000Y-26510000D01*
X144960000Y-45590000D02*
X144960000Y-47090000D01*
X144960000Y-47090000D02*
X150360000Y-47090000D01*
X147160000Y-45840000D02*
X147160000Y-46840000D01*
X147260000Y-46340000D02*
X148160000Y-45840000D01*
X148160000Y-45840000D02*
X148160000Y-46840000D01*
X148160000Y-46840000D02*
X147260000Y-46340000D01*
X150360000Y-45590000D02*
X144960000Y-45590000D01*
X150360000Y-47090000D02*
X150360000Y-45590000D01*
X118700000Y3000000D02*
X118700000Y6600000D01*
X118700000Y6600000D02*
X110499999Y6600000D01*
X118680000Y4000000D02*
X118680000Y6250000D01*
D12*
X118550000Y6400000D02*
X117300000Y6400000D01*
D13*
X118500000Y3250000D02*
X117200000Y3300000D01*
D14*
X118200000Y6000000D02*
X118200000Y3500000D01*
D15*
X116900000Y4800000D02*
X110200000Y4800000D01*
D11*
X113900000Y3000000D02*
X118700000Y3000000D01*
D16*
X110130000Y5100000D02*
X110130000Y2860000D01*
D17*
X109000000Y1600000D02*
X109000000Y3399999D01*
D13*
X108850000Y1300000D02*
X111300000Y1300000D01*
D11*
X108650000Y1100000D02*
X111680000Y1100000D01*
X108650000Y5550000D02*
X108650000Y1100000D01*
D10*
X108500000Y4050000D02*
X108500000Y4700000D01*
D11*
X108400000Y3950000D02*
X108600000Y3950000D01*
X108400000Y4700000D02*
X108400000Y3950000D01*
X113900000Y3000000D02*
G75*
G03*
X111683682Y1121471I-65000J-2170000D01*
G01*
D14*
X113500000Y3400000D02*
G75*
G03*
X111283682Y1521471I-65000J-2170000D01*
G01*
D11*
X110499999Y6600000D02*
G75*
G03*
X108400000Y4699999I-99999J-2000000D01*
G01*
X180600000Y-16030000D02*
X180600000Y-12430000D01*
X180600000Y-12430000D02*
X172399999Y-12430000D01*
X180580000Y-15030000D02*
X180580000Y-12780000D01*
D12*
X180450000Y-12630000D02*
X179200000Y-12630000D01*
D13*
X180400000Y-15780000D02*
X179100000Y-15730000D01*
D14*
X180100000Y-13030000D02*
X180100000Y-15530000D01*
D15*
X178800000Y-14230000D02*
X172100000Y-14230000D01*
D11*
X175800000Y-16030000D02*
X180600000Y-16030000D01*
D16*
X172030000Y-13930000D02*
X172030000Y-16170000D01*
D17*
X170900000Y-17430000D02*
X170900000Y-15630001D01*
D13*
X170750000Y-17730000D02*
X173200000Y-17730000D01*
D11*
X170550000Y-17930000D02*
X173580000Y-17930000D01*
X170550000Y-13480000D02*
X170550000Y-17930000D01*
D10*
X170400000Y-14980000D02*
X170400000Y-14330000D01*
D11*
X170300000Y-15080000D02*
X170500000Y-15080000D01*
X170300000Y-14330000D02*
X170300000Y-15080000D01*
X175800000Y-16030000D02*
G75*
G03*
X173583682Y-17908529I-65000J-2170000D01*
G01*
D14*
X175400000Y-15630000D02*
G75*
G03*
X173183682Y-17508529I-65000J-2170000D01*
G01*
D11*
X172399999Y-12430000D02*
G75*
G03*
X170300000Y-14330001I-99999J-2000000D01*
G01*
X6780000Y-16030000D02*
X6780000Y-12430000D01*
X6780000Y-12430000D02*
X-1420001Y-12430000D01*
X6760000Y-15030000D02*
X6760000Y-12780000D01*
D12*
X6630000Y-12630000D02*
X5380000Y-12630000D01*
D13*
X6580000Y-15780000D02*
X5280000Y-15730000D01*
D14*
X6280000Y-13030000D02*
X6280000Y-15530000D01*
D15*
X4980000Y-14230000D02*
X-1720000Y-14230000D01*
D11*
X1980000Y-16030000D02*
X6780000Y-16030000D01*
D16*
X-1790000Y-13930000D02*
X-1790000Y-16170000D01*
D17*
X-2920000Y-17430000D02*
X-2920000Y-15630001D01*
D13*
X-3070000Y-17730000D02*
X-620000Y-17730000D01*
D11*
X-3270000Y-17930000D02*
X-240000Y-17930000D01*
X-3270000Y-13480000D02*
X-3270000Y-17930000D01*
D10*
X-3420000Y-14980000D02*
X-3420000Y-14330000D01*
D11*
X-3520000Y-15080000D02*
X-3320000Y-15080000D01*
X-3520000Y-14330000D02*
X-3520000Y-15080000D01*
X1980000Y-16030000D02*
G75*
G03*
X-236318Y-17908529I-65000J-2170000D01*
G01*
D14*
X1580000Y-15630000D02*
G75*
G03*
X-636318Y-17508529I-65000J-2170000D01*
G01*
D11*
X-1420001Y-12430000D02*
G75*
G03*
X-3520000Y-14330001I-99999J-2000000D01*
G01*
X190540000Y-45570000D02*
X190540000Y-47070000D01*
X190540000Y-47070000D02*
X195940000Y-47070000D01*
X192740000Y-45820000D02*
X192740000Y-46820000D01*
X192840000Y-46320000D02*
X193740000Y-45820000D01*
X193740000Y-45820000D02*
X193740000Y-46820000D01*
X193740000Y-46820000D02*
X192840000Y-46320000D01*
X195940000Y-45570000D02*
X190540000Y-45570000D01*
X195940000Y-47070000D02*
X195940000Y-45570000D01*
X3040000Y-64560000D02*
X3040000Y-66060000D01*
X3040000Y-66060000D02*
X8440000Y-66060000D01*
X5240000Y-64810000D02*
X5240000Y-65810000D01*
X5340000Y-65310000D02*
X6240000Y-64810000D01*
X6240000Y-64810000D02*
X6240000Y-65810000D01*
X6240000Y-65810000D02*
X5340000Y-65310000D01*
X8440000Y-64560000D02*
X3040000Y-64560000D01*
X8440000Y-66060000D02*
X8440000Y-64560000D01*
X85362500Y-16050000D02*
X85362500Y-12450000D01*
X85362500Y-12450000D02*
X77162499Y-12450000D01*
X85342500Y-15050000D02*
X85342500Y-12800000D01*
D12*
X85212500Y-12650000D02*
X83962500Y-12650000D01*
D13*
X85162500Y-15800000D02*
X83862500Y-15750000D01*
D14*
X84862500Y-13050000D02*
X84862500Y-15550000D01*
D15*
X83562500Y-14250000D02*
X76862500Y-14250000D01*
D11*
X80562500Y-16050000D02*
X85362500Y-16050000D01*
D16*
X76792500Y-13950000D02*
X76792500Y-16190000D01*
D17*
X75662500Y-17450000D02*
X75662500Y-15650001D01*
D13*
X75512500Y-17750000D02*
X77962500Y-17750000D01*
D11*
X75312500Y-17950000D02*
X78342500Y-17950000D01*
X75312500Y-13500000D02*
X75312500Y-17950000D01*
D10*
X75162500Y-15000000D02*
X75162500Y-14350000D01*
D11*
X75062500Y-15100000D02*
X75262500Y-15100000D01*
X75062500Y-14350000D02*
X75062500Y-15100000D01*
X80562500Y-16050000D02*
G75*
G03*
X78346182Y-17928529I-65000J-2170000D01*
G01*
D14*
X80162500Y-15650000D02*
G75*
G03*
X77946182Y-17528529I-65000J-2170000D01*
G01*
D11*
X77162499Y-12450000D02*
G75*
G03*
X75062500Y-14350001I-99999J-2000000D01*
G01*
X47262500Y-16050000D02*
X47262500Y-12450000D01*
X47262500Y-12450000D02*
X39062499Y-12450000D01*
X47242500Y-15050000D02*
X47242500Y-12800000D01*
D12*
X47112500Y-12650000D02*
X45862500Y-12650000D01*
D13*
X47062500Y-15800000D02*
X45762500Y-15750000D01*
D14*
X46762500Y-13050000D02*
X46762500Y-15550000D01*
D15*
X45462500Y-14250000D02*
X38762500Y-14250000D01*
D11*
X42462500Y-16050000D02*
X47262500Y-16050000D01*
D16*
X38692500Y-13950000D02*
X38692500Y-16190000D01*
D17*
X37562500Y-17450000D02*
X37562500Y-15650001D01*
D13*
X37412500Y-17750000D02*
X39862500Y-17750000D01*
D11*
X37212500Y-17950000D02*
X40242500Y-17950000D01*
X37212500Y-13500000D02*
X37212500Y-17950000D01*
D10*
X37062500Y-15000000D02*
X37062500Y-14350000D01*
D11*
X36962500Y-15100000D02*
X37162500Y-15100000D01*
X36962500Y-14350000D02*
X36962500Y-15100000D01*
X42462500Y-16050000D02*
G75*
G03*
X40246182Y-17928529I-65000J-2170000D01*
G01*
D14*
X42062500Y-15650000D02*
G75*
G03*
X39846182Y-17528529I-65000J-2170000D01*
G01*
D11*
X39062499Y-12450000D02*
G75*
G03*
X36962500Y-14350001I-99999J-2000000D01*
G01*
X158150000Y-7500000D02*
X158150000Y-9000000D01*
X158150000Y-9000000D02*
X163550000Y-9000000D01*
X160350000Y-7750000D02*
X160350000Y-8750000D01*
X160450000Y-8250000D02*
X161350000Y-7750000D01*
X161350000Y-7750000D02*
X161350000Y-8750000D01*
X161350000Y-8750000D02*
X160450000Y-8250000D01*
X163550000Y-7500000D02*
X158150000Y-7500000D01*
X163550000Y-9000000D02*
X163550000Y-7500000D01*
X193030000Y-64620000D02*
X193030000Y-66120000D01*
X193030000Y-66120000D02*
X198430000Y-66120000D01*
X195230000Y-64870000D02*
X195230000Y-65870000D01*
X195330000Y-65370000D02*
X196230000Y-64870000D01*
X196230000Y-64870000D02*
X196230000Y-65870000D01*
X196230000Y-65870000D02*
X195330000Y-65370000D01*
X198430000Y-64620000D02*
X193030000Y-64620000D01*
X198430000Y-66120000D02*
X198430000Y-64620000D01*
X68740000Y-45560000D02*
X68740000Y-47060000D01*
X68740000Y-47060000D02*
X74140000Y-47060000D01*
X70940000Y-45810000D02*
X70940000Y-46810000D01*
X71040000Y-46310000D02*
X71940000Y-45810000D01*
X71940000Y-45810000D02*
X71940000Y-46810000D01*
X71940000Y-46810000D02*
X71040000Y-46310000D01*
X74140000Y-45560000D02*
X68740000Y-45560000D01*
X74140000Y-47060000D02*
X74140000Y-45560000D01*
X137750000Y3000000D02*
X137750000Y6600000D01*
X137750000Y6600000D02*
X129549999Y6600000D01*
X137730000Y4000000D02*
X137730000Y6250000D01*
D12*
X137600000Y6400000D02*
X136350000Y6400000D01*
D13*
X137550000Y3250000D02*
X136250000Y3300000D01*
D14*
X137250000Y6000000D02*
X137250000Y3500000D01*
D15*
X135950000Y4800000D02*
X129250000Y4800000D01*
D11*
X132950000Y3000000D02*
X137750000Y3000000D01*
D16*
X129180000Y5100000D02*
X129180000Y2860000D01*
D17*
X128050000Y1600000D02*
X128050000Y3399999D01*
D13*
X127900000Y1300000D02*
X130350000Y1300000D01*
D11*
X127700000Y1100000D02*
X130730000Y1100000D01*
X127700000Y5550000D02*
X127700000Y1100000D01*
D10*
X127550000Y4050000D02*
X127550000Y4700000D01*
D11*
X127450000Y3950000D02*
X127650000Y3950000D01*
X127450000Y4700000D02*
X127450000Y3950000D01*
X132950000Y3000000D02*
G75*
G03*
X130733682Y1121471I-65000J-2170000D01*
G01*
D14*
X132550000Y3400000D02*
G75*
G03*
X130333682Y1521471I-65000J-2170000D01*
G01*
D11*
X129549999Y6600000D02*
G75*
G03*
X127450000Y4699999I-99999J-2000000D01*
G01*
X113937500Y-35100000D02*
X113937500Y-31500000D01*
X113937500Y-31500000D02*
X105737499Y-31500000D01*
X113917500Y-34100000D02*
X113917500Y-31850000D01*
D12*
X113787500Y-31700000D02*
X112537500Y-31700000D01*
D13*
X113737500Y-34850000D02*
X112437500Y-34800000D01*
D14*
X113437500Y-32100000D02*
X113437500Y-34600000D01*
D15*
X112137500Y-33300000D02*
X105437500Y-33300000D01*
D11*
X109137500Y-35100000D02*
X113937500Y-35100000D01*
D16*
X105367500Y-33000000D02*
X105367500Y-35240000D01*
D17*
X104237500Y-36500000D02*
X104237500Y-34700001D01*
D13*
X104087500Y-36800000D02*
X106537500Y-36800000D01*
D11*
X103887500Y-37000000D02*
X106917500Y-37000000D01*
X103887500Y-32550000D02*
X103887500Y-37000000D01*
D10*
X103737500Y-34050000D02*
X103737500Y-33400000D01*
D11*
X103637500Y-34150000D02*
X103837500Y-34150000D01*
X103637500Y-33400000D02*
X103637500Y-34150000D01*
X109137500Y-35100000D02*
G75*
G03*
X106921182Y-36978529I-65000J-2170000D01*
G01*
D14*
X108737500Y-34700000D02*
G75*
G03*
X106521182Y-36578529I-65000J-2170000D01*
G01*
D11*
X105737499Y-31500000D02*
G75*
G03*
X103637500Y-33400001I-99999J-2000000D01*
G01*
X73610000Y-7650000D02*
X73610000Y-9150000D01*
X73610000Y-9150000D02*
X79010000Y-9150000D01*
X75810000Y-7900000D02*
X75810000Y-8900000D01*
X75910000Y-8400000D02*
X76810000Y-7900000D01*
X76810000Y-7900000D02*
X76810000Y-8900000D01*
X76810000Y-8900000D02*
X75910000Y-8400000D01*
X79010000Y-7650000D02*
X73610000Y-7650000D01*
X79010000Y-9150000D02*
X79010000Y-7650000D01*
X49780000Y-45570000D02*
X49780000Y-47070000D01*
X49780000Y-47070000D02*
X55180000Y-47070000D01*
X51980000Y-45820000D02*
X51980000Y-46820000D01*
X52080000Y-46320000D02*
X52980000Y-45820000D01*
X52980000Y-45820000D02*
X52980000Y-46820000D01*
X52980000Y-46820000D02*
X52080000Y-46320000D01*
X55180000Y-45570000D02*
X49780000Y-45570000D01*
X55180000Y-47070000D02*
X55180000Y-45570000D01*
X78250000Y-26630000D02*
X78250000Y-28130000D01*
X78250000Y-28130000D02*
X83650000Y-28130000D01*
X80450000Y-26880000D02*
X80450000Y-27880000D01*
X80550000Y-27380000D02*
X81450000Y-26880000D01*
X81450000Y-26880000D02*
X81450000Y-27880000D01*
X81450000Y-27880000D02*
X80550000Y-27380000D01*
X83650000Y-26630000D02*
X78250000Y-26630000D01*
X83650000Y-28130000D02*
X83650000Y-26630000D01*
X28221250Y-54130000D02*
X28221250Y-50530000D01*
X28221250Y-50530000D02*
X20021249Y-50530000D01*
X28201250Y-53130000D02*
X28201250Y-50880000D01*
D12*
X28071250Y-50730000D02*
X26821250Y-50730000D01*
D13*
X28021250Y-53880000D02*
X26721250Y-53830000D01*
D14*
X27721250Y-51130000D02*
X27721250Y-53630000D01*
D15*
X26421250Y-52330000D02*
X19721250Y-52330000D01*
D11*
X23421250Y-54130000D02*
X28221250Y-54130000D01*
D16*
X19651250Y-52030000D02*
X19651250Y-54270000D01*
D17*
X18521250Y-55530000D02*
X18521250Y-53730001D01*
D13*
X18371250Y-55830000D02*
X20821250Y-55830000D01*
D11*
X18171250Y-56030000D02*
X21201250Y-56030000D01*
X18171250Y-51580000D02*
X18171250Y-56030000D01*
D10*
X18021250Y-53080000D02*
X18021250Y-52430000D01*
D11*
X17921250Y-53180000D02*
X18121250Y-53180000D01*
X17921250Y-52430000D02*
X17921250Y-53180000D01*
X23421250Y-54130000D02*
G75*
G03*
X21204932Y-56008529I-65000J-2170000D01*
G01*
D14*
X23021250Y-53730000D02*
G75*
G03*
X20804932Y-55608529I-65000J-2170000D01*
G01*
D11*
X20021249Y-50530000D02*
G75*
G03*
X17921250Y-52430001I-99999J-2000000D01*
G01*
X66312500Y-16050000D02*
X66312500Y-12450000D01*
X66312500Y-12450000D02*
X58112499Y-12450000D01*
X66292500Y-15050000D02*
X66292500Y-12800000D01*
D12*
X66162500Y-12650000D02*
X64912500Y-12650000D01*
D13*
X66112500Y-15800000D02*
X64812500Y-15750000D01*
D14*
X65812500Y-13050000D02*
X65812500Y-15550000D01*
D15*
X64512500Y-14250000D02*
X57812500Y-14250000D01*
D11*
X61512500Y-16050000D02*
X66312500Y-16050000D01*
D16*
X57742500Y-13950000D02*
X57742500Y-16190000D01*
D17*
X56612500Y-17450000D02*
X56612500Y-15650001D01*
D13*
X56462500Y-17750000D02*
X58912500Y-17750000D01*
D11*
X56262500Y-17950000D02*
X59292500Y-17950000D01*
X56262500Y-13500000D02*
X56262500Y-17950000D01*
D10*
X56112500Y-15000000D02*
X56112500Y-14350000D01*
D11*
X56012500Y-15100000D02*
X56212500Y-15100000D01*
X56012500Y-14350000D02*
X56012500Y-15100000D01*
X61512500Y-16050000D02*
G75*
G03*
X59296182Y-17928529I-65000J-2170000D01*
G01*
D14*
X61112500Y-15650000D02*
G75*
G03*
X58896182Y-17528529I-65000J-2170000D01*
G01*
D11*
X58112499Y-12450000D02*
G75*
G03*
X56012500Y-14350001I-99999J-2000000D01*
G01*
X87780000Y-45550000D02*
X87780000Y-47050000D01*
X87780000Y-47050000D02*
X93180000Y-47050000D01*
X89980000Y-45800000D02*
X89980000Y-46800000D01*
X90080000Y-46300000D02*
X90980000Y-45800000D01*
X90980000Y-45800000D02*
X90980000Y-46800000D01*
X90980000Y-46800000D02*
X90080000Y-46300000D01*
X93180000Y-45550000D02*
X87780000Y-45550000D01*
X93180000Y-47050000D02*
X93180000Y-45550000D01*
X13880000Y-9750000D02*
X-9620000Y-9750000D01*
X-9620000Y-9750000D02*
X-9620000Y-14420000D01*
X-9620000Y-9750000D02*
X-9620000Y-27750000D01*
X-9620000Y-14420000D02*
X-11500000Y-14420000D01*
X-11500000Y-14420000D02*
X-11500000Y-23080000D01*
X-9620000Y-23080000D02*
X-11500000Y-23080000D01*
X13880000Y-27750000D02*
X13880000Y-9750000D01*
X-9620000Y-27750000D02*
X-9620000Y-23080000D01*
X-9620000Y-27750000D02*
X13880000Y-27750000D01*
M02*
