999
"DXF R12 Output" (www.mydxf.blogspot.com)
 0 
SECTION
 2 
HEADER
 9 
$ACADVER
 1 
AC1009
 9 
$EXTMIN
 10 
 0 
 20 
 0 
 9 
$EXTMAX
 10 
 8.5 
 20 
 11 
 0 
ENDSEC
 0 
SECTION
 2 
ENTITIES
0
LINE
8
Layer 1
10
138.081000
20
56.385700
11
134.130000
21
56.385700
0
LINE
8
Layer 1
10
79.450800
20
58.050300
11
83.393400
21
58.050300
0
LINE
8
Layer 1
10
83.393400
20
58.050300
11
83.393400
21
54.102000
0
LINE
8
Layer 1
10
83.393400
20
54.102000
11
79.450800
21
54.102000
0
LINE
8
Layer 1
10
79.450800
20
54.102000
11
79.450800
21
58.050300
0
LINE
8
Layer 1
10
138.081000
20
54.410200
11
138.180779
21
54.451512
0
LINE
8
Layer 1
10
138.180779
20
54.451512
11
138.222111
21
54.551283
0
LINE
8
Layer 1
10
138.081000
20
61.148500
11
138.180779
21
61.189812
0
LINE
8
Layer 1
10
138.180779
20
61.189812
11
138.222111
21
61.289583
0
LINE
8
Layer 1
10
138.222000
20
56.244600
11
138.080861
21
56.385711
0
LINE
8
Layer 1
10
101.628000
20
58.050300
11
105.571000
21
58.050300
0
LINE
8
Layer 1
10
105.571000
20
58.050300
11
105.571000
21
54.102000
0
LINE
8
Layer 1
10
105.571000
20
54.102000
11
101.628000
21
54.102000
0
LINE
8
Layer 1
10
101.628000
20
54.102000
11
101.628000
21
58.050300
0
LINE
8
Layer 1
10
133.989000
20
62.983000
11
133.989000
21
61.289600
0
LINE
8
Layer 1
10
104.316000
20
52.674000
11
108.259000
21
52.674000
0
LINE
8
Layer 1
10
108.259000
20
52.674000
11
108.259000
21
48.725700
0
LINE
8
Layer 1
10
108.259000
20
48.725700
11
104.316000
21
48.725700
0
LINE
8
Layer 1
10
104.316000
20
48.725700
11
104.316000
21
52.674000
0
LINE
8
Layer 1
10
127.166000
20
63.426600
11
131.108000
21
63.426600
0
LINE
8
Layer 1
10
131.108000
20
63.426600
11
131.108000
21
59.478300
0
LINE
8
Layer 1
10
131.108000
20
59.478300
11
127.166000
21
59.478300
0
LINE
8
Layer 1
10
127.166000
20
59.478300
11
127.166000
21
63.426600
0
LINE
8
Layer 1
10
112.381000
20
58.050300
11
116.323000
21
58.050300
0
LINE
8
Layer 1
10
116.323000
20
58.050300
11
116.323000
21
54.102000
0
LINE
8
Layer 1
10
116.323000
20
54.102000
11
112.381000
21
54.102000
0
LINE
8
Layer 1
10
112.381000
20
54.102000
11
112.381000
21
58.050300
0
LINE
8
Layer 1
10
134.130000
20
56.385700
11
134.030221
21
56.344388
0
LINE
8
Layer 1
10
134.030221
20
56.344388
11
133.988889
21
56.244617
0
LINE
8
Layer 1
10
100.284000
20
63.426600
11
104.227000
21
63.426600
0
LINE
8
Layer 1
10
104.227000
20
63.426600
11
104.227000
21
59.478300
0
LINE
8
Layer 1
10
104.227000
20
59.478300
11
100.284000
21
59.478300
0
LINE
8
Layer 1
10
100.284000
20
59.478300
11
100.284000
21
63.426600
0
LINE
8
Layer 1
10
124.257000
20
42.786300
11
125.951000
21
42.786300
0
LINE
8
Layer 1
10
133.214000
20
52.674000
11
137.157000
21
52.674000
0
LINE
8
Layer 1
10
137.157000
20
52.674000
11
137.157000
21
48.725700
0
LINE
8
Layer 1
10
137.157000
20
48.725700
11
133.214000
21
48.725700
0
LINE
8
Layer 1
10
133.214000
20
48.725700
11
133.214000
21
52.674000
0
LINE
8
Layer 1
10
128.510000
20
47.297600
11
132.452000
21
47.297600
0
LINE
8
Layer 1
10
132.452000
20
47.297600
11
132.452000
21
43.349300
0
LINE
8
Layer 1
10
132.452000
20
43.349300
11
128.510000
21
43.349300
0
LINE
8
Layer 1
10
128.510000
20
43.349300
11
128.510000
21
47.297600
0
LINE
8
Layer 1
10
124.116000
20
46.878500
11
124.116000
21
42.927400
0
LINE
8
Layer 1
10
80.794900
20
52.674000
11
84.737500
21
52.674000
0
LINE
8
Layer 1
10
84.737500
20
52.674000
11
84.737500
21
48.725700
0
LINE
8
Layer 1
10
84.737500
20
48.725700
11
80.794900
21
48.725700
0
LINE
8
Layer 1
10
80.794900
20
48.725700
11
80.794900
21
52.674000
0
LINE
8
Layer 1
10
93.833900
20
46.878500
11
93.792570
21
46.978281
0
LINE
8
Layer 1
10
93.792570
20
46.978281
11
93.692789
21
47.019611
0
LINE
8
Layer 1
10
84.155100
20
63.426600
11
88.097700
21
63.426600
0
LINE
8
Layer 1
10
88.097700
20
63.426600
11
88.097700
21
59.478300
0
LINE
8
Layer 1
10
88.097700
20
59.478300
11
84.155100
21
59.478300
0
LINE
8
Layer 1
10
84.155100
20
59.478300
11
84.155100
21
63.426600
0
LINE
8
Layer 1
10
93.833900
20
46.878500
11
93.833900
21
42.927400
0
LINE
8
Layer 1
10
91.999400
20
47.019600
11
93.692800
21
47.019600
0
LINE
8
Layer 1
10
85.499200
20
47.297600
11
89.441800
21
47.297600
0
LINE
8
Layer 1
10
89.441800
20
47.297600
11
89.441800
21
43.349300
0
LINE
8
Layer 1
10
89.441800
20
43.349300
11
85.499200
21
43.349300
0
LINE
8
Layer 1
10
85.499200
20
43.349300
11
85.499200
21
47.297600
0
LINE
8
Layer 1
10
133.886000
20
47.297600
11
137.829000
21
47.297600
0
LINE
8
Layer 1
10
137.829000
20
47.297600
11
137.829000
21
43.349300
0
LINE
8
Layer 1
10
137.829000
20
43.349300
11
133.886000
21
43.349300
0
LINE
8
Layer 1
10
133.886000
20
43.349300
11
133.886000
21
47.297600
0
LINE
8
Layer 1
10
89.531400
20
63.426600
11
93.474000
21
63.426600
0
LINE
8
Layer 1
10
93.474000
20
63.426600
11
93.474000
21
59.478300
0
LINE
8
Layer 1
10
93.474000
20
59.478300
11
89.531400
21
59.478300
0
LINE
8
Layer 1
10
89.531400
20
59.478300
11
89.531400
21
63.426600
0
LINE
8
Layer 1
10
109.693000
20
52.674000
11
113.635000
21
52.674000
0
LINE
8
Layer 1
10
113.635000
20
52.674000
11
113.635000
21
48.725700
0
LINE
8
Layer 1
10
113.635000
20
48.725700
11
109.693000
21
48.725700
0
LINE
8
Layer 1
10
109.693000
20
48.725700
11
109.693000
21
52.674000
0
LINE
8
Layer 1
10
107.000000
20
47.160700
11
107.000000
21
43.491900
0
LINE
8
Layer 1
10
134.130000
20
63.124000
11
134.030221
21
63.082688
0
LINE
8
Layer 1
10
134.030221
20
63.082688
11
133.988889
21
62.982917
0
LINE
8
Layer 1
10
133.989000
20
61.289600
11
134.130139
21
61.148489
0
LINE
8
Layer 1
10
121.789000
20
63.426600
11
125.732000
21
63.426600
0
LINE
8
Layer 1
10
125.732000
20
63.426600
11
125.732000
21
59.478300
0
LINE
8
Layer 1
10
125.732000
20
59.478300
11
121.789000
21
59.478300
0
LINE
8
Layer 1
10
121.789000
20
59.478300
11
121.789000
21
63.426600
0
LINE
8
Layer 1
10
138.222000
20
62.983000
11
138.222000
21
61.289600
0
LINE
8
Layer 1
10
110.951000
20
47.160700
11
110.951000
21
43.491900
0
LINE
8
Layer 1
10
124.116000
20
42.927400
11
124.157330
21
42.827619
0
LINE
8
Layer 1
10
124.157330
20
42.827619
11
124.257111
21
42.786289
0
LINE
8
Layer 1
10
88.187300
20
52.674000
11
92.130000
21
52.674000
0
LINE
8
Layer 1
10
92.130000
20
52.674000
11
92.130000
21
48.725700
0
LINE
8
Layer 1
10
92.130000
20
48.725700
11
88.187300
21
48.725700
0
LINE
8
Layer 1
10
88.187300
20
48.725700
11
88.187300
21
52.674000
0
LINE
8
Layer 1
10
94.907700
20
63.426600
11
98.850400
21
63.426600
0
LINE
8
Layer 1
10
98.850400
20
63.426600
11
98.850400
21
59.478300
0
LINE
8
Layer 1
10
98.850400
20
59.478300
11
94.907700
21
59.478300
0
LINE
8
Layer 1
10
94.907700
20
59.478300
11
94.907700
21
63.426600
0
LINE
8
Layer 1
10
117.757000
20
58.050300
11
121.700000
21
58.050300
0
LINE
8
Layer 1
10
121.700000
20
58.050300
11
121.700000
21
54.102000
0
LINE
8
Layer 1
10
121.700000
20
54.102000
11
117.757000
21
54.102000
0
LINE
8
Layer 1
10
117.757000
20
54.102000
11
117.757000
21
58.050300
0
LINE
8
Layer 1
10
91.999400
20
42.786300
11
93.692800
21
42.786300
0
LINE
8
Layer 1
10
91.858300
20
42.927400
11
91.999411
21
42.786289
0
LINE
8
Layer 1
10
128.510000
20
58.050300
11
132.452000
21
58.050300
0
LINE
8
Layer 1
10
132.452000
20
58.050300
11
132.452000
21
54.102000
0
LINE
8
Layer 1
10
132.452000
20
54.102000
11
128.510000
21
54.102000
0
LINE
8
Layer 1
10
128.510000
20
54.102000
11
128.510000
21
58.050300
0
LINE
8
Layer 1
10
105.660000
20
63.426600
11
109.603000
21
63.426600
0
LINE
8
Layer 1
10
109.603000
20
63.426600
11
109.603000
21
59.478300
0
LINE
8
Layer 1
10
109.603000
20
59.478300
11
105.660000
21
59.478300
0
LINE
8
Layer 1
10
105.660000
20
59.478300
11
105.660000
21
63.426600
0
LINE
8
Layer 1
10
124.257000
20
47.019600
11
124.157219
21
46.978270
0
LINE
8
Layer 1
10
124.157219
20
46.978270
11
124.115889
21
46.878489
0
LINE
8
Layer 1
10
85.499200
20
58.050300
11
89.441800
21
58.050300
0
LINE
8
Layer 1
10
89.441800
20
58.050300
11
89.441800
21
54.102000
0
LINE
8
Layer 1
10
89.441800
20
54.102000
11
85.499200
21
54.102000
0
LINE
8
Layer 1
10
85.499200
20
54.102000
11
85.499200
21
58.050300
0
LINE
8
Layer 1
10
80.122800
20
47.297600
11
84.065500
21
47.297600
0
LINE
8
Layer 1
10
84.065500
20
47.297600
11
84.065500
21
43.349300
0
LINE
8
Layer 1
10
84.065500
20
43.349300
11
80.122800
21
43.349300
0
LINE
8
Layer 1
10
80.122800
20
43.349300
11
80.122800
21
47.297600
0
LINE
8
Layer 1
10
133.989000
20
56.244600
11
133.989000
21
54.551300
0
LINE
8
Layer 1
10
110.951000
20
47.160700
11
110.909670
21
47.260481
0
LINE
8
Layer 1
10
110.909670
20
47.260481
11
110.809889
21
47.301811
0
LINE
8
Layer 1
10
78.061200
20
64.143500
11
139.889000
21
64.143500
0
LINE
8
Layer 1
10
139.889000
20
64.143500
11
139.889000
21
42.121700
0
LINE
8
Layer 1
10
139.889000
20
42.121700
11
78.061200
21
42.121700
0
LINE
8
Layer 1
10
78.061200
20
42.121700
11
78.061200
21
64.143500
0
LINE
8
Layer 1
10
96.251800
20
58.050300
11
100.194000
21
58.050300
0
LINE
8
Layer 1
10
100.194000
20
58.050300
11
100.194000
21
54.102000
0
LINE
8
Layer 1
10
100.194000
20
54.102000
11
96.251800
21
54.102000
0
LINE
8
Layer 1
10
96.251800
20
54.102000
11
96.251800
21
58.050300
0
LINE
8
Layer 1
10
134.561000
20
60.742700
11
138.503000
21
60.742700
0
LINE
8
Layer 1
10
138.503000
20
60.742700
11
138.503000
21
56.794400
0
LINE
8
Layer 1
10
138.503000
20
56.794400
11
134.561000
21
56.794400
0
LINE
8
Layer 1
10
134.561000
20
56.794400
11
134.561000
21
60.742700
0
LINE
8
Layer 1
10
120.445000
20
52.674000
11
124.388000
21
52.674000
0
LINE
8
Layer 1
10
124.388000
20
52.674000
11
124.388000
21
48.725700
0
LINE
8
Layer 1
10
124.388000
20
48.725700
11
120.445000
21
48.725700
0
LINE
8
Layer 1
10
120.445000
20
48.725700
11
120.445000
21
52.674000
0
LINE
8
Layer 1
10
133.989000
20
54.551300
11
134.130139
21
54.410189
0
LINE
8
Layer 1
10
138.081000
20
61.148500
11
134.130000
21
61.148500
0
LINE
8
Layer 1
10
126.092000
20
46.878500
11
126.092000
21
42.927400
0
LINE
8
Layer 1
10
125.822000
20
52.674000
11
129.764000
21
52.674000
0
LINE
8
Layer 1
10
129.764000
20
52.674000
11
129.764000
21
48.725700
0
LINE
8
Layer 1
10
129.764000
20
48.725700
11
125.822000
21
48.725700
0
LINE
8
Layer 1
10
125.822000
20
48.725700
11
125.822000
21
52.674000
0
LINE
8
Layer 1
10
107.004000
20
58.050300
11
110.947000
21
58.050300
0
LINE
8
Layer 1
10
110.947000
20
58.050300
11
110.947000
21
54.102000
0
LINE
8
Layer 1
10
110.947000
20
54.102000
11
107.004000
21
54.102000
0
LINE
8
Layer 1
10
107.004000
20
54.102000
11
107.004000
21
58.050300
0
LINE
8
Layer 1
10
98.940000
20
52.674000
11
102.883000
21
52.674000
0
LINE
8
Layer 1
10
102.883000
20
52.674000
11
102.883000
21
48.725700
0
LINE
8
Layer 1
10
102.883000
20
48.725700
11
98.940000
21
48.725700
0
LINE
8
Layer 1
10
98.940000
20
48.725700
11
98.940000
21
52.674000
0
LINE
8
Layer 1
10
126.092000
20
46.878500
11
126.050670
21
46.978281
0
LINE
8
Layer 1
10
126.050670
20
46.978281
11
125.950889
21
47.019611
0
LINE
8
Layer 1
10
138.222000
20
62.983000
11
138.080861
21
63.124111
0
LINE
8
Layer 1
10
107.000000
20
43.491900
11
107.041330
21
43.392119
0
LINE
8
Layer 1
10
107.041330
20
43.392119
11
107.141111
21
43.350789
0
LINE
8
Layer 1
10
90.875500
20
58.050300
11
94.818100
21
58.050300
0
LINE
8
Layer 1
10
94.818100
20
58.050300
11
94.818100
21
54.102000
0
LINE
8
Layer 1
10
94.818100
20
54.102000
11
90.875500
21
54.102000
0
LINE
8
Layer 1
10
90.875500
20
54.102000
11
90.875500
21
58.050300
0
LINE
8
Layer 1
10
111.037000
20
63.426600
11
114.979000
21
63.426600
0
LINE
8
Layer 1
10
114.979000
20
63.426600
11
114.979000
21
59.478300
0
LINE
8
Layer 1
10
114.979000
20
59.478300
11
111.037000
21
59.478300
0
LINE
8
Layer 1
10
111.037000
20
59.478300
11
111.037000
21
63.426600
0
LINE
8
Layer 1
10
78.778700
20
63.426600
11
82.721400
21
63.426600
0
LINE
8
Layer 1
10
82.721400
20
63.426600
11
82.721400
21
59.478300
0
LINE
8
Layer 1
10
82.721400
20
59.478300
11
78.778700
21
59.478300
0
LINE
8
Layer 1
10
78.778700
20
59.478300
11
78.778700
21
63.426600
0
LINE
8
Layer 1
10
123.133000
20
58.050300
11
127.076000
21
58.050300
0
LINE
8
Layer 1
10
127.076000
20
58.050300
11
127.076000
21
54.102000
0
LINE
8
Layer 1
10
127.076000
20
54.102000
11
123.133000
21
54.102000
0
LINE
8
Layer 1
10
123.133000
20
54.102000
11
123.133000
21
58.050300
0
LINE
8
Layer 1
10
115.069000
20
52.674000
11
119.012000
21
52.674000
0
LINE
8
Layer 1
10
119.012000
20
52.674000
11
119.012000
21
48.725700
0
LINE
8
Layer 1
10
119.012000
20
48.725700
11
115.069000
21
48.725700
0
LINE
8
Layer 1
10
115.069000
20
48.725700
11
115.069000
21
52.674000
0
LINE
8
Layer 1
10
125.951000
20
42.786300
11
126.050781
21
42.827630
0
LINE
8
Layer 1
10
126.050781
20
42.827630
11
126.092111
21
42.927411
0
LINE
8
Layer 1
10
91.858300
20
46.878500
11
91.858300
21
42.927400
0
LINE
8
Layer 1
10
138.081000
20
54.410200
11
134.130000
21
54.410200
0
LINE
8
Layer 1
10
116.413000
20
63.426600
11
120.356000
21
63.426600
0
LINE
8
Layer 1
10
120.356000
20
63.426600
11
120.356000
21
59.478300
0
LINE
8
Layer 1
10
120.356000
20
59.478300
11
116.413000
21
59.478300
0
LINE
8
Layer 1
10
116.413000
20
59.478300
11
116.413000
21
63.426600
0
LINE
8
Layer 1
10
124.257000
20
47.019600
11
125.951000
21
47.019600
0
LINE
8
Layer 1
10
138.081000
20
63.124100
11
134.130000
21
63.124100
0
LINE
8
Layer 1
10
107.141000
20
43.350800
11
110.810000
21
43.350800
0
LINE
8
Layer 1
10
107.141000
20
47.301900
11
107.041219
21
47.260570
0
LINE
8
Layer 1
10
107.041219
20
47.260570
11
106.999889
21
47.160789
0
LINE
8
Layer 1
10
107.141000
20
47.301900
11
110.810000
21
47.301900
0
LINE
8
Layer 1
10
110.810000
20
43.350800
11
110.909781
21
43.392130
0
LINE
8
Layer 1
10
110.909781
20
43.392130
11
110.951111
21
43.491911
0
LINE
8
Layer 1
10
91.999400
20
47.019600
11
91.899619
21
46.978270
0
LINE
8
Layer 1
10
91.899619
20
46.978270
11
91.858289
21
46.878489
0
LINE
8
Layer 1
10
138.222000
20
56.244600
11
138.222000
21
54.551300
0
LINE
8
Layer 1
10
93.692800
20
42.786300
11
93.792581
21
42.827630
0
LINE
8
Layer 1
10
93.792581
20
42.827630
11
93.833911
21
42.927411
0
LINE
8
Layer 1
10
93.563600
20
52.674000
11
97.506300
21
52.674000
0
LINE
8
Layer 1
10
97.506300
20
52.674000
11
97.506300
21
48.725700
0
LINE
8
Layer 1
10
97.506300
20
48.725700
11
93.563600
21
48.725700
0
LINE
8
Layer 1
10
93.563600
20
48.725700
11
93.563600
21
52.674000
 0 
ENDSEC
 0 
EOF